%TF.GenerationSoftware,KiCad,Pcbnew,9.0.0*%
%TF.CreationDate,2025-03-18T21:40:51+01:00*%
%TF.ProjectId,Capteur_KICAD,43617074-6575-4725-9f4b-494341442e6b,rev?*%
%TF.SameCoordinates,Original*%
%TF.FileFunction,Legend,Top*%
%TF.FilePolarity,Positive*%
%FSLAX46Y46*%
G04 Gerber Fmt 4.6, Leading zero omitted, Abs format (unit mm)*
G04 Created by KiCad (PCBNEW 9.0.0) date 2025-03-18 21:40:51*
%MOMM*%
%LPD*%
G01*
G04 APERTURE LIST*
%ADD10C,0.100000*%
%ADD11C,0.150000*%
%ADD12C,0.200000*%
%ADD13C,0.300000*%
%ADD14C,0.078740*%
%ADD15C,0.120000*%
%ADD16C,0.152400*%
G04 APERTURE END LIST*
D10*
X134672306Y-62119961D02*
X134767544Y-62167580D01*
X134767544Y-62167580D02*
X134910401Y-62167580D01*
X134910401Y-62167580D02*
X135053258Y-62119961D01*
X135053258Y-62119961D02*
X135148496Y-62024723D01*
X135148496Y-62024723D02*
X135196115Y-61929485D01*
X135196115Y-61929485D02*
X135243734Y-61739009D01*
X135243734Y-61739009D02*
X135243734Y-61596152D01*
X135243734Y-61596152D02*
X135196115Y-61405676D01*
X135196115Y-61405676D02*
X135148496Y-61310438D01*
X135148496Y-61310438D02*
X135053258Y-61215200D01*
X135053258Y-61215200D02*
X134910401Y-61167580D01*
X134910401Y-61167580D02*
X134815163Y-61167580D01*
X134815163Y-61167580D02*
X134672306Y-61215200D01*
X134672306Y-61215200D02*
X134624687Y-61262819D01*
X134624687Y-61262819D02*
X134624687Y-61596152D01*
X134624687Y-61596152D02*
X134815163Y-61596152D01*
X134196115Y-61167580D02*
X134196115Y-62167580D01*
X134196115Y-62167580D02*
X133624687Y-61167580D01*
X133624687Y-61167580D02*
X133624687Y-62167580D01*
X133148496Y-61167580D02*
X133148496Y-62167580D01*
X133148496Y-62167580D02*
X132910401Y-62167580D01*
X132910401Y-62167580D02*
X132767544Y-62119961D01*
X132767544Y-62119961D02*
X132672306Y-62024723D01*
X132672306Y-62024723D02*
X132624687Y-61929485D01*
X132624687Y-61929485D02*
X132577068Y-61739009D01*
X132577068Y-61739009D02*
X132577068Y-61596152D01*
X132577068Y-61596152D02*
X132624687Y-61405676D01*
X132624687Y-61405676D02*
X132672306Y-61310438D01*
X132672306Y-61310438D02*
X132767544Y-61215200D01*
X132767544Y-61215200D02*
X132910401Y-61167580D01*
X132910401Y-61167580D02*
X133148496Y-61167580D01*
X131396895Y-63783734D02*
X130596895Y-63783734D01*
X130596895Y-63783734D02*
X131168323Y-63517068D01*
X131168323Y-63517068D02*
X130596895Y-63250401D01*
X130596895Y-63250401D02*
X131396895Y-63250401D01*
X131396895Y-62755163D02*
X131358800Y-62831353D01*
X131358800Y-62831353D02*
X131320704Y-62869448D01*
X131320704Y-62869448D02*
X131244514Y-62907544D01*
X131244514Y-62907544D02*
X131015942Y-62907544D01*
X131015942Y-62907544D02*
X130939752Y-62869448D01*
X130939752Y-62869448D02*
X130901657Y-62831353D01*
X130901657Y-62831353D02*
X130863561Y-62755163D01*
X130863561Y-62755163D02*
X130863561Y-62640877D01*
X130863561Y-62640877D02*
X130901657Y-62564686D01*
X130901657Y-62564686D02*
X130939752Y-62526591D01*
X130939752Y-62526591D02*
X131015942Y-62488496D01*
X131015942Y-62488496D02*
X131244514Y-62488496D01*
X131244514Y-62488496D02*
X131320704Y-62526591D01*
X131320704Y-62526591D02*
X131358800Y-62564686D01*
X131358800Y-62564686D02*
X131396895Y-62640877D01*
X131396895Y-62640877D02*
X131396895Y-62755163D01*
X130863561Y-62259924D02*
X130863561Y-61955162D01*
X130596895Y-62145638D02*
X131282609Y-62145638D01*
X131282609Y-62145638D02*
X131358800Y-62107543D01*
X131358800Y-62107543D02*
X131396895Y-62031353D01*
X131396895Y-62031353D02*
X131396895Y-61955162D01*
X131396895Y-61574210D02*
X131358800Y-61650400D01*
X131358800Y-61650400D02*
X131320704Y-61688495D01*
X131320704Y-61688495D02*
X131244514Y-61726591D01*
X131244514Y-61726591D02*
X131015942Y-61726591D01*
X131015942Y-61726591D02*
X130939752Y-61688495D01*
X130939752Y-61688495D02*
X130901657Y-61650400D01*
X130901657Y-61650400D02*
X130863561Y-61574210D01*
X130863561Y-61574210D02*
X130863561Y-61459924D01*
X130863561Y-61459924D02*
X130901657Y-61383733D01*
X130901657Y-61383733D02*
X130939752Y-61345638D01*
X130939752Y-61345638D02*
X131015942Y-61307543D01*
X131015942Y-61307543D02*
X131244514Y-61307543D01*
X131244514Y-61307543D02*
X131320704Y-61345638D01*
X131320704Y-61345638D02*
X131358800Y-61383733D01*
X131358800Y-61383733D02*
X131396895Y-61459924D01*
X131396895Y-61459924D02*
X131396895Y-61574210D01*
X131396895Y-60964685D02*
X130863561Y-60964685D01*
X131015942Y-60964685D02*
X130939752Y-60926590D01*
X130939752Y-60926590D02*
X130901657Y-60888495D01*
X130901657Y-60888495D02*
X130863561Y-60812304D01*
X130863561Y-60812304D02*
X130863561Y-60736114D01*
X131320704Y-59402780D02*
X131358800Y-59440876D01*
X131358800Y-59440876D02*
X131396895Y-59555161D01*
X131396895Y-59555161D02*
X131396895Y-59631352D01*
X131396895Y-59631352D02*
X131358800Y-59745638D01*
X131358800Y-59745638D02*
X131282609Y-59821828D01*
X131282609Y-59821828D02*
X131206419Y-59859923D01*
X131206419Y-59859923D02*
X131054038Y-59898019D01*
X131054038Y-59898019D02*
X130939752Y-59898019D01*
X130939752Y-59898019D02*
X130787371Y-59859923D01*
X130787371Y-59859923D02*
X130711180Y-59821828D01*
X130711180Y-59821828D02*
X130634990Y-59745638D01*
X130634990Y-59745638D02*
X130596895Y-59631352D01*
X130596895Y-59631352D02*
X130596895Y-59555161D01*
X130596895Y-59555161D02*
X130634990Y-59440876D01*
X130634990Y-59440876D02*
X130673085Y-59402780D01*
X131396895Y-58945638D02*
X131358800Y-59021828D01*
X131358800Y-59021828D02*
X131320704Y-59059923D01*
X131320704Y-59059923D02*
X131244514Y-59098019D01*
X131244514Y-59098019D02*
X131015942Y-59098019D01*
X131015942Y-59098019D02*
X130939752Y-59059923D01*
X130939752Y-59059923D02*
X130901657Y-59021828D01*
X130901657Y-59021828D02*
X130863561Y-58945638D01*
X130863561Y-58945638D02*
X130863561Y-58831352D01*
X130863561Y-58831352D02*
X130901657Y-58755161D01*
X130901657Y-58755161D02*
X130939752Y-58717066D01*
X130939752Y-58717066D02*
X131015942Y-58678971D01*
X131015942Y-58678971D02*
X131244514Y-58678971D01*
X131244514Y-58678971D02*
X131320704Y-58717066D01*
X131320704Y-58717066D02*
X131358800Y-58755161D01*
X131358800Y-58755161D02*
X131396895Y-58831352D01*
X131396895Y-58831352D02*
X131396895Y-58945638D01*
X130863561Y-58336113D02*
X131396895Y-58336113D01*
X130939752Y-58336113D02*
X130901657Y-58298018D01*
X130901657Y-58298018D02*
X130863561Y-58221828D01*
X130863561Y-58221828D02*
X130863561Y-58107542D01*
X130863561Y-58107542D02*
X130901657Y-58031351D01*
X130901657Y-58031351D02*
X130977847Y-57993256D01*
X130977847Y-57993256D02*
X131396895Y-57993256D01*
X130863561Y-57612303D02*
X131396895Y-57612303D01*
X130939752Y-57612303D02*
X130901657Y-57574208D01*
X130901657Y-57574208D02*
X130863561Y-57498018D01*
X130863561Y-57498018D02*
X130863561Y-57383732D01*
X130863561Y-57383732D02*
X130901657Y-57307541D01*
X130901657Y-57307541D02*
X130977847Y-57269446D01*
X130977847Y-57269446D02*
X131396895Y-57269446D01*
X131358800Y-56583731D02*
X131396895Y-56659922D01*
X131396895Y-56659922D02*
X131396895Y-56812303D01*
X131396895Y-56812303D02*
X131358800Y-56888493D01*
X131358800Y-56888493D02*
X131282609Y-56926589D01*
X131282609Y-56926589D02*
X130977847Y-56926589D01*
X130977847Y-56926589D02*
X130901657Y-56888493D01*
X130901657Y-56888493D02*
X130863561Y-56812303D01*
X130863561Y-56812303D02*
X130863561Y-56659922D01*
X130863561Y-56659922D02*
X130901657Y-56583731D01*
X130901657Y-56583731D02*
X130977847Y-56545636D01*
X130977847Y-56545636D02*
X131054038Y-56545636D01*
X131054038Y-56545636D02*
X131130228Y-56926589D01*
X131358800Y-55859922D02*
X131396895Y-55936113D01*
X131396895Y-55936113D02*
X131396895Y-56088494D01*
X131396895Y-56088494D02*
X131358800Y-56164684D01*
X131358800Y-56164684D02*
X131320704Y-56202779D01*
X131320704Y-56202779D02*
X131244514Y-56240875D01*
X131244514Y-56240875D02*
X131015942Y-56240875D01*
X131015942Y-56240875D02*
X130939752Y-56202779D01*
X130939752Y-56202779D02*
X130901657Y-56164684D01*
X130901657Y-56164684D02*
X130863561Y-56088494D01*
X130863561Y-56088494D02*
X130863561Y-55936113D01*
X130863561Y-55936113D02*
X130901657Y-55859922D01*
X130863561Y-55631351D02*
X130863561Y-55326589D01*
X130596895Y-55517065D02*
X131282609Y-55517065D01*
X131282609Y-55517065D02*
X131358800Y-55478970D01*
X131358800Y-55478970D02*
X131396895Y-55402780D01*
X131396895Y-55402780D02*
X131396895Y-55326589D01*
X131396895Y-55059922D02*
X130863561Y-55059922D01*
X130596895Y-55059922D02*
X130634990Y-55098018D01*
X130634990Y-55098018D02*
X130673085Y-55059922D01*
X130673085Y-55059922D02*
X130634990Y-55021827D01*
X130634990Y-55021827D02*
X130596895Y-55059922D01*
X130596895Y-55059922D02*
X130673085Y-55059922D01*
X131396895Y-54564685D02*
X131358800Y-54640875D01*
X131358800Y-54640875D02*
X131320704Y-54678970D01*
X131320704Y-54678970D02*
X131244514Y-54717066D01*
X131244514Y-54717066D02*
X131015942Y-54717066D01*
X131015942Y-54717066D02*
X130939752Y-54678970D01*
X130939752Y-54678970D02*
X130901657Y-54640875D01*
X130901657Y-54640875D02*
X130863561Y-54564685D01*
X130863561Y-54564685D02*
X130863561Y-54450399D01*
X130863561Y-54450399D02*
X130901657Y-54374208D01*
X130901657Y-54374208D02*
X130939752Y-54336113D01*
X130939752Y-54336113D02*
X131015942Y-54298018D01*
X131015942Y-54298018D02*
X131244514Y-54298018D01*
X131244514Y-54298018D02*
X131320704Y-54336113D01*
X131320704Y-54336113D02*
X131358800Y-54374208D01*
X131358800Y-54374208D02*
X131396895Y-54450399D01*
X131396895Y-54450399D02*
X131396895Y-54564685D01*
X130863561Y-53955160D02*
X131396895Y-53955160D01*
X130939752Y-53955160D02*
X130901657Y-53917065D01*
X130901657Y-53917065D02*
X130863561Y-53840875D01*
X130863561Y-53840875D02*
X130863561Y-53726589D01*
X130863561Y-53726589D02*
X130901657Y-53650398D01*
X130901657Y-53650398D02*
X130977847Y-53612303D01*
X130977847Y-53612303D02*
X131396895Y-53612303D01*
X134719925Y-59667580D02*
X135196115Y-59667580D01*
X135196115Y-59667580D02*
X135243734Y-59191390D01*
X135243734Y-59191390D02*
X135196115Y-59239009D01*
X135196115Y-59239009D02*
X135100877Y-59286628D01*
X135100877Y-59286628D02*
X134862782Y-59286628D01*
X134862782Y-59286628D02*
X134767544Y-59239009D01*
X134767544Y-59239009D02*
X134719925Y-59191390D01*
X134719925Y-59191390D02*
X134672306Y-59096152D01*
X134672306Y-59096152D02*
X134672306Y-58858057D01*
X134672306Y-58858057D02*
X134719925Y-58762819D01*
X134719925Y-58762819D02*
X134767544Y-58715200D01*
X134767544Y-58715200D02*
X134862782Y-58667580D01*
X134862782Y-58667580D02*
X135100877Y-58667580D01*
X135100877Y-58667580D02*
X135196115Y-58715200D01*
X135196115Y-58715200D02*
X135243734Y-58762819D01*
X134386591Y-59667580D02*
X134053258Y-58667580D01*
X134053258Y-58667580D02*
X133719925Y-59667580D01*
X135196115Y-56167580D02*
X135196115Y-57167580D01*
X135196115Y-57167580D02*
X134815163Y-57167580D01*
X134815163Y-57167580D02*
X134719925Y-57119961D01*
X134719925Y-57119961D02*
X134672306Y-57072342D01*
X134672306Y-57072342D02*
X134624687Y-56977104D01*
X134624687Y-56977104D02*
X134624687Y-56834247D01*
X134624687Y-56834247D02*
X134672306Y-56739009D01*
X134672306Y-56739009D02*
X134719925Y-56691390D01*
X134719925Y-56691390D02*
X134815163Y-56643771D01*
X134815163Y-56643771D02*
X135196115Y-56643771D01*
X134291353Y-57167580D02*
X134053258Y-56167580D01*
X134053258Y-56167580D02*
X133862782Y-56881866D01*
X133862782Y-56881866D02*
X133672306Y-56167580D01*
X133672306Y-56167580D02*
X133434211Y-57167580D01*
X133053258Y-56167580D02*
X133053258Y-57167580D01*
X133053258Y-57167580D02*
X132719925Y-56453295D01*
X132719925Y-56453295D02*
X132386592Y-57167580D01*
X132386592Y-57167580D02*
X132386592Y-56167580D01*
D11*
X109159580Y-89781666D02*
X109207200Y-89829285D01*
X109207200Y-89829285D02*
X109254819Y-89972142D01*
X109254819Y-89972142D02*
X109254819Y-90067380D01*
X109254819Y-90067380D02*
X109207200Y-90210237D01*
X109207200Y-90210237D02*
X109111961Y-90305475D01*
X109111961Y-90305475D02*
X109016723Y-90353094D01*
X109016723Y-90353094D02*
X108826247Y-90400713D01*
X108826247Y-90400713D02*
X108683390Y-90400713D01*
X108683390Y-90400713D02*
X108492914Y-90353094D01*
X108492914Y-90353094D02*
X108397676Y-90305475D01*
X108397676Y-90305475D02*
X108302438Y-90210237D01*
X108302438Y-90210237D02*
X108254819Y-90067380D01*
X108254819Y-90067380D02*
X108254819Y-89972142D01*
X108254819Y-89972142D02*
X108302438Y-89829285D01*
X108302438Y-89829285D02*
X108350057Y-89781666D01*
X109254819Y-88829285D02*
X109254819Y-89400713D01*
X109254819Y-89114999D02*
X108254819Y-89114999D01*
X108254819Y-89114999D02*
X108397676Y-89210237D01*
X108397676Y-89210237D02*
X108492914Y-89305475D01*
X108492914Y-89305475D02*
X108540533Y-89400713D01*
D10*
X150867217Y-90348609D02*
X150533884Y-90348609D01*
X150533884Y-90872419D02*
X150533884Y-89872419D01*
X150533884Y-89872419D02*
X151010074Y-89872419D01*
X151533884Y-90872419D02*
X151438646Y-90824800D01*
X151438646Y-90824800D02*
X151391027Y-90729561D01*
X151391027Y-90729561D02*
X151391027Y-89872419D01*
X152295789Y-90824800D02*
X152200551Y-90872419D01*
X152200551Y-90872419D02*
X152010075Y-90872419D01*
X152010075Y-90872419D02*
X151914837Y-90824800D01*
X151914837Y-90824800D02*
X151867218Y-90729561D01*
X151867218Y-90729561D02*
X151867218Y-90348609D01*
X151867218Y-90348609D02*
X151914837Y-90253371D01*
X151914837Y-90253371D02*
X152010075Y-90205752D01*
X152010075Y-90205752D02*
X152200551Y-90205752D01*
X152200551Y-90205752D02*
X152295789Y-90253371D01*
X152295789Y-90253371D02*
X152343408Y-90348609D01*
X152343408Y-90348609D02*
X152343408Y-90443847D01*
X152343408Y-90443847D02*
X151867218Y-90539085D01*
X152676742Y-90872419D02*
X153200551Y-90205752D01*
X152676742Y-90205752D02*
X153200551Y-90872419D01*
X153533885Y-90824800D02*
X153676742Y-90872419D01*
X153676742Y-90872419D02*
X153914837Y-90872419D01*
X153914837Y-90872419D02*
X154010075Y-90824800D01*
X154010075Y-90824800D02*
X154057694Y-90777180D01*
X154057694Y-90777180D02*
X154105313Y-90681942D01*
X154105313Y-90681942D02*
X154105313Y-90586704D01*
X154105313Y-90586704D02*
X154057694Y-90491466D01*
X154057694Y-90491466D02*
X154010075Y-90443847D01*
X154010075Y-90443847D02*
X153914837Y-90396228D01*
X153914837Y-90396228D02*
X153724361Y-90348609D01*
X153724361Y-90348609D02*
X153629123Y-90300990D01*
X153629123Y-90300990D02*
X153581504Y-90253371D01*
X153581504Y-90253371D02*
X153533885Y-90158133D01*
X153533885Y-90158133D02*
X153533885Y-90062895D01*
X153533885Y-90062895D02*
X153581504Y-89967657D01*
X153581504Y-89967657D02*
X153629123Y-89920038D01*
X153629123Y-89920038D02*
X153724361Y-89872419D01*
X153724361Y-89872419D02*
X153962456Y-89872419D01*
X153962456Y-89872419D02*
X154105313Y-89920038D01*
X154914837Y-90824800D02*
X154819599Y-90872419D01*
X154819599Y-90872419D02*
X154629123Y-90872419D01*
X154629123Y-90872419D02*
X154533885Y-90824800D01*
X154533885Y-90824800D02*
X154486266Y-90729561D01*
X154486266Y-90729561D02*
X154486266Y-90348609D01*
X154486266Y-90348609D02*
X154533885Y-90253371D01*
X154533885Y-90253371D02*
X154629123Y-90205752D01*
X154629123Y-90205752D02*
X154819599Y-90205752D01*
X154819599Y-90205752D02*
X154914837Y-90253371D01*
X154914837Y-90253371D02*
X154962456Y-90348609D01*
X154962456Y-90348609D02*
X154962456Y-90443847D01*
X154962456Y-90443847D02*
X154486266Y-90539085D01*
X155391028Y-90205752D02*
X155391028Y-90872419D01*
X155391028Y-90300990D02*
X155438647Y-90253371D01*
X155438647Y-90253371D02*
X155533885Y-90205752D01*
X155533885Y-90205752D02*
X155676742Y-90205752D01*
X155676742Y-90205752D02*
X155771980Y-90253371D01*
X155771980Y-90253371D02*
X155819599Y-90348609D01*
X155819599Y-90348609D02*
X155819599Y-90872419D01*
X156248171Y-90824800D02*
X156343409Y-90872419D01*
X156343409Y-90872419D02*
X156533885Y-90872419D01*
X156533885Y-90872419D02*
X156629123Y-90824800D01*
X156629123Y-90824800D02*
X156676742Y-90729561D01*
X156676742Y-90729561D02*
X156676742Y-90681942D01*
X156676742Y-90681942D02*
X156629123Y-90586704D01*
X156629123Y-90586704D02*
X156533885Y-90539085D01*
X156533885Y-90539085D02*
X156391028Y-90539085D01*
X156391028Y-90539085D02*
X156295790Y-90491466D01*
X156295790Y-90491466D02*
X156248171Y-90396228D01*
X156248171Y-90396228D02*
X156248171Y-90348609D01*
X156248171Y-90348609D02*
X156295790Y-90253371D01*
X156295790Y-90253371D02*
X156391028Y-90205752D01*
X156391028Y-90205752D02*
X156533885Y-90205752D01*
X156533885Y-90205752D02*
X156629123Y-90253371D01*
X157248171Y-90872419D02*
X157152933Y-90824800D01*
X157152933Y-90824800D02*
X157105314Y-90777180D01*
X157105314Y-90777180D02*
X157057695Y-90681942D01*
X157057695Y-90681942D02*
X157057695Y-90396228D01*
X157057695Y-90396228D02*
X157105314Y-90300990D01*
X157105314Y-90300990D02*
X157152933Y-90253371D01*
X157152933Y-90253371D02*
X157248171Y-90205752D01*
X157248171Y-90205752D02*
X157391028Y-90205752D01*
X157391028Y-90205752D02*
X157486266Y-90253371D01*
X157486266Y-90253371D02*
X157533885Y-90300990D01*
X157533885Y-90300990D02*
X157581504Y-90396228D01*
X157581504Y-90396228D02*
X157581504Y-90681942D01*
X157581504Y-90681942D02*
X157533885Y-90777180D01*
X157533885Y-90777180D02*
X157486266Y-90824800D01*
X157486266Y-90824800D02*
X157391028Y-90872419D01*
X157391028Y-90872419D02*
X157248171Y-90872419D01*
X158010076Y-90872419D02*
X158010076Y-90205752D01*
X158010076Y-90396228D02*
X158057695Y-90300990D01*
X158057695Y-90300990D02*
X158105314Y-90253371D01*
X158105314Y-90253371D02*
X158200552Y-90205752D01*
X158200552Y-90205752D02*
X158295790Y-90205752D01*
X155102419Y-95338972D02*
X156102419Y-95005639D01*
X156102419Y-95005639D02*
X155102419Y-94672306D01*
X155721466Y-94338972D02*
X155721466Y-93577068D01*
X152102419Y-95338972D02*
X153102419Y-95005639D01*
X153102419Y-95005639D02*
X152102419Y-94672306D01*
X152721466Y-94338972D02*
X152721466Y-93577068D01*
X153102419Y-93958020D02*
X152340514Y-93958020D01*
X98457419Y-84823258D02*
X98433609Y-84870877D01*
X98433609Y-84870877D02*
X98433609Y-84942306D01*
X98433609Y-84942306D02*
X98457419Y-85013734D01*
X98457419Y-85013734D02*
X98505038Y-85061353D01*
X98505038Y-85061353D02*
X98552657Y-85085163D01*
X98552657Y-85085163D02*
X98647895Y-85108972D01*
X98647895Y-85108972D02*
X98719323Y-85108972D01*
X98719323Y-85108972D02*
X98814561Y-85085163D01*
X98814561Y-85085163D02*
X98862180Y-85061353D01*
X98862180Y-85061353D02*
X98909800Y-85013734D01*
X98909800Y-85013734D02*
X98933609Y-84942306D01*
X98933609Y-84942306D02*
X98933609Y-84894687D01*
X98933609Y-84894687D02*
X98909800Y-84823258D01*
X98909800Y-84823258D02*
X98885990Y-84799449D01*
X98885990Y-84799449D02*
X98719323Y-84799449D01*
X98719323Y-84799449D02*
X98719323Y-84894687D01*
X98933609Y-84585163D02*
X98600276Y-84585163D01*
X98695514Y-84585163D02*
X98647895Y-84561353D01*
X98647895Y-84561353D02*
X98624085Y-84537544D01*
X98624085Y-84537544D02*
X98600276Y-84489925D01*
X98600276Y-84489925D02*
X98600276Y-84442306D01*
X98933609Y-84061353D02*
X98671704Y-84061353D01*
X98671704Y-84061353D02*
X98624085Y-84085163D01*
X98624085Y-84085163D02*
X98600276Y-84132782D01*
X98600276Y-84132782D02*
X98600276Y-84228020D01*
X98600276Y-84228020D02*
X98624085Y-84275639D01*
X98909800Y-84061353D02*
X98933609Y-84108972D01*
X98933609Y-84108972D02*
X98933609Y-84228020D01*
X98933609Y-84228020D02*
X98909800Y-84275639D01*
X98909800Y-84275639D02*
X98862180Y-84299448D01*
X98862180Y-84299448D02*
X98814561Y-84299448D01*
X98814561Y-84299448D02*
X98766942Y-84275639D01*
X98766942Y-84275639D02*
X98743133Y-84228020D01*
X98743133Y-84228020D02*
X98743133Y-84108972D01*
X98743133Y-84108972D02*
X98719323Y-84061353D01*
X98600276Y-83823258D02*
X99100276Y-83823258D01*
X98624085Y-83823258D02*
X98600276Y-83775639D01*
X98600276Y-83775639D02*
X98600276Y-83680401D01*
X98600276Y-83680401D02*
X98624085Y-83632782D01*
X98624085Y-83632782D02*
X98647895Y-83608972D01*
X98647895Y-83608972D02*
X98695514Y-83585163D01*
X98695514Y-83585163D02*
X98838371Y-83585163D01*
X98838371Y-83585163D02*
X98885990Y-83608972D01*
X98885990Y-83608972D02*
X98909800Y-83632782D01*
X98909800Y-83632782D02*
X98933609Y-83680401D01*
X98933609Y-83680401D02*
X98933609Y-83775639D01*
X98933609Y-83775639D02*
X98909800Y-83823258D01*
X98933609Y-83370877D02*
X98433609Y-83370877D01*
X98933609Y-83156591D02*
X98671704Y-83156591D01*
X98671704Y-83156591D02*
X98624085Y-83180401D01*
X98624085Y-83180401D02*
X98600276Y-83228020D01*
X98600276Y-83228020D02*
X98600276Y-83299448D01*
X98600276Y-83299448D02*
X98624085Y-83347067D01*
X98624085Y-83347067D02*
X98647895Y-83370877D01*
X98933609Y-82918496D02*
X98600276Y-82918496D01*
X98433609Y-82918496D02*
X98457419Y-82942305D01*
X98457419Y-82942305D02*
X98481228Y-82918496D01*
X98481228Y-82918496D02*
X98457419Y-82894686D01*
X98457419Y-82894686D02*
X98433609Y-82918496D01*
X98433609Y-82918496D02*
X98481228Y-82918496D01*
X98600276Y-82751829D02*
X98600276Y-82561353D01*
X98433609Y-82680401D02*
X98862180Y-82680401D01*
X98862180Y-82680401D02*
X98909800Y-82656591D01*
X98909800Y-82656591D02*
X98933609Y-82608972D01*
X98933609Y-82608972D02*
X98933609Y-82561353D01*
X98909800Y-82204211D02*
X98933609Y-82251830D01*
X98933609Y-82251830D02*
X98933609Y-82347068D01*
X98933609Y-82347068D02*
X98909800Y-82394687D01*
X98909800Y-82394687D02*
X98862180Y-82418496D01*
X98862180Y-82418496D02*
X98671704Y-82418496D01*
X98671704Y-82418496D02*
X98624085Y-82394687D01*
X98624085Y-82394687D02*
X98600276Y-82347068D01*
X98600276Y-82347068D02*
X98600276Y-82251830D01*
X98600276Y-82251830D02*
X98624085Y-82204211D01*
X98624085Y-82204211D02*
X98671704Y-82180401D01*
X98671704Y-82180401D02*
X98719323Y-82180401D01*
X98719323Y-82180401D02*
X98766942Y-82418496D01*
X98909800Y-81989925D02*
X98933609Y-81918497D01*
X98933609Y-81918497D02*
X98933609Y-81799449D01*
X98933609Y-81799449D02*
X98909800Y-81751830D01*
X98909800Y-81751830D02*
X98885990Y-81728021D01*
X98885990Y-81728021D02*
X98838371Y-81704211D01*
X98838371Y-81704211D02*
X98790752Y-81704211D01*
X98790752Y-81704211D02*
X98743133Y-81728021D01*
X98743133Y-81728021D02*
X98719323Y-81751830D01*
X98719323Y-81751830D02*
X98695514Y-81799449D01*
X98695514Y-81799449D02*
X98671704Y-81894687D01*
X98671704Y-81894687D02*
X98647895Y-81942306D01*
X98647895Y-81942306D02*
X98624085Y-81966116D01*
X98624085Y-81966116D02*
X98576466Y-81989925D01*
X98576466Y-81989925D02*
X98528847Y-81989925D01*
X98528847Y-81989925D02*
X98481228Y-81966116D01*
X98481228Y-81966116D02*
X98457419Y-81942306D01*
X98457419Y-81942306D02*
X98433609Y-81894687D01*
X98433609Y-81894687D02*
X98433609Y-81775640D01*
X98433609Y-81775640D02*
X98457419Y-81704211D01*
X98909800Y-81299450D02*
X98933609Y-81347069D01*
X98933609Y-81347069D02*
X98933609Y-81442307D01*
X98933609Y-81442307D02*
X98909800Y-81489926D01*
X98909800Y-81489926D02*
X98862180Y-81513735D01*
X98862180Y-81513735D02*
X98671704Y-81513735D01*
X98671704Y-81513735D02*
X98624085Y-81489926D01*
X98624085Y-81489926D02*
X98600276Y-81442307D01*
X98600276Y-81442307D02*
X98600276Y-81347069D01*
X98600276Y-81347069D02*
X98624085Y-81299450D01*
X98624085Y-81299450D02*
X98671704Y-81275640D01*
X98671704Y-81275640D02*
X98719323Y-81275640D01*
X98719323Y-81275640D02*
X98766942Y-81513735D01*
X98600276Y-81061355D02*
X98933609Y-81061355D01*
X98647895Y-81061355D02*
X98624085Y-81037545D01*
X98624085Y-81037545D02*
X98600276Y-80989926D01*
X98600276Y-80989926D02*
X98600276Y-80918498D01*
X98600276Y-80918498D02*
X98624085Y-80870879D01*
X98624085Y-80870879D02*
X98671704Y-80847069D01*
X98671704Y-80847069D02*
X98933609Y-80847069D01*
X98909800Y-80632783D02*
X98933609Y-80585164D01*
X98933609Y-80585164D02*
X98933609Y-80489926D01*
X98933609Y-80489926D02*
X98909800Y-80442307D01*
X98909800Y-80442307D02*
X98862180Y-80418498D01*
X98862180Y-80418498D02*
X98838371Y-80418498D01*
X98838371Y-80418498D02*
X98790752Y-80442307D01*
X98790752Y-80442307D02*
X98766942Y-80489926D01*
X98766942Y-80489926D02*
X98766942Y-80561355D01*
X98766942Y-80561355D02*
X98743133Y-80608974D01*
X98743133Y-80608974D02*
X98695514Y-80632783D01*
X98695514Y-80632783D02*
X98671704Y-80632783D01*
X98671704Y-80632783D02*
X98624085Y-80608974D01*
X98624085Y-80608974D02*
X98600276Y-80561355D01*
X98600276Y-80561355D02*
X98600276Y-80489926D01*
X98600276Y-80489926D02*
X98624085Y-80442307D01*
X98933609Y-80132783D02*
X98909800Y-80180402D01*
X98909800Y-80180402D02*
X98885990Y-80204212D01*
X98885990Y-80204212D02*
X98838371Y-80228021D01*
X98838371Y-80228021D02*
X98695514Y-80228021D01*
X98695514Y-80228021D02*
X98647895Y-80204212D01*
X98647895Y-80204212D02*
X98624085Y-80180402D01*
X98624085Y-80180402D02*
X98600276Y-80132783D01*
X98600276Y-80132783D02*
X98600276Y-80061355D01*
X98600276Y-80061355D02*
X98624085Y-80013736D01*
X98624085Y-80013736D02*
X98647895Y-79989926D01*
X98647895Y-79989926D02*
X98695514Y-79966117D01*
X98695514Y-79966117D02*
X98838371Y-79966117D01*
X98838371Y-79966117D02*
X98885990Y-79989926D01*
X98885990Y-79989926D02*
X98909800Y-80013736D01*
X98909800Y-80013736D02*
X98933609Y-80061355D01*
X98933609Y-80061355D02*
X98933609Y-80132783D01*
X98933609Y-79751831D02*
X98600276Y-79751831D01*
X98695514Y-79751831D02*
X98647895Y-79728021D01*
X98647895Y-79728021D02*
X98624085Y-79704212D01*
X98624085Y-79704212D02*
X98600276Y-79656593D01*
X98600276Y-79656593D02*
X98600276Y-79608974D01*
X101838972Y-84897580D02*
X101505639Y-83897580D01*
X101505639Y-83897580D02*
X101172306Y-84897580D01*
X100838972Y-84278533D02*
X100077068Y-84278533D01*
X101838972Y-81897580D02*
X101505639Y-80897580D01*
X101505639Y-80897580D02*
X101172306Y-81897580D01*
X100838972Y-81278533D02*
X100077068Y-81278533D01*
X100458020Y-80897580D02*
X100458020Y-81659485D01*
D11*
X179954819Y-82261904D02*
X180764342Y-82261904D01*
X180764342Y-82261904D02*
X180859580Y-82214285D01*
X180859580Y-82214285D02*
X180907200Y-82166666D01*
X180907200Y-82166666D02*
X180954819Y-82071428D01*
X180954819Y-82071428D02*
X180954819Y-81880952D01*
X180954819Y-81880952D02*
X180907200Y-81785714D01*
X180907200Y-81785714D02*
X180859580Y-81738095D01*
X180859580Y-81738095D02*
X180764342Y-81690476D01*
X180764342Y-81690476D02*
X179954819Y-81690476D01*
X179954819Y-80738095D02*
X179954819Y-81214285D01*
X179954819Y-81214285D02*
X180431009Y-81261904D01*
X180431009Y-81261904D02*
X180383390Y-81214285D01*
X180383390Y-81214285D02*
X180335771Y-81119047D01*
X180335771Y-81119047D02*
X180335771Y-80880952D01*
X180335771Y-80880952D02*
X180383390Y-80785714D01*
X180383390Y-80785714D02*
X180431009Y-80738095D01*
X180431009Y-80738095D02*
X180526247Y-80690476D01*
X180526247Y-80690476D02*
X180764342Y-80690476D01*
X180764342Y-80690476D02*
X180859580Y-80738095D01*
X180859580Y-80738095D02*
X180907200Y-80785714D01*
X180907200Y-80785714D02*
X180954819Y-80880952D01*
X180954819Y-80880952D02*
X180954819Y-81119047D01*
X180954819Y-81119047D02*
X180907200Y-81214285D01*
X180907200Y-81214285D02*
X180859580Y-81261904D01*
D10*
X168243734Y-79675200D02*
X168100877Y-79627580D01*
X168100877Y-79627580D02*
X167862782Y-79627580D01*
X167862782Y-79627580D02*
X167767544Y-79675200D01*
X167767544Y-79675200D02*
X167719925Y-79722819D01*
X167719925Y-79722819D02*
X167672306Y-79818057D01*
X167672306Y-79818057D02*
X167672306Y-79913295D01*
X167672306Y-79913295D02*
X167719925Y-80008533D01*
X167719925Y-80008533D02*
X167767544Y-80056152D01*
X167767544Y-80056152D02*
X167862782Y-80103771D01*
X167862782Y-80103771D02*
X168053258Y-80151390D01*
X168053258Y-80151390D02*
X168148496Y-80199009D01*
X168148496Y-80199009D02*
X168196115Y-80246628D01*
X168196115Y-80246628D02*
X168243734Y-80341866D01*
X168243734Y-80341866D02*
X168243734Y-80437104D01*
X168243734Y-80437104D02*
X168196115Y-80532342D01*
X168196115Y-80532342D02*
X168148496Y-80579961D01*
X168148496Y-80579961D02*
X168053258Y-80627580D01*
X168053258Y-80627580D02*
X167815163Y-80627580D01*
X167815163Y-80627580D02*
X167672306Y-80579961D01*
X166672306Y-79722819D02*
X166719925Y-79675200D01*
X166719925Y-79675200D02*
X166862782Y-79627580D01*
X166862782Y-79627580D02*
X166958020Y-79627580D01*
X166958020Y-79627580D02*
X167100877Y-79675200D01*
X167100877Y-79675200D02*
X167196115Y-79770438D01*
X167196115Y-79770438D02*
X167243734Y-79865676D01*
X167243734Y-79865676D02*
X167291353Y-80056152D01*
X167291353Y-80056152D02*
X167291353Y-80199009D01*
X167291353Y-80199009D02*
X167243734Y-80389485D01*
X167243734Y-80389485D02*
X167196115Y-80484723D01*
X167196115Y-80484723D02*
X167100877Y-80579961D01*
X167100877Y-80579961D02*
X166958020Y-80627580D01*
X166958020Y-80627580D02*
X166862782Y-80627580D01*
X166862782Y-80627580D02*
X166719925Y-80579961D01*
X166719925Y-80579961D02*
X166672306Y-80532342D01*
X165767544Y-79627580D02*
X166243734Y-79627580D01*
X166243734Y-79627580D02*
X166243734Y-80627580D01*
X168338972Y-83127580D02*
X168005639Y-82127580D01*
X168005639Y-82127580D02*
X167672306Y-83127580D01*
X166767544Y-82222819D02*
X166815163Y-82175200D01*
X166815163Y-82175200D02*
X166958020Y-82127580D01*
X166958020Y-82127580D02*
X167053258Y-82127580D01*
X167053258Y-82127580D02*
X167196115Y-82175200D01*
X167196115Y-82175200D02*
X167291353Y-82270438D01*
X167291353Y-82270438D02*
X167338972Y-82365676D01*
X167338972Y-82365676D02*
X167386591Y-82556152D01*
X167386591Y-82556152D02*
X167386591Y-82699009D01*
X167386591Y-82699009D02*
X167338972Y-82889485D01*
X167338972Y-82889485D02*
X167291353Y-82984723D01*
X167291353Y-82984723D02*
X167196115Y-83079961D01*
X167196115Y-83079961D02*
X167053258Y-83127580D01*
X167053258Y-83127580D02*
X166958020Y-83127580D01*
X166958020Y-83127580D02*
X166815163Y-83079961D01*
X166815163Y-83079961D02*
X166767544Y-83032342D01*
X165767544Y-82222819D02*
X165815163Y-82175200D01*
X165815163Y-82175200D02*
X165958020Y-82127580D01*
X165958020Y-82127580D02*
X166053258Y-82127580D01*
X166053258Y-82127580D02*
X166196115Y-82175200D01*
X166196115Y-82175200D02*
X166291353Y-82270438D01*
X166291353Y-82270438D02*
X166338972Y-82365676D01*
X166338972Y-82365676D02*
X166386591Y-82556152D01*
X166386591Y-82556152D02*
X166386591Y-82699009D01*
X166386591Y-82699009D02*
X166338972Y-82889485D01*
X166338972Y-82889485D02*
X166291353Y-82984723D01*
X166291353Y-82984723D02*
X166196115Y-83079961D01*
X166196115Y-83079961D02*
X166053258Y-83127580D01*
X166053258Y-83127580D02*
X165958020Y-83127580D01*
X165958020Y-83127580D02*
X165815163Y-83079961D01*
X165815163Y-83079961D02*
X165767544Y-83032342D01*
X167672306Y-86079961D02*
X167767544Y-86127580D01*
X167767544Y-86127580D02*
X167910401Y-86127580D01*
X167910401Y-86127580D02*
X168053258Y-86079961D01*
X168053258Y-86079961D02*
X168148496Y-85984723D01*
X168148496Y-85984723D02*
X168196115Y-85889485D01*
X168196115Y-85889485D02*
X168243734Y-85699009D01*
X168243734Y-85699009D02*
X168243734Y-85556152D01*
X168243734Y-85556152D02*
X168196115Y-85365676D01*
X168196115Y-85365676D02*
X168148496Y-85270438D01*
X168148496Y-85270438D02*
X168053258Y-85175200D01*
X168053258Y-85175200D02*
X167910401Y-85127580D01*
X167910401Y-85127580D02*
X167815163Y-85127580D01*
X167815163Y-85127580D02*
X167672306Y-85175200D01*
X167672306Y-85175200D02*
X167624687Y-85222819D01*
X167624687Y-85222819D02*
X167624687Y-85556152D01*
X167624687Y-85556152D02*
X167815163Y-85556152D01*
X167196115Y-85127580D02*
X167196115Y-86127580D01*
X167196115Y-86127580D02*
X166624687Y-85127580D01*
X166624687Y-85127580D02*
X166624687Y-86127580D01*
X166148496Y-85127580D02*
X166148496Y-86127580D01*
X166148496Y-86127580D02*
X165910401Y-86127580D01*
X165910401Y-86127580D02*
X165767544Y-86079961D01*
X165767544Y-86079961D02*
X165672306Y-85984723D01*
X165672306Y-85984723D02*
X165624687Y-85889485D01*
X165624687Y-85889485D02*
X165577068Y-85699009D01*
X165577068Y-85699009D02*
X165577068Y-85556152D01*
X165577068Y-85556152D02*
X165624687Y-85365676D01*
X165624687Y-85365676D02*
X165672306Y-85270438D01*
X165672306Y-85270438D02*
X165767544Y-85175200D01*
X165767544Y-85175200D02*
X165910401Y-85127580D01*
X165910401Y-85127580D02*
X166148496Y-85127580D01*
X184872419Y-82952380D02*
X184872419Y-82761904D01*
X184872419Y-82761904D02*
X184920038Y-82666666D01*
X184920038Y-82666666D02*
X185015276Y-82571428D01*
X185015276Y-82571428D02*
X185205752Y-82523809D01*
X185205752Y-82523809D02*
X185539085Y-82523809D01*
X185539085Y-82523809D02*
X185729561Y-82571428D01*
X185729561Y-82571428D02*
X185824800Y-82666666D01*
X185824800Y-82666666D02*
X185872419Y-82761904D01*
X185872419Y-82761904D02*
X185872419Y-82952380D01*
X185872419Y-82952380D02*
X185824800Y-83047618D01*
X185824800Y-83047618D02*
X185729561Y-83142856D01*
X185729561Y-83142856D02*
X185539085Y-83190475D01*
X185539085Y-83190475D02*
X185205752Y-83190475D01*
X185205752Y-83190475D02*
X185015276Y-83142856D01*
X185015276Y-83142856D02*
X184920038Y-83047618D01*
X184920038Y-83047618D02*
X184872419Y-82952380D01*
X185872419Y-81619047D02*
X185872419Y-82095237D01*
X185872419Y-82095237D02*
X184872419Y-82095237D01*
X185348609Y-81285713D02*
X185348609Y-80952380D01*
X185872419Y-80809523D02*
X185872419Y-81285713D01*
X185872419Y-81285713D02*
X184872419Y-81285713D01*
X184872419Y-81285713D02*
X184872419Y-80809523D01*
X185872419Y-80380951D02*
X184872419Y-80380951D01*
X184872419Y-80380951D02*
X184872419Y-80142856D01*
X184872419Y-80142856D02*
X184920038Y-79999999D01*
X184920038Y-79999999D02*
X185015276Y-79904761D01*
X185015276Y-79904761D02*
X185110514Y-79857142D01*
X185110514Y-79857142D02*
X185300990Y-79809523D01*
X185300990Y-79809523D02*
X185443847Y-79809523D01*
X185443847Y-79809523D02*
X185634323Y-79857142D01*
X185634323Y-79857142D02*
X185729561Y-79904761D01*
X185729561Y-79904761D02*
X185824800Y-79999999D01*
X185824800Y-79999999D02*
X185872419Y-80142856D01*
X185872419Y-80142856D02*
X185872419Y-80380951D01*
X168243734Y-77175200D02*
X168100877Y-77127580D01*
X168100877Y-77127580D02*
X167862782Y-77127580D01*
X167862782Y-77127580D02*
X167767544Y-77175200D01*
X167767544Y-77175200D02*
X167719925Y-77222819D01*
X167719925Y-77222819D02*
X167672306Y-77318057D01*
X167672306Y-77318057D02*
X167672306Y-77413295D01*
X167672306Y-77413295D02*
X167719925Y-77508533D01*
X167719925Y-77508533D02*
X167767544Y-77556152D01*
X167767544Y-77556152D02*
X167862782Y-77603771D01*
X167862782Y-77603771D02*
X168053258Y-77651390D01*
X168053258Y-77651390D02*
X168148496Y-77699009D01*
X168148496Y-77699009D02*
X168196115Y-77746628D01*
X168196115Y-77746628D02*
X168243734Y-77841866D01*
X168243734Y-77841866D02*
X168243734Y-77937104D01*
X168243734Y-77937104D02*
X168196115Y-78032342D01*
X168196115Y-78032342D02*
X168148496Y-78079961D01*
X168148496Y-78079961D02*
X168053258Y-78127580D01*
X168053258Y-78127580D02*
X167815163Y-78127580D01*
X167815163Y-78127580D02*
X167672306Y-78079961D01*
X167243734Y-77127580D02*
X167243734Y-78127580D01*
X167243734Y-78127580D02*
X167005639Y-78127580D01*
X167005639Y-78127580D02*
X166862782Y-78079961D01*
X166862782Y-78079961D02*
X166767544Y-77984723D01*
X166767544Y-77984723D02*
X166719925Y-77889485D01*
X166719925Y-77889485D02*
X166672306Y-77699009D01*
X166672306Y-77699009D02*
X166672306Y-77556152D01*
X166672306Y-77556152D02*
X166719925Y-77365676D01*
X166719925Y-77365676D02*
X166767544Y-77270438D01*
X166767544Y-77270438D02*
X166862782Y-77175200D01*
X166862782Y-77175200D02*
X167005639Y-77127580D01*
X167005639Y-77127580D02*
X167243734Y-77127580D01*
X166291353Y-77413295D02*
X165815163Y-77413295D01*
X166386591Y-77127580D02*
X166053258Y-78127580D01*
X166053258Y-78127580D02*
X165719925Y-77127580D01*
D12*
X143893482Y-60914838D02*
X143798244Y-60867219D01*
X143798244Y-60867219D02*
X143655387Y-60867219D01*
X143655387Y-60867219D02*
X143512530Y-60914838D01*
X143512530Y-60914838D02*
X143417292Y-61010076D01*
X143417292Y-61010076D02*
X143369673Y-61105314D01*
X143369673Y-61105314D02*
X143322054Y-61295790D01*
X143322054Y-61295790D02*
X143322054Y-61438647D01*
X143322054Y-61438647D02*
X143369673Y-61629123D01*
X143369673Y-61629123D02*
X143417292Y-61724361D01*
X143417292Y-61724361D02*
X143512530Y-61819600D01*
X143512530Y-61819600D02*
X143655387Y-61867219D01*
X143655387Y-61867219D02*
X143750625Y-61867219D01*
X143750625Y-61867219D02*
X143893482Y-61819600D01*
X143893482Y-61819600D02*
X143941101Y-61771980D01*
X143941101Y-61771980D02*
X143941101Y-61438647D01*
X143941101Y-61438647D02*
X143750625Y-61438647D01*
X144369673Y-61867219D02*
X144369673Y-60867219D01*
X144369673Y-60867219D02*
X144941101Y-61867219D01*
X144941101Y-61867219D02*
X144941101Y-60867219D01*
X145417292Y-61867219D02*
X145417292Y-60867219D01*
X145417292Y-60867219D02*
X145655387Y-60867219D01*
X145655387Y-60867219D02*
X145798244Y-60914838D01*
X145798244Y-60914838D02*
X145893482Y-61010076D01*
X145893482Y-61010076D02*
X145941101Y-61105314D01*
X145941101Y-61105314D02*
X145988720Y-61295790D01*
X145988720Y-61295790D02*
X145988720Y-61438647D01*
X145988720Y-61438647D02*
X145941101Y-61629123D01*
X145941101Y-61629123D02*
X145893482Y-61724361D01*
X145893482Y-61724361D02*
X145798244Y-61819600D01*
X145798244Y-61819600D02*
X145655387Y-61867219D01*
X145655387Y-61867219D02*
X145417292Y-61867219D01*
X151656590Y-59203006D02*
X151608971Y-59345863D01*
X151608971Y-59345863D02*
X151561352Y-59393482D01*
X151561352Y-59393482D02*
X151466114Y-59441101D01*
X151466114Y-59441101D02*
X151323257Y-59441101D01*
X151323257Y-59441101D02*
X151228019Y-59393482D01*
X151228019Y-59393482D02*
X151180400Y-59345863D01*
X151180400Y-59345863D02*
X151132780Y-59250625D01*
X151132780Y-59250625D02*
X151132780Y-58869673D01*
X151132780Y-58869673D02*
X152132780Y-58869673D01*
X152132780Y-58869673D02*
X152132780Y-59203006D01*
X152132780Y-59203006D02*
X152085161Y-59298244D01*
X152085161Y-59298244D02*
X152037542Y-59345863D01*
X152037542Y-59345863D02*
X151942304Y-59393482D01*
X151942304Y-59393482D02*
X151847066Y-59393482D01*
X151847066Y-59393482D02*
X151751828Y-59345863D01*
X151751828Y-59345863D02*
X151704209Y-59298244D01*
X151704209Y-59298244D02*
X151656590Y-59203006D01*
X151656590Y-59203006D02*
X151656590Y-58869673D01*
X151132780Y-60345863D02*
X151132780Y-59869673D01*
X151132780Y-59869673D02*
X152132780Y-59869673D01*
X152132780Y-60679197D02*
X151323257Y-60679197D01*
X151323257Y-60679197D02*
X151228019Y-60726816D01*
X151228019Y-60726816D02*
X151180400Y-60774435D01*
X151180400Y-60774435D02*
X151132780Y-60869673D01*
X151132780Y-60869673D02*
X151132780Y-61060149D01*
X151132780Y-61060149D02*
X151180400Y-61155387D01*
X151180400Y-61155387D02*
X151228019Y-61203006D01*
X151228019Y-61203006D02*
X151323257Y-61250625D01*
X151323257Y-61250625D02*
X152132780Y-61250625D01*
X151656590Y-61726816D02*
X151656590Y-62060149D01*
X151132780Y-62203006D02*
X151132780Y-61726816D01*
X151132780Y-61726816D02*
X152132780Y-61726816D01*
X152132780Y-61726816D02*
X152132780Y-62203006D01*
X152132780Y-62488721D02*
X152132780Y-63060149D01*
X151132780Y-62774435D02*
X152132780Y-62774435D01*
X152132780Y-63583959D02*
X152132780Y-63774435D01*
X152132780Y-63774435D02*
X152085161Y-63869673D01*
X152085161Y-63869673D02*
X151989923Y-63964911D01*
X151989923Y-63964911D02*
X151799447Y-64012530D01*
X151799447Y-64012530D02*
X151466114Y-64012530D01*
X151466114Y-64012530D02*
X151275638Y-63964911D01*
X151275638Y-63964911D02*
X151180400Y-63869673D01*
X151180400Y-63869673D02*
X151132780Y-63774435D01*
X151132780Y-63774435D02*
X151132780Y-63583959D01*
X151132780Y-63583959D02*
X151180400Y-63488721D01*
X151180400Y-63488721D02*
X151275638Y-63393483D01*
X151275638Y-63393483D02*
X151466114Y-63345864D01*
X151466114Y-63345864D02*
X151799447Y-63345864D01*
X151799447Y-63345864D02*
X151989923Y-63393483D01*
X151989923Y-63393483D02*
X152085161Y-63488721D01*
X152085161Y-63488721D02*
X152132780Y-63583959D01*
X152132780Y-64631578D02*
X152132780Y-64822054D01*
X152132780Y-64822054D02*
X152085161Y-64917292D01*
X152085161Y-64917292D02*
X151989923Y-65012530D01*
X151989923Y-65012530D02*
X151799447Y-65060149D01*
X151799447Y-65060149D02*
X151466114Y-65060149D01*
X151466114Y-65060149D02*
X151275638Y-65012530D01*
X151275638Y-65012530D02*
X151180400Y-64917292D01*
X151180400Y-64917292D02*
X151132780Y-64822054D01*
X151132780Y-64822054D02*
X151132780Y-64631578D01*
X151132780Y-64631578D02*
X151180400Y-64536340D01*
X151180400Y-64536340D02*
X151275638Y-64441102D01*
X151275638Y-64441102D02*
X151466114Y-64393483D01*
X151466114Y-64393483D02*
X151799447Y-64393483D01*
X151799447Y-64393483D02*
X151989923Y-64441102D01*
X151989923Y-64441102D02*
X152085161Y-64536340D01*
X152085161Y-64536340D02*
X152132780Y-64631578D01*
X152132780Y-65345864D02*
X152132780Y-65917292D01*
X151132780Y-65631578D02*
X152132780Y-65631578D01*
X151132780Y-66250626D02*
X152132780Y-66250626D01*
X151656590Y-66250626D02*
X151656590Y-66822054D01*
X151132780Y-66822054D02*
X152132780Y-66822054D01*
X143226816Y-58367219D02*
X143560149Y-59367219D01*
X143560149Y-59367219D02*
X143893482Y-58367219D01*
X144798244Y-59271980D02*
X144750625Y-59319600D01*
X144750625Y-59319600D02*
X144607768Y-59367219D01*
X144607768Y-59367219D02*
X144512530Y-59367219D01*
X144512530Y-59367219D02*
X144369673Y-59319600D01*
X144369673Y-59319600D02*
X144274435Y-59224361D01*
X144274435Y-59224361D02*
X144226816Y-59129123D01*
X144226816Y-59129123D02*
X144179197Y-58938647D01*
X144179197Y-58938647D02*
X144179197Y-58795790D01*
X144179197Y-58795790D02*
X144226816Y-58605314D01*
X144226816Y-58605314D02*
X144274435Y-58510076D01*
X144274435Y-58510076D02*
X144369673Y-58414838D01*
X144369673Y-58414838D02*
X144512530Y-58367219D01*
X144512530Y-58367219D02*
X144607768Y-58367219D01*
X144607768Y-58367219D02*
X144750625Y-58414838D01*
X144750625Y-58414838D02*
X144798244Y-58462457D01*
X145798244Y-59271980D02*
X145750625Y-59319600D01*
X145750625Y-59319600D02*
X145607768Y-59367219D01*
X145607768Y-59367219D02*
X145512530Y-59367219D01*
X145512530Y-59367219D02*
X145369673Y-59319600D01*
X145369673Y-59319600D02*
X145274435Y-59224361D01*
X145274435Y-59224361D02*
X145226816Y-59129123D01*
X145226816Y-59129123D02*
X145179197Y-58938647D01*
X145179197Y-58938647D02*
X145179197Y-58795790D01*
X145179197Y-58795790D02*
X145226816Y-58605314D01*
X145226816Y-58605314D02*
X145274435Y-58510076D01*
X145274435Y-58510076D02*
X145369673Y-58414838D01*
X145369673Y-58414838D02*
X145512530Y-58367219D01*
X145512530Y-58367219D02*
X145607768Y-58367219D01*
X145607768Y-58367219D02*
X145750625Y-58414838D01*
X145750625Y-58414838D02*
X145798244Y-58462457D01*
X141822054Y-69319600D02*
X141964911Y-69367219D01*
X141964911Y-69367219D02*
X142203006Y-69367219D01*
X142203006Y-69367219D02*
X142298244Y-69319600D01*
X142298244Y-69319600D02*
X142345863Y-69271980D01*
X142345863Y-69271980D02*
X142393482Y-69176742D01*
X142393482Y-69176742D02*
X142393482Y-69081504D01*
X142393482Y-69081504D02*
X142345863Y-68986266D01*
X142345863Y-68986266D02*
X142298244Y-68938647D01*
X142298244Y-68938647D02*
X142203006Y-68891028D01*
X142203006Y-68891028D02*
X142012530Y-68843409D01*
X142012530Y-68843409D02*
X141917292Y-68795790D01*
X141917292Y-68795790D02*
X141869673Y-68748171D01*
X141869673Y-68748171D02*
X141822054Y-68652933D01*
X141822054Y-68652933D02*
X141822054Y-68557695D01*
X141822054Y-68557695D02*
X141869673Y-68462457D01*
X141869673Y-68462457D02*
X141917292Y-68414838D01*
X141917292Y-68414838D02*
X142012530Y-68367219D01*
X142012530Y-68367219D02*
X142250625Y-68367219D01*
X142250625Y-68367219D02*
X142393482Y-68414838D01*
X142679197Y-68367219D02*
X143250625Y-68367219D01*
X142964911Y-69367219D02*
X142964911Y-68367219D01*
X143536340Y-69081504D02*
X144012530Y-69081504D01*
X143441102Y-69367219D02*
X143774435Y-68367219D01*
X143774435Y-68367219D02*
X144107768Y-69367219D01*
X144298245Y-68367219D02*
X144869673Y-68367219D01*
X144583959Y-69367219D02*
X144583959Y-68367219D01*
X145203007Y-68843409D02*
X145536340Y-68843409D01*
X145679197Y-69367219D02*
X145203007Y-69367219D01*
X145203007Y-69367219D02*
X145203007Y-68367219D01*
X145203007Y-68367219D02*
X145679197Y-68367219D01*
X143226816Y-63367219D02*
X143798244Y-63367219D01*
X143512530Y-64367219D02*
X143512530Y-63367219D01*
X144036340Y-63367219D02*
X144703006Y-64367219D01*
X144703006Y-63367219D02*
X144036340Y-64367219D01*
X145083959Y-64367219D02*
X145083959Y-63367219D01*
X145083959Y-63367219D02*
X145322054Y-63367219D01*
X145322054Y-63367219D02*
X145464911Y-63414838D01*
X145464911Y-63414838D02*
X145560149Y-63510076D01*
X145560149Y-63510076D02*
X145607768Y-63605314D01*
X145607768Y-63605314D02*
X145655387Y-63795790D01*
X145655387Y-63795790D02*
X145655387Y-63938647D01*
X145655387Y-63938647D02*
X145607768Y-64129123D01*
X145607768Y-64129123D02*
X145560149Y-64224361D01*
X145560149Y-64224361D02*
X145464911Y-64319600D01*
X145464911Y-64319600D02*
X145322054Y-64367219D01*
X145322054Y-64367219D02*
X145083959Y-64367219D01*
X143369673Y-56367219D02*
X143369673Y-55367219D01*
X143941101Y-56367219D02*
X143512530Y-55795790D01*
X143941101Y-55367219D02*
X143369673Y-55938647D01*
X144369673Y-55843409D02*
X144703006Y-55843409D01*
X144845863Y-56367219D02*
X144369673Y-56367219D01*
X144369673Y-56367219D02*
X144369673Y-55367219D01*
X144369673Y-55367219D02*
X144845863Y-55367219D01*
X145464911Y-55891028D02*
X145464911Y-56367219D01*
X145131578Y-55367219D02*
X145464911Y-55891028D01*
X145464911Y-55891028D02*
X145798244Y-55367219D01*
X143941101Y-66867219D02*
X143607768Y-66391028D01*
X143369673Y-66867219D02*
X143369673Y-65867219D01*
X143369673Y-65867219D02*
X143750625Y-65867219D01*
X143750625Y-65867219D02*
X143845863Y-65914838D01*
X143845863Y-65914838D02*
X143893482Y-65962457D01*
X143893482Y-65962457D02*
X143941101Y-66057695D01*
X143941101Y-66057695D02*
X143941101Y-66200552D01*
X143941101Y-66200552D02*
X143893482Y-66295790D01*
X143893482Y-66295790D02*
X143845863Y-66343409D01*
X143845863Y-66343409D02*
X143750625Y-66391028D01*
X143750625Y-66391028D02*
X143369673Y-66391028D01*
X144274435Y-65867219D02*
X144941101Y-66867219D01*
X144941101Y-65867219D02*
X144274435Y-66867219D01*
X145322054Y-66867219D02*
X145322054Y-65867219D01*
X145322054Y-65867219D02*
X145560149Y-65867219D01*
X145560149Y-65867219D02*
X145703006Y-65914838D01*
X145703006Y-65914838D02*
X145798244Y-66010076D01*
X145798244Y-66010076D02*
X145845863Y-66105314D01*
X145845863Y-66105314D02*
X145893482Y-66295790D01*
X145893482Y-66295790D02*
X145893482Y-66438647D01*
X145893482Y-66438647D02*
X145845863Y-66629123D01*
X145845863Y-66629123D02*
X145798244Y-66724361D01*
X145798244Y-66724361D02*
X145703006Y-66819600D01*
X145703006Y-66819600D02*
X145560149Y-66867219D01*
X145560149Y-66867219D02*
X145322054Y-66867219D01*
X154893482Y-68914838D02*
X154798244Y-68867219D01*
X154798244Y-68867219D02*
X154655387Y-68867219D01*
X154655387Y-68867219D02*
X154512530Y-68914838D01*
X154512530Y-68914838D02*
X154417292Y-69010076D01*
X154417292Y-69010076D02*
X154369673Y-69105314D01*
X154369673Y-69105314D02*
X154322054Y-69295790D01*
X154322054Y-69295790D02*
X154322054Y-69438647D01*
X154322054Y-69438647D02*
X154369673Y-69629123D01*
X154369673Y-69629123D02*
X154417292Y-69724361D01*
X154417292Y-69724361D02*
X154512530Y-69819600D01*
X154512530Y-69819600D02*
X154655387Y-69867219D01*
X154655387Y-69867219D02*
X154750625Y-69867219D01*
X154750625Y-69867219D02*
X154893482Y-69819600D01*
X154893482Y-69819600D02*
X154941101Y-69771980D01*
X154941101Y-69771980D02*
X154941101Y-69438647D01*
X154941101Y-69438647D02*
X154750625Y-69438647D01*
X155369673Y-69867219D02*
X155369673Y-68867219D01*
X155369673Y-68867219D02*
X155941101Y-69867219D01*
X155941101Y-69867219D02*
X155941101Y-68867219D01*
X156417292Y-69867219D02*
X156417292Y-68867219D01*
X156417292Y-68867219D02*
X156655387Y-68867219D01*
X156655387Y-68867219D02*
X156798244Y-68914838D01*
X156798244Y-68914838D02*
X156893482Y-69010076D01*
X156893482Y-69010076D02*
X156941101Y-69105314D01*
X156941101Y-69105314D02*
X156988720Y-69295790D01*
X156988720Y-69295790D02*
X156988720Y-69438647D01*
X156988720Y-69438647D02*
X156941101Y-69629123D01*
X156941101Y-69629123D02*
X156893482Y-69724361D01*
X156893482Y-69724361D02*
X156798244Y-69819600D01*
X156798244Y-69819600D02*
X156655387Y-69867219D01*
X156655387Y-69867219D02*
X156417292Y-69867219D01*
X155369673Y-60867219D02*
X155369673Y-59867219D01*
X155369673Y-59867219D02*
X155607768Y-59867219D01*
X155607768Y-59867219D02*
X155750625Y-59914838D01*
X155750625Y-59914838D02*
X155845863Y-60010076D01*
X155845863Y-60010076D02*
X155893482Y-60105314D01*
X155893482Y-60105314D02*
X155941101Y-60295790D01*
X155941101Y-60295790D02*
X155941101Y-60438647D01*
X155941101Y-60438647D02*
X155893482Y-60629123D01*
X155893482Y-60629123D02*
X155845863Y-60724361D01*
X155845863Y-60724361D02*
X155750625Y-60819600D01*
X155750625Y-60819600D02*
X155607768Y-60867219D01*
X155607768Y-60867219D02*
X155369673Y-60867219D01*
X156226816Y-59867219D02*
X156798244Y-59867219D01*
X156512530Y-60867219D02*
X156512530Y-59867219D01*
X155869673Y-66486266D02*
X156631578Y-66486266D01*
X156250625Y-66867219D02*
X156250625Y-66105314D01*
X154822054Y-63819600D02*
X154964911Y-63867219D01*
X154964911Y-63867219D02*
X155203006Y-63867219D01*
X155203006Y-63867219D02*
X155298244Y-63819600D01*
X155298244Y-63819600D02*
X155345863Y-63771980D01*
X155345863Y-63771980D02*
X155393482Y-63676742D01*
X155393482Y-63676742D02*
X155393482Y-63581504D01*
X155393482Y-63581504D02*
X155345863Y-63486266D01*
X155345863Y-63486266D02*
X155298244Y-63438647D01*
X155298244Y-63438647D02*
X155203006Y-63391028D01*
X155203006Y-63391028D02*
X155012530Y-63343409D01*
X155012530Y-63343409D02*
X154917292Y-63295790D01*
X154917292Y-63295790D02*
X154869673Y-63248171D01*
X154869673Y-63248171D02*
X154822054Y-63152933D01*
X154822054Y-63152933D02*
X154822054Y-63057695D01*
X154822054Y-63057695D02*
X154869673Y-62962457D01*
X154869673Y-62962457D02*
X154917292Y-62914838D01*
X154917292Y-62914838D02*
X155012530Y-62867219D01*
X155012530Y-62867219D02*
X155250625Y-62867219D01*
X155250625Y-62867219D02*
X155393482Y-62914838D01*
X155726816Y-62867219D02*
X155964911Y-63867219D01*
X155964911Y-63867219D02*
X156155387Y-63152933D01*
X156155387Y-63152933D02*
X156345863Y-63867219D01*
X156345863Y-63867219D02*
X156583959Y-62867219D01*
X154941101Y-57271980D02*
X154893482Y-57319600D01*
X154893482Y-57319600D02*
X154750625Y-57367219D01*
X154750625Y-57367219D02*
X154655387Y-57367219D01*
X154655387Y-57367219D02*
X154512530Y-57319600D01*
X154512530Y-57319600D02*
X154417292Y-57224361D01*
X154417292Y-57224361D02*
X154369673Y-57129123D01*
X154369673Y-57129123D02*
X154322054Y-56938647D01*
X154322054Y-56938647D02*
X154322054Y-56795790D01*
X154322054Y-56795790D02*
X154369673Y-56605314D01*
X154369673Y-56605314D02*
X154417292Y-56510076D01*
X154417292Y-56510076D02*
X154512530Y-56414838D01*
X154512530Y-56414838D02*
X154655387Y-56367219D01*
X154655387Y-56367219D02*
X154750625Y-56367219D01*
X154750625Y-56367219D02*
X154893482Y-56414838D01*
X154893482Y-56414838D02*
X154941101Y-56462457D01*
X155845863Y-57367219D02*
X155369673Y-57367219D01*
X155369673Y-57367219D02*
X155369673Y-56367219D01*
X156179197Y-57367219D02*
X156179197Y-56367219D01*
X156750625Y-57367219D02*
X156322054Y-56795790D01*
X156750625Y-56367219D02*
X156179197Y-56938647D01*
D13*
X173662457Y-56585715D02*
X174233885Y-56185715D01*
X173662457Y-55900001D02*
X174862457Y-55900001D01*
X174862457Y-55900001D02*
X174862457Y-56357144D01*
X174862457Y-56357144D02*
X174805314Y-56471429D01*
X174805314Y-56471429D02*
X174748171Y-56528572D01*
X174748171Y-56528572D02*
X174633885Y-56585715D01*
X174633885Y-56585715D02*
X174462457Y-56585715D01*
X174462457Y-56585715D02*
X174348171Y-56528572D01*
X174348171Y-56528572D02*
X174291028Y-56471429D01*
X174291028Y-56471429D02*
X174233885Y-56357144D01*
X174233885Y-56357144D02*
X174233885Y-55900001D01*
X173662457Y-57271429D02*
X173719600Y-57157144D01*
X173719600Y-57157144D02*
X173776742Y-57100001D01*
X173776742Y-57100001D02*
X173891028Y-57042858D01*
X173891028Y-57042858D02*
X174233885Y-57042858D01*
X174233885Y-57042858D02*
X174348171Y-57100001D01*
X174348171Y-57100001D02*
X174405314Y-57157144D01*
X174405314Y-57157144D02*
X174462457Y-57271429D01*
X174462457Y-57271429D02*
X174462457Y-57442858D01*
X174462457Y-57442858D02*
X174405314Y-57557144D01*
X174405314Y-57557144D02*
X174348171Y-57614287D01*
X174348171Y-57614287D02*
X174233885Y-57671429D01*
X174233885Y-57671429D02*
X173891028Y-57671429D01*
X173891028Y-57671429D02*
X173776742Y-57614287D01*
X173776742Y-57614287D02*
X173719600Y-57557144D01*
X173719600Y-57557144D02*
X173662457Y-57442858D01*
X173662457Y-57442858D02*
X173662457Y-57271429D01*
X174462457Y-58014286D02*
X174462457Y-58471429D01*
X174862457Y-58185715D02*
X173833885Y-58185715D01*
X173833885Y-58185715D02*
X173719600Y-58242858D01*
X173719600Y-58242858D02*
X173662457Y-58357143D01*
X173662457Y-58357143D02*
X173662457Y-58471429D01*
X173662457Y-59385715D02*
X174291028Y-59385715D01*
X174291028Y-59385715D02*
X174405314Y-59328572D01*
X174405314Y-59328572D02*
X174462457Y-59214286D01*
X174462457Y-59214286D02*
X174462457Y-58985715D01*
X174462457Y-58985715D02*
X174405314Y-58871429D01*
X173719600Y-59385715D02*
X173662457Y-59271429D01*
X173662457Y-59271429D02*
X173662457Y-58985715D01*
X173662457Y-58985715D02*
X173719600Y-58871429D01*
X173719600Y-58871429D02*
X173833885Y-58814286D01*
X173833885Y-58814286D02*
X173948171Y-58814286D01*
X173948171Y-58814286D02*
X174062457Y-58871429D01*
X174062457Y-58871429D02*
X174119600Y-58985715D01*
X174119600Y-58985715D02*
X174119600Y-59271429D01*
X174119600Y-59271429D02*
X174176742Y-59385715D01*
X173662457Y-59957143D02*
X174462457Y-59957143D01*
X174233885Y-59957143D02*
X174348171Y-60014286D01*
X174348171Y-60014286D02*
X174405314Y-60071429D01*
X174405314Y-60071429D02*
X174462457Y-60185714D01*
X174462457Y-60185714D02*
X174462457Y-60300000D01*
X174462457Y-60585714D02*
X173662457Y-60871428D01*
X174462457Y-61157143D02*
X173662457Y-60871428D01*
X173662457Y-60871428D02*
X173376742Y-60757143D01*
X173376742Y-60757143D02*
X173319600Y-60700000D01*
X173319600Y-60700000D02*
X173262457Y-60585714D01*
X174291028Y-62528572D02*
X174291028Y-62928572D01*
X173662457Y-63100000D02*
X173662457Y-62528572D01*
X173662457Y-62528572D02*
X174862457Y-62528572D01*
X174862457Y-62528572D02*
X174862457Y-63100000D01*
X174462457Y-63614286D02*
X173662457Y-63614286D01*
X174348171Y-63614286D02*
X174405314Y-63671429D01*
X174405314Y-63671429D02*
X174462457Y-63785714D01*
X174462457Y-63785714D02*
X174462457Y-63957143D01*
X174462457Y-63957143D02*
X174405314Y-64071429D01*
X174405314Y-64071429D02*
X174291028Y-64128572D01*
X174291028Y-64128572D02*
X173662457Y-64128572D01*
X173719600Y-65214286D02*
X173662457Y-65100000D01*
X173662457Y-65100000D02*
X173662457Y-64871428D01*
X173662457Y-64871428D02*
X173719600Y-64757143D01*
X173719600Y-64757143D02*
X173776742Y-64700000D01*
X173776742Y-64700000D02*
X173891028Y-64642857D01*
X173891028Y-64642857D02*
X174233885Y-64642857D01*
X174233885Y-64642857D02*
X174348171Y-64700000D01*
X174348171Y-64700000D02*
X174405314Y-64757143D01*
X174405314Y-64757143D02*
X174462457Y-64871428D01*
X174462457Y-64871428D02*
X174462457Y-65100000D01*
X174462457Y-65100000D02*
X174405314Y-65214286D01*
X173662457Y-65899999D02*
X173719600Y-65785714D01*
X173719600Y-65785714D02*
X173776742Y-65728571D01*
X173776742Y-65728571D02*
X173891028Y-65671428D01*
X173891028Y-65671428D02*
X174233885Y-65671428D01*
X174233885Y-65671428D02*
X174348171Y-65728571D01*
X174348171Y-65728571D02*
X174405314Y-65785714D01*
X174405314Y-65785714D02*
X174462457Y-65899999D01*
X174462457Y-65899999D02*
X174462457Y-66071428D01*
X174462457Y-66071428D02*
X174405314Y-66185714D01*
X174405314Y-66185714D02*
X174348171Y-66242857D01*
X174348171Y-66242857D02*
X174233885Y-66299999D01*
X174233885Y-66299999D02*
X173891028Y-66299999D01*
X173891028Y-66299999D02*
X173776742Y-66242857D01*
X173776742Y-66242857D02*
X173719600Y-66185714D01*
X173719600Y-66185714D02*
X173662457Y-66071428D01*
X173662457Y-66071428D02*
X173662457Y-65899999D01*
X173662457Y-67328571D02*
X174862457Y-67328571D01*
X173719600Y-67328571D02*
X173662457Y-67214285D01*
X173662457Y-67214285D02*
X173662457Y-66985713D01*
X173662457Y-66985713D02*
X173719600Y-66871428D01*
X173719600Y-66871428D02*
X173776742Y-66814285D01*
X173776742Y-66814285D02*
X173891028Y-66757142D01*
X173891028Y-66757142D02*
X174233885Y-66757142D01*
X174233885Y-66757142D02*
X174348171Y-66814285D01*
X174348171Y-66814285D02*
X174405314Y-66871428D01*
X174405314Y-66871428D02*
X174462457Y-66985713D01*
X174462457Y-66985713D02*
X174462457Y-67214285D01*
X174462457Y-67214285D02*
X174405314Y-67328571D01*
X173719600Y-68357142D02*
X173662457Y-68242856D01*
X173662457Y-68242856D02*
X173662457Y-68014285D01*
X173662457Y-68014285D02*
X173719600Y-67899999D01*
X173719600Y-67899999D02*
X173833885Y-67842856D01*
X173833885Y-67842856D02*
X174291028Y-67842856D01*
X174291028Y-67842856D02*
X174405314Y-67899999D01*
X174405314Y-67899999D02*
X174462457Y-68014285D01*
X174462457Y-68014285D02*
X174462457Y-68242856D01*
X174462457Y-68242856D02*
X174405314Y-68357142D01*
X174405314Y-68357142D02*
X174291028Y-68414285D01*
X174291028Y-68414285D02*
X174176742Y-68414285D01*
X174176742Y-68414285D02*
X174062457Y-67842856D01*
X173662457Y-68928570D02*
X174462457Y-68928570D01*
X174233885Y-68928570D02*
X174348171Y-68985713D01*
X174348171Y-68985713D02*
X174405314Y-69042856D01*
X174405314Y-69042856D02*
X174462457Y-69157141D01*
X174462457Y-69157141D02*
X174462457Y-69271427D01*
D11*
X110833333Y-80149819D02*
X110500000Y-79673628D01*
X110261905Y-80149819D02*
X110261905Y-79149819D01*
X110261905Y-79149819D02*
X110642857Y-79149819D01*
X110642857Y-79149819D02*
X110738095Y-79197438D01*
X110738095Y-79197438D02*
X110785714Y-79245057D01*
X110785714Y-79245057D02*
X110833333Y-79340295D01*
X110833333Y-79340295D02*
X110833333Y-79483152D01*
X110833333Y-79483152D02*
X110785714Y-79578390D01*
X110785714Y-79578390D02*
X110738095Y-79626009D01*
X110738095Y-79626009D02*
X110642857Y-79673628D01*
X110642857Y-79673628D02*
X110261905Y-79673628D01*
X111738095Y-79149819D02*
X111261905Y-79149819D01*
X111261905Y-79149819D02*
X111214286Y-79626009D01*
X111214286Y-79626009D02*
X111261905Y-79578390D01*
X111261905Y-79578390D02*
X111357143Y-79530771D01*
X111357143Y-79530771D02*
X111595238Y-79530771D01*
X111595238Y-79530771D02*
X111690476Y-79578390D01*
X111690476Y-79578390D02*
X111738095Y-79626009D01*
X111738095Y-79626009D02*
X111785714Y-79721247D01*
X111785714Y-79721247D02*
X111785714Y-79959342D01*
X111785714Y-79959342D02*
X111738095Y-80054580D01*
X111738095Y-80054580D02*
X111690476Y-80102200D01*
X111690476Y-80102200D02*
X111595238Y-80149819D01*
X111595238Y-80149819D02*
X111357143Y-80149819D01*
X111357143Y-80149819D02*
X111261905Y-80102200D01*
X111261905Y-80102200D02*
X111214286Y-80054580D01*
X151534819Y-86706666D02*
X151058628Y-87039999D01*
X151534819Y-87278094D02*
X150534819Y-87278094D01*
X150534819Y-87278094D02*
X150534819Y-86897142D01*
X150534819Y-86897142D02*
X150582438Y-86801904D01*
X150582438Y-86801904D02*
X150630057Y-86754285D01*
X150630057Y-86754285D02*
X150725295Y-86706666D01*
X150725295Y-86706666D02*
X150868152Y-86706666D01*
X150868152Y-86706666D02*
X150963390Y-86754285D01*
X150963390Y-86754285D02*
X151011009Y-86801904D01*
X151011009Y-86801904D02*
X151058628Y-86897142D01*
X151058628Y-86897142D02*
X151058628Y-87278094D01*
X150534819Y-86373332D02*
X150534819Y-85706666D01*
X150534819Y-85706666D02*
X151534819Y-86135237D01*
X135833333Y-87084819D02*
X135500000Y-86608628D01*
X135261905Y-87084819D02*
X135261905Y-86084819D01*
X135261905Y-86084819D02*
X135642857Y-86084819D01*
X135642857Y-86084819D02*
X135738095Y-86132438D01*
X135738095Y-86132438D02*
X135785714Y-86180057D01*
X135785714Y-86180057D02*
X135833333Y-86275295D01*
X135833333Y-86275295D02*
X135833333Y-86418152D01*
X135833333Y-86418152D02*
X135785714Y-86513390D01*
X135785714Y-86513390D02*
X135738095Y-86561009D01*
X135738095Y-86561009D02*
X135642857Y-86608628D01*
X135642857Y-86608628D02*
X135261905Y-86608628D01*
X136690476Y-86084819D02*
X136500000Y-86084819D01*
X136500000Y-86084819D02*
X136404762Y-86132438D01*
X136404762Y-86132438D02*
X136357143Y-86180057D01*
X136357143Y-86180057D02*
X136261905Y-86322914D01*
X136261905Y-86322914D02*
X136214286Y-86513390D01*
X136214286Y-86513390D02*
X136214286Y-86894342D01*
X136214286Y-86894342D02*
X136261905Y-86989580D01*
X136261905Y-86989580D02*
X136309524Y-87037200D01*
X136309524Y-87037200D02*
X136404762Y-87084819D01*
X136404762Y-87084819D02*
X136595238Y-87084819D01*
X136595238Y-87084819D02*
X136690476Y-87037200D01*
X136690476Y-87037200D02*
X136738095Y-86989580D01*
X136738095Y-86989580D02*
X136785714Y-86894342D01*
X136785714Y-86894342D02*
X136785714Y-86656247D01*
X136785714Y-86656247D02*
X136738095Y-86561009D01*
X136738095Y-86561009D02*
X136690476Y-86513390D01*
X136690476Y-86513390D02*
X136595238Y-86465771D01*
X136595238Y-86465771D02*
X136404762Y-86465771D01*
X136404762Y-86465771D02*
X136309524Y-86513390D01*
X136309524Y-86513390D02*
X136261905Y-86561009D01*
X136261905Y-86561009D02*
X136214286Y-86656247D01*
X141159580Y-90666666D02*
X141207200Y-90714285D01*
X141207200Y-90714285D02*
X141254819Y-90857142D01*
X141254819Y-90857142D02*
X141254819Y-90952380D01*
X141254819Y-90952380D02*
X141207200Y-91095237D01*
X141207200Y-91095237D02*
X141111961Y-91190475D01*
X141111961Y-91190475D02*
X141016723Y-91238094D01*
X141016723Y-91238094D02*
X140826247Y-91285713D01*
X140826247Y-91285713D02*
X140683390Y-91285713D01*
X140683390Y-91285713D02*
X140492914Y-91238094D01*
X140492914Y-91238094D02*
X140397676Y-91190475D01*
X140397676Y-91190475D02*
X140302438Y-91095237D01*
X140302438Y-91095237D02*
X140254819Y-90952380D01*
X140254819Y-90952380D02*
X140254819Y-90857142D01*
X140254819Y-90857142D02*
X140302438Y-90714285D01*
X140302438Y-90714285D02*
X140350057Y-90666666D01*
X140350057Y-90285713D02*
X140302438Y-90238094D01*
X140302438Y-90238094D02*
X140254819Y-90142856D01*
X140254819Y-90142856D02*
X140254819Y-89904761D01*
X140254819Y-89904761D02*
X140302438Y-89809523D01*
X140302438Y-89809523D02*
X140350057Y-89761904D01*
X140350057Y-89761904D02*
X140445295Y-89714285D01*
X140445295Y-89714285D02*
X140540533Y-89714285D01*
X140540533Y-89714285D02*
X140683390Y-89761904D01*
X140683390Y-89761904D02*
X141254819Y-90333332D01*
X141254819Y-90333332D02*
X141254819Y-89714285D01*
X123833333Y-73359580D02*
X123785714Y-73407200D01*
X123785714Y-73407200D02*
X123642857Y-73454819D01*
X123642857Y-73454819D02*
X123547619Y-73454819D01*
X123547619Y-73454819D02*
X123404762Y-73407200D01*
X123404762Y-73407200D02*
X123309524Y-73311961D01*
X123309524Y-73311961D02*
X123261905Y-73216723D01*
X123261905Y-73216723D02*
X123214286Y-73026247D01*
X123214286Y-73026247D02*
X123214286Y-72883390D01*
X123214286Y-72883390D02*
X123261905Y-72692914D01*
X123261905Y-72692914D02*
X123309524Y-72597676D01*
X123309524Y-72597676D02*
X123404762Y-72502438D01*
X123404762Y-72502438D02*
X123547619Y-72454819D01*
X123547619Y-72454819D02*
X123642857Y-72454819D01*
X123642857Y-72454819D02*
X123785714Y-72502438D01*
X123785714Y-72502438D02*
X123833333Y-72550057D01*
X124690476Y-72788152D02*
X124690476Y-73454819D01*
X124452381Y-72407200D02*
X124214286Y-73121485D01*
X124214286Y-73121485D02*
X124833333Y-73121485D01*
D10*
X106446265Y-63134800D02*
X106589122Y-63182419D01*
X106589122Y-63182419D02*
X106827217Y-63182419D01*
X106827217Y-63182419D02*
X106922455Y-63134800D01*
X106922455Y-63134800D02*
X106970074Y-63087180D01*
X106970074Y-63087180D02*
X107017693Y-62991942D01*
X107017693Y-62991942D02*
X107017693Y-62896704D01*
X107017693Y-62896704D02*
X106970074Y-62801466D01*
X106970074Y-62801466D02*
X106922455Y-62753847D01*
X106922455Y-62753847D02*
X106827217Y-62706228D01*
X106827217Y-62706228D02*
X106636741Y-62658609D01*
X106636741Y-62658609D02*
X106541503Y-62610990D01*
X106541503Y-62610990D02*
X106493884Y-62563371D01*
X106493884Y-62563371D02*
X106446265Y-62468133D01*
X106446265Y-62468133D02*
X106446265Y-62372895D01*
X106446265Y-62372895D02*
X106493884Y-62277657D01*
X106493884Y-62277657D02*
X106541503Y-62230038D01*
X106541503Y-62230038D02*
X106636741Y-62182419D01*
X106636741Y-62182419D02*
X106874836Y-62182419D01*
X106874836Y-62182419D02*
X107017693Y-62230038D01*
X108017693Y-63087180D02*
X107970074Y-63134800D01*
X107970074Y-63134800D02*
X107827217Y-63182419D01*
X107827217Y-63182419D02*
X107731979Y-63182419D01*
X107731979Y-63182419D02*
X107589122Y-63134800D01*
X107589122Y-63134800D02*
X107493884Y-63039561D01*
X107493884Y-63039561D02*
X107446265Y-62944323D01*
X107446265Y-62944323D02*
X107398646Y-62753847D01*
X107398646Y-62753847D02*
X107398646Y-62610990D01*
X107398646Y-62610990D02*
X107446265Y-62420514D01*
X107446265Y-62420514D02*
X107493884Y-62325276D01*
X107493884Y-62325276D02*
X107589122Y-62230038D01*
X107589122Y-62230038D02*
X107731979Y-62182419D01*
X107731979Y-62182419D02*
X107827217Y-62182419D01*
X107827217Y-62182419D02*
X107970074Y-62230038D01*
X107970074Y-62230038D02*
X108017693Y-62277657D01*
X108446265Y-63182419D02*
X108446265Y-62182419D01*
X109017693Y-63182419D02*
X108589122Y-62610990D01*
X109017693Y-62182419D02*
X108446265Y-62753847D01*
X120493884Y-65682419D02*
X120493884Y-64682419D01*
X120493884Y-64682419D02*
X120874836Y-64682419D01*
X120874836Y-64682419D02*
X120970074Y-64730038D01*
X120970074Y-64730038D02*
X121017693Y-64777657D01*
X121017693Y-64777657D02*
X121065312Y-64872895D01*
X121065312Y-64872895D02*
X121065312Y-65015752D01*
X121065312Y-65015752D02*
X121017693Y-65110990D01*
X121017693Y-65110990D02*
X120970074Y-65158609D01*
X120970074Y-65158609D02*
X120874836Y-65206228D01*
X120874836Y-65206228D02*
X120493884Y-65206228D01*
X121684360Y-64682419D02*
X121779598Y-64682419D01*
X121779598Y-64682419D02*
X121874836Y-64730038D01*
X121874836Y-64730038D02*
X121922455Y-64777657D01*
X121922455Y-64777657D02*
X121970074Y-64872895D01*
X121970074Y-64872895D02*
X122017693Y-65063371D01*
X122017693Y-65063371D02*
X122017693Y-65301466D01*
X122017693Y-65301466D02*
X121970074Y-65491942D01*
X121970074Y-65491942D02*
X121922455Y-65587180D01*
X121922455Y-65587180D02*
X121874836Y-65634800D01*
X121874836Y-65634800D02*
X121779598Y-65682419D01*
X121779598Y-65682419D02*
X121684360Y-65682419D01*
X121684360Y-65682419D02*
X121589122Y-65634800D01*
X121589122Y-65634800D02*
X121541503Y-65587180D01*
X121541503Y-65587180D02*
X121493884Y-65491942D01*
X121493884Y-65491942D02*
X121446265Y-65301466D01*
X121446265Y-65301466D02*
X121446265Y-65063371D01*
X121446265Y-65063371D02*
X121493884Y-64872895D01*
X121493884Y-64872895D02*
X121541503Y-64777657D01*
X121541503Y-64777657D02*
X121589122Y-64730038D01*
X121589122Y-64730038D02*
X121684360Y-64682419D01*
X122351027Y-64682419D02*
X122589122Y-65682419D01*
X122589122Y-65682419D02*
X122779598Y-64968133D01*
X122779598Y-64968133D02*
X122970074Y-65682419D01*
X122970074Y-65682419D02*
X123208170Y-64682419D01*
X102946265Y-65634800D02*
X103089122Y-65682419D01*
X103089122Y-65682419D02*
X103327217Y-65682419D01*
X103327217Y-65682419D02*
X103422455Y-65634800D01*
X103422455Y-65634800D02*
X103470074Y-65587180D01*
X103470074Y-65587180D02*
X103517693Y-65491942D01*
X103517693Y-65491942D02*
X103517693Y-65396704D01*
X103517693Y-65396704D02*
X103470074Y-65301466D01*
X103470074Y-65301466D02*
X103422455Y-65253847D01*
X103422455Y-65253847D02*
X103327217Y-65206228D01*
X103327217Y-65206228D02*
X103136741Y-65158609D01*
X103136741Y-65158609D02*
X103041503Y-65110990D01*
X103041503Y-65110990D02*
X102993884Y-65063371D01*
X102993884Y-65063371D02*
X102946265Y-64968133D01*
X102946265Y-64968133D02*
X102946265Y-64872895D01*
X102946265Y-64872895D02*
X102993884Y-64777657D01*
X102993884Y-64777657D02*
X103041503Y-64730038D01*
X103041503Y-64730038D02*
X103136741Y-64682419D01*
X103136741Y-64682419D02*
X103374836Y-64682419D01*
X103374836Y-64682419D02*
X103517693Y-64730038D01*
X103946265Y-65682419D02*
X103946265Y-64682419D01*
X103946265Y-64682419D02*
X104184360Y-64682419D01*
X104184360Y-64682419D02*
X104327217Y-64730038D01*
X104327217Y-64730038D02*
X104422455Y-64825276D01*
X104422455Y-64825276D02*
X104470074Y-64920514D01*
X104470074Y-64920514D02*
X104517693Y-65110990D01*
X104517693Y-65110990D02*
X104517693Y-65253847D01*
X104517693Y-65253847D02*
X104470074Y-65444323D01*
X104470074Y-65444323D02*
X104422455Y-65539561D01*
X104422455Y-65539561D02*
X104327217Y-65634800D01*
X104327217Y-65634800D02*
X104184360Y-65682419D01*
X104184360Y-65682419D02*
X103946265Y-65682419D01*
X104946265Y-65682419D02*
X104946265Y-64682419D01*
X106136740Y-64634800D02*
X105279598Y-65920514D01*
X106422455Y-65634800D02*
X106565312Y-65682419D01*
X106565312Y-65682419D02*
X106803407Y-65682419D01*
X106803407Y-65682419D02*
X106898645Y-65634800D01*
X106898645Y-65634800D02*
X106946264Y-65587180D01*
X106946264Y-65587180D02*
X106993883Y-65491942D01*
X106993883Y-65491942D02*
X106993883Y-65396704D01*
X106993883Y-65396704D02*
X106946264Y-65301466D01*
X106946264Y-65301466D02*
X106898645Y-65253847D01*
X106898645Y-65253847D02*
X106803407Y-65206228D01*
X106803407Y-65206228D02*
X106612931Y-65158609D01*
X106612931Y-65158609D02*
X106517693Y-65110990D01*
X106517693Y-65110990D02*
X106470074Y-65063371D01*
X106470074Y-65063371D02*
X106422455Y-64968133D01*
X106422455Y-64968133D02*
X106422455Y-64872895D01*
X106422455Y-64872895D02*
X106470074Y-64777657D01*
X106470074Y-64777657D02*
X106517693Y-64730038D01*
X106517693Y-64730038D02*
X106612931Y-64682419D01*
X106612931Y-64682419D02*
X106851026Y-64682419D01*
X106851026Y-64682419D02*
X106993883Y-64730038D01*
X107422455Y-65682419D02*
X107422455Y-64682419D01*
X107422455Y-64682419D02*
X107660550Y-64682419D01*
X107660550Y-64682419D02*
X107803407Y-64730038D01*
X107803407Y-64730038D02*
X107898645Y-64825276D01*
X107898645Y-64825276D02*
X107946264Y-64920514D01*
X107946264Y-64920514D02*
X107993883Y-65110990D01*
X107993883Y-65110990D02*
X107993883Y-65253847D01*
X107993883Y-65253847D02*
X107946264Y-65444323D01*
X107946264Y-65444323D02*
X107898645Y-65539561D01*
X107898645Y-65539561D02*
X107803407Y-65634800D01*
X107803407Y-65634800D02*
X107660550Y-65682419D01*
X107660550Y-65682419D02*
X107422455Y-65682419D01*
X108612931Y-64682419D02*
X108803407Y-64682419D01*
X108803407Y-64682419D02*
X108898645Y-64730038D01*
X108898645Y-64730038D02*
X108993883Y-64825276D01*
X108993883Y-64825276D02*
X109041502Y-65015752D01*
X109041502Y-65015752D02*
X109041502Y-65349085D01*
X109041502Y-65349085D02*
X108993883Y-65539561D01*
X108993883Y-65539561D02*
X108898645Y-65634800D01*
X108898645Y-65634800D02*
X108803407Y-65682419D01*
X108803407Y-65682419D02*
X108612931Y-65682419D01*
X108612931Y-65682419D02*
X108517693Y-65634800D01*
X108517693Y-65634800D02*
X108422455Y-65539561D01*
X108422455Y-65539561D02*
X108374836Y-65349085D01*
X108374836Y-65349085D02*
X108374836Y-65015752D01*
X108374836Y-65015752D02*
X108422455Y-64825276D01*
X108422455Y-64825276D02*
X108517693Y-64730038D01*
X108517693Y-64730038D02*
X108612931Y-64682419D01*
X120493884Y-62682419D02*
X120493884Y-61682419D01*
X120493884Y-61682419D02*
X120874836Y-61682419D01*
X120874836Y-61682419D02*
X120970074Y-61730038D01*
X120970074Y-61730038D02*
X121017693Y-61777657D01*
X121017693Y-61777657D02*
X121065312Y-61872895D01*
X121065312Y-61872895D02*
X121065312Y-62015752D01*
X121065312Y-62015752D02*
X121017693Y-62110990D01*
X121017693Y-62110990D02*
X120970074Y-62158609D01*
X120970074Y-62158609D02*
X120874836Y-62206228D01*
X120874836Y-62206228D02*
X120493884Y-62206228D01*
X121684360Y-61682419D02*
X121779598Y-61682419D01*
X121779598Y-61682419D02*
X121874836Y-61730038D01*
X121874836Y-61730038D02*
X121922455Y-61777657D01*
X121922455Y-61777657D02*
X121970074Y-61872895D01*
X121970074Y-61872895D02*
X122017693Y-62063371D01*
X122017693Y-62063371D02*
X122017693Y-62301466D01*
X122017693Y-62301466D02*
X121970074Y-62491942D01*
X121970074Y-62491942D02*
X121922455Y-62587180D01*
X121922455Y-62587180D02*
X121874836Y-62634800D01*
X121874836Y-62634800D02*
X121779598Y-62682419D01*
X121779598Y-62682419D02*
X121684360Y-62682419D01*
X121684360Y-62682419D02*
X121589122Y-62634800D01*
X121589122Y-62634800D02*
X121541503Y-62587180D01*
X121541503Y-62587180D02*
X121493884Y-62491942D01*
X121493884Y-62491942D02*
X121446265Y-62301466D01*
X121446265Y-62301466D02*
X121446265Y-62063371D01*
X121446265Y-62063371D02*
X121493884Y-61872895D01*
X121493884Y-61872895D02*
X121541503Y-61777657D01*
X121541503Y-61777657D02*
X121589122Y-61730038D01*
X121589122Y-61730038D02*
X121684360Y-61682419D01*
X122779598Y-62158609D02*
X122922455Y-62206228D01*
X122922455Y-62206228D02*
X122970074Y-62253847D01*
X122970074Y-62253847D02*
X123017693Y-62349085D01*
X123017693Y-62349085D02*
X123017693Y-62491942D01*
X123017693Y-62491942D02*
X122970074Y-62587180D01*
X122970074Y-62587180D02*
X122922455Y-62634800D01*
X122922455Y-62634800D02*
X122827217Y-62682419D01*
X122827217Y-62682419D02*
X122446265Y-62682419D01*
X122446265Y-62682419D02*
X122446265Y-61682419D01*
X122446265Y-61682419D02*
X122779598Y-61682419D01*
X122779598Y-61682419D02*
X122874836Y-61730038D01*
X122874836Y-61730038D02*
X122922455Y-61777657D01*
X122922455Y-61777657D02*
X122970074Y-61872895D01*
X122970074Y-61872895D02*
X122970074Y-61968133D01*
X122970074Y-61968133D02*
X122922455Y-62063371D01*
X122922455Y-62063371D02*
X122874836Y-62110990D01*
X122874836Y-62110990D02*
X122779598Y-62158609D01*
X122779598Y-62158609D02*
X122446265Y-62158609D01*
X120351027Y-59182419D02*
X120684360Y-60182419D01*
X120684360Y-60182419D02*
X121017693Y-59182419D01*
X121779598Y-60182419D02*
X121779598Y-59182419D01*
X121779598Y-60134800D02*
X121684360Y-60182419D01*
X121684360Y-60182419D02*
X121493884Y-60182419D01*
X121493884Y-60182419D02*
X121398646Y-60134800D01*
X121398646Y-60134800D02*
X121351027Y-60087180D01*
X121351027Y-60087180D02*
X121303408Y-59991942D01*
X121303408Y-59991942D02*
X121303408Y-59706228D01*
X121303408Y-59706228D02*
X121351027Y-59610990D01*
X121351027Y-59610990D02*
X121398646Y-59563371D01*
X121398646Y-59563371D02*
X121493884Y-59515752D01*
X121493884Y-59515752D02*
X121684360Y-59515752D01*
X121684360Y-59515752D02*
X121779598Y-59563371D01*
X122684360Y-60182419D02*
X122684360Y-59182419D01*
X122684360Y-60134800D02*
X122589122Y-60182419D01*
X122589122Y-60182419D02*
X122398646Y-60182419D01*
X122398646Y-60182419D02*
X122303408Y-60134800D01*
X122303408Y-60134800D02*
X122255789Y-60087180D01*
X122255789Y-60087180D02*
X122208170Y-59991942D01*
X122208170Y-59991942D02*
X122208170Y-59706228D01*
X122208170Y-59706228D02*
X122255789Y-59610990D01*
X122255789Y-59610990D02*
X122303408Y-59563371D01*
X122303408Y-59563371D02*
X122398646Y-59515752D01*
X122398646Y-59515752D02*
X122589122Y-59515752D01*
X122589122Y-59515752D02*
X122684360Y-59563371D01*
X106851027Y-67182419D02*
X107184360Y-68182419D01*
X107184360Y-68182419D02*
X107517693Y-67182419D01*
X107803408Y-68134800D02*
X107898646Y-68182419D01*
X107898646Y-68182419D02*
X108089122Y-68182419D01*
X108089122Y-68182419D02*
X108184360Y-68134800D01*
X108184360Y-68134800D02*
X108231979Y-68039561D01*
X108231979Y-68039561D02*
X108231979Y-67991942D01*
X108231979Y-67991942D02*
X108184360Y-67896704D01*
X108184360Y-67896704D02*
X108089122Y-67849085D01*
X108089122Y-67849085D02*
X107946265Y-67849085D01*
X107946265Y-67849085D02*
X107851027Y-67801466D01*
X107851027Y-67801466D02*
X107803408Y-67706228D01*
X107803408Y-67706228D02*
X107803408Y-67658609D01*
X107803408Y-67658609D02*
X107851027Y-67563371D01*
X107851027Y-67563371D02*
X107946265Y-67515752D01*
X107946265Y-67515752D02*
X108089122Y-67515752D01*
X108089122Y-67515752D02*
X108184360Y-67563371D01*
X108612932Y-68134800D02*
X108708170Y-68182419D01*
X108708170Y-68182419D02*
X108898646Y-68182419D01*
X108898646Y-68182419D02*
X108993884Y-68134800D01*
X108993884Y-68134800D02*
X109041503Y-68039561D01*
X109041503Y-68039561D02*
X109041503Y-67991942D01*
X109041503Y-67991942D02*
X108993884Y-67896704D01*
X108993884Y-67896704D02*
X108898646Y-67849085D01*
X108898646Y-67849085D02*
X108755789Y-67849085D01*
X108755789Y-67849085D02*
X108660551Y-67801466D01*
X108660551Y-67801466D02*
X108612932Y-67706228D01*
X108612932Y-67706228D02*
X108612932Y-67658609D01*
X108612932Y-67658609D02*
X108660551Y-67563371D01*
X108660551Y-67563371D02*
X108755789Y-67515752D01*
X108755789Y-67515752D02*
X108898646Y-67515752D01*
X108898646Y-67515752D02*
X108993884Y-67563371D01*
X107493884Y-57682419D02*
X107493884Y-56682419D01*
X107493884Y-56682419D02*
X107874836Y-56682419D01*
X107874836Y-56682419D02*
X107970074Y-56730038D01*
X107970074Y-56730038D02*
X108017693Y-56777657D01*
X108017693Y-56777657D02*
X108065312Y-56872895D01*
X108065312Y-56872895D02*
X108065312Y-57015752D01*
X108065312Y-57015752D02*
X108017693Y-57110990D01*
X108017693Y-57110990D02*
X107970074Y-57158609D01*
X107970074Y-57158609D02*
X107874836Y-57206228D01*
X107874836Y-57206228D02*
X107493884Y-57206228D01*
X108636741Y-57682419D02*
X108541503Y-57634800D01*
X108541503Y-57634800D02*
X108493884Y-57587180D01*
X108493884Y-57587180D02*
X108446265Y-57491942D01*
X108446265Y-57491942D02*
X108446265Y-57206228D01*
X108446265Y-57206228D02*
X108493884Y-57110990D01*
X108493884Y-57110990D02*
X108541503Y-57063371D01*
X108541503Y-57063371D02*
X108636741Y-57015752D01*
X108636741Y-57015752D02*
X108779598Y-57015752D01*
X108779598Y-57015752D02*
X108874836Y-57063371D01*
X108874836Y-57063371D02*
X108922455Y-57110990D01*
X108922455Y-57110990D02*
X108970074Y-57206228D01*
X108970074Y-57206228D02*
X108970074Y-57491942D01*
X108970074Y-57491942D02*
X108922455Y-57587180D01*
X108922455Y-57587180D02*
X108874836Y-57634800D01*
X108874836Y-57634800D02*
X108779598Y-57682419D01*
X108779598Y-57682419D02*
X108636741Y-57682419D01*
X109255789Y-57015752D02*
X109636741Y-57015752D01*
X109398646Y-56682419D02*
X109398646Y-57539561D01*
X109398646Y-57539561D02*
X109446265Y-57634800D01*
X109446265Y-57634800D02*
X109541503Y-57682419D01*
X109541503Y-57682419D02*
X109636741Y-57682419D01*
X110351027Y-57634800D02*
X110255789Y-57682419D01*
X110255789Y-57682419D02*
X110065313Y-57682419D01*
X110065313Y-57682419D02*
X109970075Y-57634800D01*
X109970075Y-57634800D02*
X109922456Y-57539561D01*
X109922456Y-57539561D02*
X109922456Y-57158609D01*
X109922456Y-57158609D02*
X109970075Y-57063371D01*
X109970075Y-57063371D02*
X110065313Y-57015752D01*
X110065313Y-57015752D02*
X110255789Y-57015752D01*
X110255789Y-57015752D02*
X110351027Y-57063371D01*
X110351027Y-57063371D02*
X110398646Y-57158609D01*
X110398646Y-57158609D02*
X110398646Y-57253847D01*
X110398646Y-57253847D02*
X109922456Y-57349085D01*
X110827218Y-57015752D02*
X110827218Y-57682419D01*
X110827218Y-57110990D02*
X110874837Y-57063371D01*
X110874837Y-57063371D02*
X110970075Y-57015752D01*
X110970075Y-57015752D02*
X111112932Y-57015752D01*
X111112932Y-57015752D02*
X111208170Y-57063371D01*
X111208170Y-57063371D02*
X111255789Y-57158609D01*
X111255789Y-57158609D02*
X111255789Y-57682419D01*
X111589123Y-57015752D02*
X111970075Y-57015752D01*
X111731980Y-56682419D02*
X111731980Y-57539561D01*
X111731980Y-57539561D02*
X111779599Y-57634800D01*
X111779599Y-57634800D02*
X111874837Y-57682419D01*
X111874837Y-57682419D02*
X111970075Y-57682419D01*
X112303409Y-57682419D02*
X112303409Y-57015752D01*
X112303409Y-56682419D02*
X112255790Y-56730038D01*
X112255790Y-56730038D02*
X112303409Y-56777657D01*
X112303409Y-56777657D02*
X112351028Y-56730038D01*
X112351028Y-56730038D02*
X112303409Y-56682419D01*
X112303409Y-56682419D02*
X112303409Y-56777657D01*
X112922456Y-57682419D02*
X112827218Y-57634800D01*
X112827218Y-57634800D02*
X112779599Y-57587180D01*
X112779599Y-57587180D02*
X112731980Y-57491942D01*
X112731980Y-57491942D02*
X112731980Y-57206228D01*
X112731980Y-57206228D02*
X112779599Y-57110990D01*
X112779599Y-57110990D02*
X112827218Y-57063371D01*
X112827218Y-57063371D02*
X112922456Y-57015752D01*
X112922456Y-57015752D02*
X113065313Y-57015752D01*
X113065313Y-57015752D02*
X113160551Y-57063371D01*
X113160551Y-57063371D02*
X113208170Y-57110990D01*
X113208170Y-57110990D02*
X113255789Y-57206228D01*
X113255789Y-57206228D02*
X113255789Y-57491942D01*
X113255789Y-57491942D02*
X113208170Y-57587180D01*
X113208170Y-57587180D02*
X113160551Y-57634800D01*
X113160551Y-57634800D02*
X113065313Y-57682419D01*
X113065313Y-57682419D02*
X112922456Y-57682419D01*
X113684361Y-57682419D02*
X113684361Y-57015752D01*
X113684361Y-57110990D02*
X113731980Y-57063371D01*
X113731980Y-57063371D02*
X113827218Y-57015752D01*
X113827218Y-57015752D02*
X113970075Y-57015752D01*
X113970075Y-57015752D02*
X114065313Y-57063371D01*
X114065313Y-57063371D02*
X114112932Y-57158609D01*
X114112932Y-57158609D02*
X114112932Y-57682419D01*
X114112932Y-57158609D02*
X114160551Y-57063371D01*
X114160551Y-57063371D02*
X114255789Y-57015752D01*
X114255789Y-57015752D02*
X114398646Y-57015752D01*
X114398646Y-57015752D02*
X114493885Y-57063371D01*
X114493885Y-57063371D02*
X114541504Y-57158609D01*
X114541504Y-57158609D02*
X114541504Y-57682419D01*
X115398646Y-57634800D02*
X115303408Y-57682419D01*
X115303408Y-57682419D02*
X115112932Y-57682419D01*
X115112932Y-57682419D02*
X115017694Y-57634800D01*
X115017694Y-57634800D02*
X114970075Y-57539561D01*
X114970075Y-57539561D02*
X114970075Y-57158609D01*
X114970075Y-57158609D02*
X115017694Y-57063371D01*
X115017694Y-57063371D02*
X115112932Y-57015752D01*
X115112932Y-57015752D02*
X115303408Y-57015752D01*
X115303408Y-57015752D02*
X115398646Y-57063371D01*
X115398646Y-57063371D02*
X115446265Y-57158609D01*
X115446265Y-57158609D02*
X115446265Y-57253847D01*
X115446265Y-57253847D02*
X114970075Y-57349085D01*
X115731980Y-57015752D02*
X116112932Y-57015752D01*
X115874837Y-56682419D02*
X115874837Y-57539561D01*
X115874837Y-57539561D02*
X115922456Y-57634800D01*
X115922456Y-57634800D02*
X116017694Y-57682419D01*
X116017694Y-57682419D02*
X116112932Y-57682419D01*
X116446266Y-57682419D02*
X116446266Y-57015752D01*
X116446266Y-57206228D02*
X116493885Y-57110990D01*
X116493885Y-57110990D02*
X116541504Y-57063371D01*
X116541504Y-57063371D02*
X116636742Y-57015752D01*
X116636742Y-57015752D02*
X116731980Y-57015752D01*
X117446266Y-57634800D02*
X117351028Y-57682419D01*
X117351028Y-57682419D02*
X117160552Y-57682419D01*
X117160552Y-57682419D02*
X117065314Y-57634800D01*
X117065314Y-57634800D02*
X117017695Y-57539561D01*
X117017695Y-57539561D02*
X117017695Y-57158609D01*
X117017695Y-57158609D02*
X117065314Y-57063371D01*
X117065314Y-57063371D02*
X117160552Y-57015752D01*
X117160552Y-57015752D02*
X117351028Y-57015752D01*
X117351028Y-57015752D02*
X117446266Y-57063371D01*
X117446266Y-57063371D02*
X117493885Y-57158609D01*
X117493885Y-57158609D02*
X117493885Y-57253847D01*
X117493885Y-57253847D02*
X117017695Y-57349085D01*
X118684362Y-57682419D02*
X118684362Y-56682419D01*
X118684362Y-56682419D02*
X118922457Y-56682419D01*
X118922457Y-56682419D02*
X119065314Y-56730038D01*
X119065314Y-56730038D02*
X119160552Y-56825276D01*
X119160552Y-56825276D02*
X119208171Y-56920514D01*
X119208171Y-56920514D02*
X119255790Y-57110990D01*
X119255790Y-57110990D02*
X119255790Y-57253847D01*
X119255790Y-57253847D02*
X119208171Y-57444323D01*
X119208171Y-57444323D02*
X119160552Y-57539561D01*
X119160552Y-57539561D02*
X119065314Y-57634800D01*
X119065314Y-57634800D02*
X118922457Y-57682419D01*
X118922457Y-57682419D02*
X118684362Y-57682419D01*
X119684362Y-57682419D02*
X119684362Y-57015752D01*
X119684362Y-56682419D02*
X119636743Y-56730038D01*
X119636743Y-56730038D02*
X119684362Y-56777657D01*
X119684362Y-56777657D02*
X119731981Y-56730038D01*
X119731981Y-56730038D02*
X119684362Y-56682419D01*
X119684362Y-56682419D02*
X119684362Y-56777657D01*
X120589123Y-57015752D02*
X120589123Y-57825276D01*
X120589123Y-57825276D02*
X120541504Y-57920514D01*
X120541504Y-57920514D02*
X120493885Y-57968133D01*
X120493885Y-57968133D02*
X120398647Y-58015752D01*
X120398647Y-58015752D02*
X120255790Y-58015752D01*
X120255790Y-58015752D02*
X120160552Y-57968133D01*
X120589123Y-57634800D02*
X120493885Y-57682419D01*
X120493885Y-57682419D02*
X120303409Y-57682419D01*
X120303409Y-57682419D02*
X120208171Y-57634800D01*
X120208171Y-57634800D02*
X120160552Y-57587180D01*
X120160552Y-57587180D02*
X120112933Y-57491942D01*
X120112933Y-57491942D02*
X120112933Y-57206228D01*
X120112933Y-57206228D02*
X120160552Y-57110990D01*
X120160552Y-57110990D02*
X120208171Y-57063371D01*
X120208171Y-57063371D02*
X120303409Y-57015752D01*
X120303409Y-57015752D02*
X120493885Y-57015752D01*
X120493885Y-57015752D02*
X120589123Y-57063371D01*
X121065314Y-57682419D02*
X121065314Y-57015752D01*
X121065314Y-56682419D02*
X121017695Y-56730038D01*
X121017695Y-56730038D02*
X121065314Y-56777657D01*
X121065314Y-56777657D02*
X121112933Y-56730038D01*
X121112933Y-56730038D02*
X121065314Y-56682419D01*
X121065314Y-56682419D02*
X121065314Y-56777657D01*
X121398647Y-57015752D02*
X121779599Y-57015752D01*
X121541504Y-56682419D02*
X121541504Y-57539561D01*
X121541504Y-57539561D02*
X121589123Y-57634800D01*
X121589123Y-57634800D02*
X121684361Y-57682419D01*
X121684361Y-57682419D02*
X121779599Y-57682419D01*
X122541504Y-57682419D02*
X122541504Y-57158609D01*
X122541504Y-57158609D02*
X122493885Y-57063371D01*
X122493885Y-57063371D02*
X122398647Y-57015752D01*
X122398647Y-57015752D02*
X122208171Y-57015752D01*
X122208171Y-57015752D02*
X122112933Y-57063371D01*
X122541504Y-57634800D02*
X122446266Y-57682419D01*
X122446266Y-57682419D02*
X122208171Y-57682419D01*
X122208171Y-57682419D02*
X122112933Y-57634800D01*
X122112933Y-57634800D02*
X122065314Y-57539561D01*
X122065314Y-57539561D02*
X122065314Y-57444323D01*
X122065314Y-57444323D02*
X122112933Y-57349085D01*
X122112933Y-57349085D02*
X122208171Y-57301466D01*
X122208171Y-57301466D02*
X122446266Y-57301466D01*
X122446266Y-57301466D02*
X122541504Y-57253847D01*
X123160552Y-57682419D02*
X123065314Y-57634800D01*
X123065314Y-57634800D02*
X123017695Y-57539561D01*
X123017695Y-57539561D02*
X123017695Y-56682419D01*
X120493884Y-68182419D02*
X120493884Y-67182419D01*
X120493884Y-67182419D02*
X120874836Y-67182419D01*
X120874836Y-67182419D02*
X120970074Y-67230038D01*
X120970074Y-67230038D02*
X121017693Y-67277657D01*
X121017693Y-67277657D02*
X121065312Y-67372895D01*
X121065312Y-67372895D02*
X121065312Y-67515752D01*
X121065312Y-67515752D02*
X121017693Y-67610990D01*
X121017693Y-67610990D02*
X120970074Y-67658609D01*
X120970074Y-67658609D02*
X120874836Y-67706228D01*
X120874836Y-67706228D02*
X120493884Y-67706228D01*
X121684360Y-67182419D02*
X121779598Y-67182419D01*
X121779598Y-67182419D02*
X121874836Y-67230038D01*
X121874836Y-67230038D02*
X121922455Y-67277657D01*
X121922455Y-67277657D02*
X121970074Y-67372895D01*
X121970074Y-67372895D02*
X122017693Y-67563371D01*
X122017693Y-67563371D02*
X122017693Y-67801466D01*
X122017693Y-67801466D02*
X121970074Y-67991942D01*
X121970074Y-67991942D02*
X121922455Y-68087180D01*
X121922455Y-68087180D02*
X121874836Y-68134800D01*
X121874836Y-68134800D02*
X121779598Y-68182419D01*
X121779598Y-68182419D02*
X121684360Y-68182419D01*
X121684360Y-68182419D02*
X121589122Y-68134800D01*
X121589122Y-68134800D02*
X121541503Y-68087180D01*
X121541503Y-68087180D02*
X121493884Y-67991942D01*
X121493884Y-67991942D02*
X121446265Y-67801466D01*
X121446265Y-67801466D02*
X121446265Y-67563371D01*
X121446265Y-67563371D02*
X121493884Y-67372895D01*
X121493884Y-67372895D02*
X121541503Y-67277657D01*
X121541503Y-67277657D02*
X121589122Y-67230038D01*
X121589122Y-67230038D02*
X121684360Y-67182419D01*
X122398646Y-67896704D02*
X122874836Y-67896704D01*
X122303408Y-68182419D02*
X122636741Y-67182419D01*
X122636741Y-67182419D02*
X122970074Y-68182419D01*
X108065312Y-60587180D02*
X108017693Y-60634800D01*
X108017693Y-60634800D02*
X107874836Y-60682419D01*
X107874836Y-60682419D02*
X107779598Y-60682419D01*
X107779598Y-60682419D02*
X107636741Y-60634800D01*
X107636741Y-60634800D02*
X107541503Y-60539561D01*
X107541503Y-60539561D02*
X107493884Y-60444323D01*
X107493884Y-60444323D02*
X107446265Y-60253847D01*
X107446265Y-60253847D02*
X107446265Y-60110990D01*
X107446265Y-60110990D02*
X107493884Y-59920514D01*
X107493884Y-59920514D02*
X107541503Y-59825276D01*
X107541503Y-59825276D02*
X107636741Y-59730038D01*
X107636741Y-59730038D02*
X107779598Y-59682419D01*
X107779598Y-59682419D02*
X107874836Y-59682419D01*
X107874836Y-59682419D02*
X108017693Y-59730038D01*
X108017693Y-59730038D02*
X108065312Y-59777657D01*
X108446265Y-60634800D02*
X108589122Y-60682419D01*
X108589122Y-60682419D02*
X108827217Y-60682419D01*
X108827217Y-60682419D02*
X108922455Y-60634800D01*
X108922455Y-60634800D02*
X108970074Y-60587180D01*
X108970074Y-60587180D02*
X109017693Y-60491942D01*
X109017693Y-60491942D02*
X109017693Y-60396704D01*
X109017693Y-60396704D02*
X108970074Y-60301466D01*
X108970074Y-60301466D02*
X108922455Y-60253847D01*
X108922455Y-60253847D02*
X108827217Y-60206228D01*
X108827217Y-60206228D02*
X108636741Y-60158609D01*
X108636741Y-60158609D02*
X108541503Y-60110990D01*
X108541503Y-60110990D02*
X108493884Y-60063371D01*
X108493884Y-60063371D02*
X108446265Y-59968133D01*
X108446265Y-59968133D02*
X108446265Y-59872895D01*
X108446265Y-59872895D02*
X108493884Y-59777657D01*
X108493884Y-59777657D02*
X108541503Y-59730038D01*
X108541503Y-59730038D02*
X108636741Y-59682419D01*
X108636741Y-59682419D02*
X108874836Y-59682419D01*
X108874836Y-59682419D02*
X109017693Y-59730038D01*
D11*
X161833333Y-51159580D02*
X161785714Y-51207200D01*
X161785714Y-51207200D02*
X161642857Y-51254819D01*
X161642857Y-51254819D02*
X161547619Y-51254819D01*
X161547619Y-51254819D02*
X161404762Y-51207200D01*
X161404762Y-51207200D02*
X161309524Y-51111961D01*
X161309524Y-51111961D02*
X161261905Y-51016723D01*
X161261905Y-51016723D02*
X161214286Y-50826247D01*
X161214286Y-50826247D02*
X161214286Y-50683390D01*
X161214286Y-50683390D02*
X161261905Y-50492914D01*
X161261905Y-50492914D02*
X161309524Y-50397676D01*
X161309524Y-50397676D02*
X161404762Y-50302438D01*
X161404762Y-50302438D02*
X161547619Y-50254819D01*
X161547619Y-50254819D02*
X161642857Y-50254819D01*
X161642857Y-50254819D02*
X161785714Y-50302438D01*
X161785714Y-50302438D02*
X161833333Y-50350057D01*
X162738095Y-50254819D02*
X162261905Y-50254819D01*
X162261905Y-50254819D02*
X162214286Y-50731009D01*
X162214286Y-50731009D02*
X162261905Y-50683390D01*
X162261905Y-50683390D02*
X162357143Y-50635771D01*
X162357143Y-50635771D02*
X162595238Y-50635771D01*
X162595238Y-50635771D02*
X162690476Y-50683390D01*
X162690476Y-50683390D02*
X162738095Y-50731009D01*
X162738095Y-50731009D02*
X162785714Y-50826247D01*
X162785714Y-50826247D02*
X162785714Y-51064342D01*
X162785714Y-51064342D02*
X162738095Y-51159580D01*
X162738095Y-51159580D02*
X162690476Y-51207200D01*
X162690476Y-51207200D02*
X162595238Y-51254819D01*
X162595238Y-51254819D02*
X162357143Y-51254819D01*
X162357143Y-51254819D02*
X162261905Y-51207200D01*
X162261905Y-51207200D02*
X162214286Y-51159580D01*
D14*
X122260029Y-78326651D02*
X122260029Y-78581619D01*
X122260029Y-78581619D02*
X122275027Y-78611615D01*
X122275027Y-78611615D02*
X122290026Y-78626614D01*
X122290026Y-78626614D02*
X122320022Y-78641612D01*
X122320022Y-78641612D02*
X122380014Y-78641612D01*
X122380014Y-78641612D02*
X122410011Y-78626614D01*
X122410011Y-78626614D02*
X122425009Y-78611615D01*
X122425009Y-78611615D02*
X122440007Y-78581619D01*
X122440007Y-78581619D02*
X122440007Y-78326651D01*
X122724972Y-78431638D02*
X122724972Y-78641612D01*
X122649981Y-78311653D02*
X122574990Y-78536625D01*
X122574990Y-78536625D02*
X122769966Y-78536625D01*
D11*
X123873333Y-70534819D02*
X123540000Y-70058628D01*
X123301905Y-70534819D02*
X123301905Y-69534819D01*
X123301905Y-69534819D02*
X123682857Y-69534819D01*
X123682857Y-69534819D02*
X123778095Y-69582438D01*
X123778095Y-69582438D02*
X123825714Y-69630057D01*
X123825714Y-69630057D02*
X123873333Y-69725295D01*
X123873333Y-69725295D02*
X123873333Y-69868152D01*
X123873333Y-69868152D02*
X123825714Y-69963390D01*
X123825714Y-69963390D02*
X123778095Y-70011009D01*
X123778095Y-70011009D02*
X123682857Y-70058628D01*
X123682857Y-70058628D02*
X123301905Y-70058628D01*
X124206667Y-69534819D02*
X124825714Y-69534819D01*
X124825714Y-69534819D02*
X124492381Y-69915771D01*
X124492381Y-69915771D02*
X124635238Y-69915771D01*
X124635238Y-69915771D02*
X124730476Y-69963390D01*
X124730476Y-69963390D02*
X124778095Y-70011009D01*
X124778095Y-70011009D02*
X124825714Y-70106247D01*
X124825714Y-70106247D02*
X124825714Y-70344342D01*
X124825714Y-70344342D02*
X124778095Y-70439580D01*
X124778095Y-70439580D02*
X124730476Y-70487200D01*
X124730476Y-70487200D02*
X124635238Y-70534819D01*
X124635238Y-70534819D02*
X124349524Y-70534819D01*
X124349524Y-70534819D02*
X124254286Y-70487200D01*
X124254286Y-70487200D02*
X124206667Y-70439580D01*
X119374819Y-89601666D02*
X118898628Y-89934999D01*
X119374819Y-90173094D02*
X118374819Y-90173094D01*
X118374819Y-90173094D02*
X118374819Y-89792142D01*
X118374819Y-89792142D02*
X118422438Y-89696904D01*
X118422438Y-89696904D02*
X118470057Y-89649285D01*
X118470057Y-89649285D02*
X118565295Y-89601666D01*
X118565295Y-89601666D02*
X118708152Y-89601666D01*
X118708152Y-89601666D02*
X118803390Y-89649285D01*
X118803390Y-89649285D02*
X118851009Y-89696904D01*
X118851009Y-89696904D02*
X118898628Y-89792142D01*
X118898628Y-89792142D02*
X118898628Y-90173094D01*
X119374819Y-88649285D02*
X119374819Y-89220713D01*
X119374819Y-88934999D02*
X118374819Y-88934999D01*
X118374819Y-88934999D02*
X118517676Y-89030237D01*
X118517676Y-89030237D02*
X118612914Y-89125475D01*
X118612914Y-89125475D02*
X118660533Y-89220713D01*
%TO.C,U8*%
D10*
X129500000Y-65540000D02*
X139000000Y-65540000D01*
X139000000Y-52540000D01*
X129500000Y-52540000D01*
X129500000Y-65540000D01*
D15*
%TO.C,J1*%
X126610000Y-96130000D02*
X127940000Y-96130000D01*
X126610000Y-97460000D02*
X126610000Y-96130000D01*
X129210000Y-96130000D02*
X147050000Y-96130000D01*
X129210000Y-98790000D02*
X129210000Y-96130000D01*
X129210000Y-98790000D02*
X147050000Y-98790000D01*
X147050000Y-98790000D02*
X147050000Y-96130000D01*
%TO.C,J3*%
X149470000Y-96130000D02*
X150800000Y-96130000D01*
X149470000Y-97460000D02*
X149470000Y-96130000D01*
X152070000Y-96130000D02*
X164830000Y-96130000D01*
X152070000Y-98790000D02*
X152070000Y-96130000D01*
X152070000Y-98790000D02*
X164830000Y-98790000D01*
X164830000Y-98790000D02*
X164830000Y-96130000D01*
%TO.C,J2*%
X117466000Y-47870000D02*
X118796000Y-47870000D01*
X117466000Y-49200000D02*
X117466000Y-47870000D01*
X120066000Y-47870000D02*
X142986000Y-47870000D01*
X120066000Y-50530000D02*
X120066000Y-47870000D01*
X120066000Y-50530000D02*
X142986000Y-50530000D01*
X142986000Y-50530000D02*
X142986000Y-47870000D01*
%TO.C,J4*%
X144390000Y-47870000D02*
X145720000Y-47870000D01*
X144390000Y-49200000D02*
X144390000Y-47870000D01*
X146990000Y-47870000D02*
X164830000Y-47870000D01*
X146990000Y-50530000D02*
X146990000Y-47870000D01*
X146990000Y-50530000D02*
X164830000Y-50530000D01*
X164830000Y-50530000D02*
X164830000Y-47870000D01*
%TO.C,C1*%
X109930000Y-87345000D02*
X109945000Y-87345000D01*
X109930000Y-91885000D02*
X109930000Y-87345000D01*
X109930000Y-91885000D02*
X109945000Y-91885000D01*
X112055000Y-87345000D02*
X112070000Y-87345000D01*
X112055000Y-91885000D02*
X112070000Y-91885000D01*
X112070000Y-91885000D02*
X112070000Y-87345000D01*
%TO.C,U2*%
D10*
X149730000Y-89500000D02*
X158730000Y-89500000D01*
X158730000Y-95500000D01*
X149730000Y-95500000D01*
X149730000Y-89500000D01*
%TO.C,U3*%
X98000000Y-86270000D02*
X106000000Y-86270000D01*
X106000000Y-79270000D01*
X98000000Y-79270000D01*
X98000000Y-86270000D01*
%TO.C,U5*%
X162000000Y-96500000D02*
X190000000Y-96500000D01*
X190000000Y-68500000D01*
X162000000Y-68500000D01*
X162000000Y-96500000D01*
%TO.C,U1*%
D12*
X153500000Y-54500000D02*
X146500000Y-54500000D01*
X146500000Y-71000000D01*
X153500000Y-71000000D01*
X153500000Y-54500000D01*
%TO.C,U7*%
X179500000Y-55000000D02*
X157500000Y-55000000D01*
X157500000Y-70000000D01*
X179500000Y-70000000D01*
X179500000Y-55000000D01*
D15*
%TO.C,R5*%
X109080000Y-80695000D02*
X112920000Y-80695000D01*
X109080000Y-82535000D02*
X112920000Y-82535000D01*
%TO.C,R7*%
X152080000Y-88460000D02*
X152080000Y-84620000D01*
X153920000Y-88460000D02*
X153920000Y-84620000D01*
%TO.C,R6*%
X132730000Y-87630000D02*
X139270000Y-87630000D01*
X132730000Y-87960000D02*
X132730000Y-87630000D01*
X132730000Y-90040000D02*
X132730000Y-90370000D01*
X132730000Y-90370000D02*
X139270000Y-90370000D01*
X139270000Y-87630000D02*
X139270000Y-87960000D01*
X139270000Y-90370000D02*
X139270000Y-90040000D01*
%TO.C,C2*%
X141930000Y-88230000D02*
X141945000Y-88230000D01*
X141930000Y-92770000D02*
X141930000Y-88230000D01*
X141930000Y-92770000D02*
X141945000Y-92770000D01*
X144055000Y-88230000D02*
X144070000Y-88230000D01*
X144055000Y-92770000D02*
X144070000Y-92770000D01*
X144070000Y-92770000D02*
X144070000Y-88230000D01*
%TO.C,C4*%
X120380000Y-74130000D02*
X120380000Y-78870000D01*
X120380000Y-74130000D02*
X127620000Y-74130000D01*
X120380000Y-78870000D02*
X127620000Y-78870000D01*
X127620000Y-74130000D02*
X127620000Y-78870000D01*
%TO.C,U6*%
D10*
X102690000Y-56310000D02*
X126690000Y-56310000D01*
X126690000Y-69810000D01*
X102690000Y-69810000D01*
X102690000Y-56310000D01*
D15*
%TO.C,C5*%
X159730000Y-51930000D02*
X159730000Y-51945000D01*
X159730000Y-51930000D02*
X164270000Y-51930000D01*
X159730000Y-54055000D02*
X159730000Y-54070000D01*
X159730000Y-54070000D02*
X164270000Y-54070000D01*
X164270000Y-51930000D02*
X164270000Y-51945000D01*
X164270000Y-54055000D02*
X164270000Y-54070000D01*
D16*
%TO.C,U4*%
X121444000Y-80408000D02*
X121444000Y-80763600D01*
X121444000Y-90415600D02*
X121444000Y-90822000D01*
X121444000Y-90822000D02*
X128556000Y-90822000D01*
X128556000Y-80408000D02*
X121444000Y-80408000D01*
X128556000Y-80814400D02*
X128556000Y-80408000D01*
X128556000Y-90822000D02*
X128556000Y-90415600D01*
D15*
%TO.C,R3*%
X122120000Y-71080000D02*
X125960000Y-71080000D01*
X122120000Y-72920000D02*
X125960000Y-72920000D01*
%TO.C,R1*%
X116080000Y-87515000D02*
X116080000Y-91355000D01*
X117920000Y-87515000D02*
X117920000Y-91355000D01*
%TD*%
M02*
