%TF.GenerationSoftware,KiCad,Pcbnew,9.0.0*%
%TF.CreationDate,2025-03-18T21:40:51+01:00*%
%TF.ProjectId,Capteur_KICAD,43617074-6575-4725-9f4b-494341442e6b,rev?*%
%TF.SameCoordinates,Original*%
%TF.FileFunction,Copper,L2,Bot*%
%TF.FilePolarity,Positive*%
%FSLAX46Y46*%
G04 Gerber Fmt 4.6, Leading zero omitted, Abs format (unit mm)*
G04 Created by KiCad (PCBNEW 9.0.0) date 2025-03-18 21:40:51*
%MOMM*%
%LPD*%
G01*
G04 APERTURE LIST*
G04 Aperture macros list*
%AMRoundRect*
0 Rectangle with rounded corners*
0 $1 Rounding radius*
0 $2 $3 $4 $5 $6 $7 $8 $9 X,Y pos of 4 corners*
0 Add a 4 corners polygon primitive as box body*
4,1,4,$2,$3,$4,$5,$6,$7,$8,$9,$2,$3,0*
0 Add four circle primitives for the rounded corners*
1,1,$1+$1,$2,$3*
1,1,$1+$1,$4,$5*
1,1,$1+$1,$6,$7*
1,1,$1+$1,$8,$9*
0 Add four rect primitives between the rounded corners*
20,1,$1+$1,$2,$3,$4,$5,0*
20,1,$1+$1,$4,$5,$6,$7,0*
20,1,$1+$1,$6,$7,$8,$9,0*
20,1,$1+$1,$8,$9,$2,$3,0*%
G04 Aperture macros list end*
%TA.AperFunction,ComponentPad*%
%ADD10O,2.540000X2.000000*%
%TD*%
%TA.AperFunction,ComponentPad*%
%ADD11RoundRect,0.381000X0.889000X-0.889000X0.889000X0.889000X-0.889000X0.889000X-0.889000X-0.889000X0*%
%TD*%
%TA.AperFunction,ComponentPad*%
%ADD12R,1.700000X1.700000*%
%TD*%
%TA.AperFunction,ComponentPad*%
%ADD13O,1.700000X1.700000*%
%TD*%
%TA.AperFunction,ComponentPad*%
%ADD14C,1.600000*%
%TD*%
%TA.AperFunction,ComponentPad*%
%ADD15R,2.000000X2.000000*%
%TD*%
%TA.AperFunction,ComponentPad*%
%ADD16C,2.000000*%
%TD*%
%TA.AperFunction,ComponentPad*%
%ADD17R,2.540000X2.540000*%
%TD*%
%TA.AperFunction,ComponentPad*%
%ADD18RoundRect,0.381000X-0.889000X0.889000X-0.889000X-0.889000X0.889000X-0.889000X0.889000X0.889000X0*%
%TD*%
%TA.AperFunction,ComponentPad*%
%ADD19C,1.400000*%
%TD*%
%TA.AperFunction,ComponentPad*%
%ADD20O,1.400000X1.400000*%
%TD*%
%TA.AperFunction,ComponentPad*%
%ADD21O,1.600000X1.600000*%
%TD*%
%TA.AperFunction,ComponentPad*%
%ADD22R,2.540000X2.000000*%
%TD*%
%TA.AperFunction,ComponentPad*%
%ADD23R,1.397000X1.397000*%
%TD*%
%TA.AperFunction,ComponentPad*%
%ADD24C,1.397000*%
%TD*%
%TA.AperFunction,ViaPad*%
%ADD25C,1.600000*%
%TD*%
%TA.AperFunction,Conductor*%
%ADD26C,0.500000*%
%TD*%
G04 APERTURE END LIST*
D10*
%TO.P,U8,3,PWM*%
%TO.N,9*%
X137000000Y-56500000D03*
%TO.P,U8,2,5V*%
%TO.N,+5V*%
X137000000Y-59040000D03*
D11*
%TO.P,U8,1,GND*%
%TO.N,GND*%
X137000000Y-61580000D03*
%TD*%
D12*
%TO.P,J1,1,Pin_1*%
%TO.N,unconnected-(J1-Pin_1-Pad1)*%
X127940000Y-97460000D03*
D13*
%TO.P,J1,2,Pin_2*%
%TO.N,/IOREF*%
X130480000Y-97460000D03*
%TO.P,J1,3,Pin_3*%
%TO.N,/~{RESET}*%
X133020000Y-97460000D03*
%TO.P,J1,4,Pin_4*%
%TO.N,+3V3*%
X135560000Y-97460000D03*
%TO.P,J1,5,Pin_5*%
%TO.N,+5V*%
X138100000Y-97460000D03*
%TO.P,J1,6,Pin_6*%
%TO.N,GND*%
X140640000Y-97460000D03*
%TO.P,J1,7,Pin_7*%
X143180000Y-97460000D03*
%TO.P,J1,8,Pin_8*%
%TO.N,VCC*%
X145720000Y-97460000D03*
%TD*%
D12*
%TO.P,J3,1,Pin_1*%
%TO.N,A0*%
X150800000Y-97460000D03*
D13*
%TO.P,J3,2,Pin_2*%
%TO.N,/A1*%
X153340000Y-97460000D03*
%TO.P,J3,3,Pin_3*%
%TO.N,A2*%
X155880000Y-97460000D03*
%TO.P,J3,4,Pin_4*%
%TO.N,/A3*%
X158420000Y-97460000D03*
%TO.P,J3,5,Pin_5*%
%TO.N,A4*%
X160960000Y-97460000D03*
%TO.P,J3,6,Pin_6*%
%TO.N,A5*%
X163500000Y-97460000D03*
%TD*%
D12*
%TO.P,J2,1,Pin_1*%
%TO.N,A5*%
X118796000Y-49200000D03*
D13*
%TO.P,J2,2,Pin_2*%
%TO.N,A4*%
X121336000Y-49200000D03*
%TO.P,J2,3,Pin_3*%
%TO.N,/AREF*%
X123876000Y-49200000D03*
%TO.P,J2,4,Pin_4*%
%TO.N,GND*%
X126416000Y-49200000D03*
%TO.P,J2,5,Pin_5*%
%TO.N,13*%
X128956000Y-49200000D03*
%TO.P,J2,6,Pin_6*%
%TO.N,12*%
X131496000Y-49200000D03*
%TO.P,J2,7,Pin_7*%
%TO.N,11*%
X134036000Y-49200000D03*
%TO.P,J2,8,Pin_8*%
%TO.N,10*%
X136576000Y-49200000D03*
%TO.P,J2,9,Pin_9*%
%TO.N,9*%
X139116000Y-49200000D03*
%TO.P,J2,10,Pin_10*%
%TO.N,8*%
X141656000Y-49200000D03*
%TD*%
D12*
%TO.P,J4,1,Pin_1*%
%TO.N,7*%
X145720000Y-49200000D03*
D13*
%TO.P,J4,2,Pin_2*%
%TO.N,6*%
X148260000Y-49200000D03*
%TO.P,J4,3,Pin_3*%
%TO.N,5*%
X150800000Y-49200000D03*
%TO.P,J4,4,Pin_4*%
%TO.N,4*%
X153340000Y-49200000D03*
%TO.P,J4,5,Pin_5*%
%TO.N,3*%
X155880000Y-49200000D03*
%TO.P,J4,6,Pin_6*%
%TO.N,2*%
X158420000Y-49200000D03*
%TO.P,J4,7,Pin_7*%
%TO.N,/TX{slash}1*%
X160960000Y-49200000D03*
%TO.P,J4,8,Pin_8*%
%TO.N,/RX{slash}0*%
X163500000Y-49200000D03*
%TD*%
D14*
%TO.P,C1,1*%
%TO.N,GND*%
X111000000Y-92115000D03*
%TO.P,C1,2*%
%TO.N,Net-(U4-+IN)*%
X111000000Y-87115000D03*
%TD*%
D15*
%TO.P,U2,1,V+*%
%TO.N,A2*%
X152960000Y-92000000D03*
D16*
%TO.P,U2,2,V-*%
%TO.N,GND*%
X155500000Y-92000000D03*
%TD*%
D17*
%TO.P,U3,1,+*%
%TO.N,+5V*%
X104000000Y-84040000D03*
D10*
%TO.P,U3,2,-*%
%TO.N,Net-(U3--)*%
X104000000Y-81500000D03*
%TD*%
D15*
%TO.P,U5,1,GND*%
%TO.N,GND*%
X163500000Y-85250000D03*
D16*
%TO.P,U5,2,VCC*%
%TO.N,+5V*%
X163500000Y-82750000D03*
%TO.P,U5,3,SCL*%
%TO.N,A5*%
X163500000Y-80250000D03*
%TO.P,U5,4,SDA*%
%TO.N,A4*%
X163500000Y-77750000D03*
%TD*%
D17*
%TO.P,U1,1,Key*%
%TO.N,unconnected-(U1-Key-Pad1)*%
X148500000Y-56500000D03*
D10*
%TO.P,U1,2,VCC*%
%TO.N,+5V*%
X148500000Y-59000000D03*
%TO.P,U1,3,GND*%
%TO.N,GND*%
X148500000Y-61500000D03*
%TO.P,U1,4,TXD*%
%TO.N,5*%
X148500000Y-64000000D03*
%TO.P,U1,5,RXD*%
%TO.N,6*%
X148500000Y-66500000D03*
%TO.P,U1,6,STATE*%
%TO.N,unconnected-(U1-STATE-Pad6)*%
X148500000Y-69000000D03*
%TD*%
D18*
%TO.P,U7,1,CLK*%
%TO.N,2*%
X159500000Y-57500000D03*
D10*
%TO.P,U7,2,DT*%
%TO.N,3*%
X159500000Y-60040000D03*
%TO.P,U7,3,SW*%
%TO.N,4*%
X159500000Y-62580000D03*
%TO.P,U7,4,+*%
%TO.N,+5V*%
X159500000Y-65120000D03*
%TO.P,U7,5,GND*%
%TO.N,GND*%
X159500000Y-67660000D03*
%TD*%
D19*
%TO.P,R5,1*%
%TO.N,Net-(U3--)*%
X108460000Y-81615000D03*
D20*
%TO.P,R5,2*%
%TO.N,Net-(U4-+IN)*%
X113540000Y-81615000D03*
%TD*%
D19*
%TO.P,R7,1*%
%TO.N,A2*%
X153000000Y-89080000D03*
D20*
%TO.P,R7,2*%
%TO.N,+5V*%
X153000000Y-84000000D03*
%TD*%
D14*
%TO.P,R6,1*%
%TO.N,Net-(U4-OUT)*%
X132190000Y-89000000D03*
D21*
%TO.P,R6,2*%
%TO.N,A0*%
X139810000Y-89000000D03*
%TD*%
D14*
%TO.P,C2,1*%
%TO.N,GND*%
X143000000Y-93000000D03*
%TO.P,C2,2*%
%TO.N,A0*%
X143000000Y-88000000D03*
%TD*%
%TO.P,C4,1*%
%TO.N,Net-(U4--IN)*%
X121500000Y-76500000D03*
%TO.P,C4,2*%
%TO.N,Net-(U4-OUT)*%
X126500000Y-76500000D03*
%TD*%
D22*
%TO.P,U6,1,CS*%
%TO.N,10*%
X110880000Y-60000000D03*
D10*
%TO.P,U6,2,SCK*%
%TO.N,13*%
X110880000Y-62540000D03*
%TO.P,U6,3,SDI/SDO*%
%TO.N,11*%
X110880000Y-65080000D03*
%TO.P,U6,4,Vss*%
%TO.N,GND*%
X110880000Y-67620000D03*
%TO.P,U6,5,P0A*%
X118500000Y-67620000D03*
%TO.P,U6,6,P0W*%
X118500000Y-65080000D03*
%TO.P,U6,7,P0B*%
%TO.N,Net-(U4--IN)*%
X118500000Y-62540000D03*
%TO.P,U6,8,Vdd*%
%TO.N,+5V*%
X118500000Y-60000000D03*
%TD*%
D14*
%TO.P,C5,1*%
%TO.N,2*%
X159500000Y-53000000D03*
%TO.P,C5,2*%
%TO.N,GND*%
X164500000Y-53000000D03*
%TD*%
D23*
%TO.P,U4,1,NC*%
%TO.N,unconnected-(U4-NC-Pad1)*%
X121190000Y-81805000D03*
D24*
%TO.P,U4,2,-IN*%
%TO.N,Net-(U4--IN)*%
X121190000Y-84345000D03*
%TO.P,U4,3,+IN*%
%TO.N,Net-(U4-+IN)*%
X121190000Y-86885000D03*
%TO.P,U4,4,V-*%
%TO.N,GND*%
X121190000Y-89425000D03*
%TO.P,U4,5,EXT_CLOCK_INPUT*%
%TO.N,unconnected-(U4-EXT_CLOCK_INPUT-Pad5)*%
X128810000Y-89425000D03*
%TO.P,U4,6,OUT*%
%TO.N,Net-(U4-OUT)*%
X128810000Y-86885000D03*
%TO.P,U4,7,V+*%
%TO.N,+5V*%
X128810000Y-84345000D03*
%TO.P,U4,8,NC*%
%TO.N,unconnected-(U4-NC-Pad8)*%
X128810000Y-81805000D03*
%TD*%
D19*
%TO.P,R3,1*%
%TO.N,Net-(U4--IN)*%
X121500000Y-72000000D03*
D20*
%TO.P,R3,2*%
%TO.N,Net-(U4-OUT)*%
X126580000Y-72000000D03*
%TD*%
D19*
%TO.P,R1,1*%
%TO.N,Net-(U4-+IN)*%
X117000000Y-86895000D03*
D20*
%TO.P,R1,2*%
%TO.N,GND*%
X117000000Y-91975000D03*
%TD*%
D25*
%TO.N,10*%
X118500000Y-56000000D03*
X111000000Y-55949000D03*
%TD*%
D26*
%TO.N,11*%
X129234000Y-54000000D02*
X129235000Y-54001000D01*
X114000000Y-54000000D02*
X129234000Y-54000000D01*
%TO.N,10*%
X129649628Y-55002000D02*
X119498000Y-55002000D01*
X119498000Y-55002000D02*
X118500000Y-56000000D01*
X133575814Y-51075814D02*
X129649628Y-55002000D01*
X136576000Y-49200000D02*
X134700186Y-51075814D01*
X134700186Y-51075814D02*
X133575814Y-51075814D01*
%TO.N,3*%
X159500000Y-60040000D02*
X158661110Y-60040000D01*
X158661110Y-60040000D02*
X157479000Y-58857890D01*
X157479000Y-58857890D02*
X157479000Y-50799000D01*
X157479000Y-50799000D02*
X155880000Y-49200000D01*
%TO.N,+5V*%
X124960000Y-59040000D02*
X124000000Y-60000000D01*
X137000000Y-59040000D02*
X124960000Y-59040000D01*
X157479000Y-69252712D02*
X164225288Y-75999000D01*
X157479000Y-65911000D02*
X157479000Y-69252712D01*
X158270000Y-65120000D02*
X157479000Y-65911000D01*
X159500000Y-65120000D02*
X158270000Y-65120000D01*
%TO.N,GND*%
X159500000Y-67660000D02*
X164660000Y-67660000D01*
%TO.N,+5V*%
X159500000Y-65120000D02*
X160120000Y-65120000D01*
X154298084Y-59000000D02*
X148500000Y-59000000D01*
X157399042Y-62100958D02*
X154298084Y-59000000D01*
X157399042Y-64249042D02*
X157399042Y-62100958D01*
X158270000Y-65120000D02*
X157399042Y-64249042D01*
%TO.N,4*%
X156478000Y-52338000D02*
X153340000Y-49200000D01*
X156478000Y-59764288D02*
X156478000Y-52338000D01*
X159293712Y-62580000D02*
X156478000Y-59764288D01*
X159500000Y-62580000D02*
X159293712Y-62580000D01*
%TO.N,GND*%
X163689000Y-66689000D02*
X164660000Y-67660000D01*
X163689000Y-53811000D02*
X163689000Y-66689000D01*
X164500000Y-53000000D02*
X163689000Y-53811000D01*
%TO.N,2*%
X159500000Y-53000000D02*
X159500000Y-57500000D01*
%TO.N,GND*%
X166252000Y-69252000D02*
X164660000Y-67660000D01*
X166252000Y-82498000D02*
X166252000Y-69252000D01*
X163500000Y-85250000D02*
X166252000Y-82498000D01*
%TO.N,+5V*%
X159000000Y-84000000D02*
X153000000Y-84000000D01*
X159500000Y-83500000D02*
X159000000Y-84000000D01*
X161500000Y-77273712D02*
X161500000Y-78334372D01*
X162774712Y-75999000D02*
X161500000Y-77273712D01*
X164225288Y-75999000D02*
X162774712Y-75999000D01*
X165251000Y-77024712D02*
X164225288Y-75999000D01*
X161500000Y-78334372D02*
X159500000Y-80334372D01*
X165251000Y-80999000D02*
X165251000Y-77024712D01*
X159500000Y-80334372D02*
X159500000Y-83500000D01*
X163500000Y-82750000D02*
X165251000Y-80999000D01*
%TO.N,A4*%
X160500000Y-80750000D02*
X163500000Y-77750000D01*
X160500000Y-97000000D02*
X160500000Y-80750000D01*
X160960000Y-97460000D02*
X160500000Y-97000000D01*
%TO.N,A5*%
X161749000Y-95709000D02*
X163500000Y-97460000D01*
X163500000Y-80250000D02*
X161749000Y-82001000D01*
X161749000Y-82001000D02*
X161749000Y-95709000D01*
%TO.N,GND*%
X163500000Y-87000000D02*
X163500000Y-85250000D01*
X163500000Y-95195844D02*
X163500000Y-87000000D01*
%TO.N,11*%
X129235000Y-54001000D02*
X134036000Y-49200000D01*
X111420000Y-65080000D02*
X113000000Y-63500000D01*
X113000000Y-55000000D02*
X114000000Y-54000000D01*
X114000000Y-54000000D02*
X114001000Y-54001000D01*
X110880000Y-65080000D02*
X111420000Y-65080000D01*
X113000000Y-63500000D02*
X113000000Y-55000000D01*
%TO.N,GND*%
X140000000Y-51000000D02*
X142120156Y-51000000D01*
X139000000Y-52000000D02*
X140000000Y-51000000D01*
X139021000Y-52021000D02*
X139000000Y-52000000D01*
X139021000Y-60829000D02*
X139021000Y-52021000D01*
X142319156Y-47599000D02*
X128017000Y-47599000D01*
X142120156Y-51000000D02*
X143257000Y-49863156D01*
X143257000Y-49863156D02*
X143257000Y-48536844D01*
X128017000Y-47599000D02*
X126416000Y-49200000D01*
X143257000Y-48536844D02*
X142319156Y-47599000D01*
X138270000Y-61580000D02*
X139021000Y-60829000D01*
X137000000Y-61580000D02*
X138270000Y-61580000D01*
X147504712Y-70751000D02*
X138333712Y-61580000D01*
X138333712Y-61580000D02*
X137000000Y-61580000D01*
X150521000Y-69725288D02*
X149495288Y-70751000D01*
X149495288Y-70751000D02*
X147504712Y-70751000D01*
%TO.N,9*%
X137000000Y-51316000D02*
X137000000Y-56500000D01*
X139116000Y-49200000D02*
X137000000Y-51316000D01*
%TO.N,GND*%
X150521000Y-63274712D02*
X150521000Y-69725288D01*
X148746288Y-61500000D02*
X150521000Y-63274712D01*
X118500000Y-65080000D02*
X118500000Y-67620000D01*
X118500000Y-67620000D02*
X110880000Y-67620000D01*
X143000000Y-93000000D02*
X143000000Y-97280000D01*
X110880000Y-67620000D02*
X109584288Y-67620000D01*
X139000000Y-93000000D02*
X117000000Y-93000000D01*
X138259000Y-88357554D02*
X138259000Y-92259000D01*
X155500000Y-89527976D02*
X152421024Y-86449000D01*
X144781000Y-99061000D02*
X164163156Y-99061000D01*
X110084372Y-52000000D02*
X123616000Y-52000000D01*
X155880000Y-92120000D02*
X156000000Y-92000000D01*
X143000000Y-93000000D02*
X139000000Y-93000000D01*
X148500000Y-61500000D02*
X148746288Y-61500000D01*
X143180000Y-97460000D02*
X144781000Y-99061000D01*
X164163156Y-99061000D02*
X165101000Y-98123156D01*
X111885000Y-93000000D02*
X111000000Y-92115000D01*
X152421024Y-86449000D02*
X140167554Y-86449000D01*
X165101000Y-96796844D02*
X163500000Y-95195844D01*
X164500000Y-53000000D02*
X165000000Y-53000000D01*
X117000000Y-91975000D02*
X117000000Y-93000000D01*
X155500000Y-92000000D02*
X155500000Y-89527976D01*
X140167554Y-86449000D02*
X138259000Y-88357554D01*
X165101000Y-98123156D02*
X165101000Y-96796844D01*
X107858000Y-54226372D02*
X110084372Y-52000000D01*
X143000000Y-97280000D02*
X143180000Y-97460000D01*
X138259000Y-92259000D02*
X139000000Y-93000000D01*
X109584288Y-67620000D02*
X107858000Y-65893712D01*
X107858000Y-65893712D02*
X107858000Y-54226372D01*
X117000000Y-93000000D02*
X111885000Y-93000000D01*
X126416000Y-49200000D02*
X123616000Y-52000000D01*
%TO.N,+5V*%
X119500000Y-91500000D02*
X125500000Y-91500000D01*
X138100000Y-97460000D02*
X138040000Y-97460000D01*
X105000000Y-94500000D02*
X104000000Y-93500000D01*
X104000000Y-93500000D02*
X104000000Y-91500000D01*
X135000000Y-87000000D02*
X135000000Y-85000000D01*
X124000000Y-90000000D02*
X124000000Y-60000000D01*
X138100000Y-95100000D02*
X137500000Y-94500000D01*
X124000000Y-60000000D02*
X118500000Y-60000000D01*
X118500000Y-90500000D02*
X119500000Y-91500000D01*
X137500000Y-94500000D02*
X105000000Y-94500000D01*
X128810000Y-84345000D02*
X131465000Y-87000000D01*
X104000000Y-91500000D02*
X105000000Y-90500000D01*
X132000000Y-91500000D02*
X135000000Y-88500000D01*
X135000000Y-88500000D02*
X135000000Y-87000000D01*
X125500000Y-91500000D02*
X132000000Y-91500000D01*
X104000000Y-91500000D02*
X104000000Y-84040000D01*
X135000000Y-85000000D02*
X136000000Y-84000000D01*
X138040000Y-97460000D02*
X138000000Y-97500000D01*
X138100000Y-97460000D02*
X138100000Y-95100000D01*
X131465000Y-87000000D02*
X135000000Y-87000000D01*
X136000000Y-84000000D02*
X153000000Y-84000000D01*
X160500000Y-65120000D02*
X159270000Y-65120000D01*
X105000000Y-90500000D02*
X118500000Y-90500000D01*
X125500000Y-91500000D02*
X124000000Y-90000000D01*
%TO.N,Net-(U4-+IN)*%
X113540000Y-81615000D02*
X113540000Y-85575000D01*
X113540000Y-85575000D02*
X112000000Y-87115000D01*
X111000000Y-87115000D02*
X112000000Y-87115000D01*
X112000000Y-87115000D02*
X116780000Y-87115000D01*
X121180000Y-86895000D02*
X121190000Y-86885000D01*
X116780000Y-87115000D02*
X117000000Y-86895000D01*
X117000000Y-86895000D02*
X121180000Y-86895000D01*
%TO.N,A0*%
X150800000Y-97460000D02*
X150800000Y-95800000D01*
X142000000Y-89000000D02*
X143000000Y-88000000D01*
X139810000Y-89000000D02*
X142000000Y-89000000D01*
X150800000Y-95800000D02*
X143000000Y-88000000D01*
%TO.N,Net-(U4--IN)*%
X119740500Y-78259500D02*
X121500000Y-76500000D01*
X118500000Y-62540000D02*
X118770000Y-62540000D01*
X119740500Y-82895500D02*
X119740500Y-78259500D01*
X121190000Y-84345000D02*
X119740500Y-82895500D01*
X118770000Y-62540000D02*
X121500000Y-65270000D01*
X121500000Y-65270000D02*
X121500000Y-72000000D01*
X121500000Y-76500000D02*
X121500000Y-72000000D01*
%TO.N,11*%
X111000000Y-65000000D02*
X111605628Y-65000000D01*
X110880000Y-65080000D02*
X110920000Y-65080000D01*
X110920000Y-65080000D02*
X111000000Y-65000000D01*
%TO.N,13*%
X108859000Y-54641000D02*
X108859000Y-62289000D01*
X125156000Y-53000000D02*
X110500000Y-53000000D01*
X109110000Y-62540000D02*
X110880000Y-62540000D01*
X110500000Y-53000000D02*
X108859000Y-54641000D01*
X108859000Y-62289000D02*
X109110000Y-62540000D01*
X128956000Y-49200000D02*
X125156000Y-53000000D01*
%TO.N,10*%
X111000000Y-59880000D02*
X110880000Y-60000000D01*
X111000000Y-55500000D02*
X111000000Y-59880000D01*
%TO.N,9*%
X139116000Y-49200000D02*
X139116000Y-49384000D01*
X139116000Y-49384000D02*
X139000000Y-49500000D01*
%TO.N,6*%
X148500000Y-66500000D02*
X147270000Y-66500000D01*
X147270000Y-66500000D02*
X145478000Y-64708000D01*
X145478000Y-52644000D02*
X148260000Y-49862000D01*
X148260000Y-49862000D02*
X148260000Y-49200000D01*
X145478000Y-64708000D02*
X145478000Y-52644000D01*
%TO.N,4*%
X160080000Y-62580000D02*
X160500000Y-62580000D01*
%TO.N,5*%
X146479000Y-53521000D02*
X150800000Y-49200000D01*
X146479000Y-63209000D02*
X146479000Y-53521000D01*
X147270000Y-64000000D02*
X146479000Y-63209000D01*
X148500000Y-64000000D02*
X147270000Y-64000000D01*
%TO.N,Net-(U3--)*%
X104115000Y-81615000D02*
X104000000Y-81500000D01*
X108460000Y-81615000D02*
X104115000Y-81615000D01*
%TO.N,Net-(U4-OUT)*%
X126500000Y-76500000D02*
X126500000Y-72080000D01*
X132190000Y-89000000D02*
X130925000Y-89000000D01*
X128810000Y-86885000D02*
X126500000Y-84575000D01*
X126500000Y-84575000D02*
X126500000Y-76500000D01*
X130925000Y-89000000D02*
X128810000Y-86885000D01*
X126500000Y-72080000D02*
X126580000Y-72000000D01*
%TO.N,A2*%
X153000000Y-92000000D02*
X153000000Y-93120000D01*
X153000000Y-93120000D02*
X155880000Y-96000000D01*
X153000000Y-89080000D02*
X153000000Y-92000000D01*
X155880000Y-97460000D02*
X155880000Y-96000000D01*
%TO.N,2*%
X158500000Y-49000000D02*
X159500000Y-50000000D01*
X158420000Y-49080000D02*
X158500000Y-49000000D01*
X158420000Y-49200000D02*
X158420000Y-49080000D01*
X159500000Y-50000000D02*
X159500000Y-53000000D01*
%TD*%
%TA.AperFunction,Conductor*%
%TO.N,GND*%
G36*
X142714075Y-97267007D02*
G01*
X142680000Y-97394174D01*
X142680000Y-97525826D01*
X142714075Y-97652993D01*
X142746988Y-97710000D01*
X141073012Y-97710000D01*
X141105925Y-97652993D01*
X141140000Y-97525826D01*
X141140000Y-97394174D01*
X141105925Y-97267007D01*
X141073012Y-97210000D01*
X142746988Y-97210000D01*
X142714075Y-97267007D01*
G37*
%TD.AperFunction*%
%TA.AperFunction,Conductor*%
G36*
X123184539Y-60778185D02*
G01*
X123230294Y-60830989D01*
X123241500Y-60882500D01*
X123241500Y-90074709D01*
X123270647Y-90221239D01*
X123270649Y-90221247D01*
X123322176Y-90345645D01*
X123327826Y-90359284D01*
X123346148Y-90386705D01*
X123410835Y-90483517D01*
X123457137Y-90529819D01*
X123490622Y-90591142D01*
X123485638Y-90660834D01*
X123443766Y-90716767D01*
X123378302Y-90741184D01*
X123369456Y-90741500D01*
X121762645Y-90741500D01*
X121695606Y-90721815D01*
X121649851Y-90669011D01*
X121639907Y-90599853D01*
X121668932Y-90536297D01*
X121706350Y-90507015D01*
X121818151Y-90450048D01*
X121843255Y-90431808D01*
X121843256Y-90431808D01*
X121274095Y-89862647D01*
X121361571Y-89839208D01*
X121462930Y-89780689D01*
X121545689Y-89697930D01*
X121604208Y-89596571D01*
X121627647Y-89509094D01*
X122196808Y-90078256D01*
X122196808Y-90078255D01*
X122215048Y-90053151D01*
X122300694Y-89885064D01*
X122300695Y-89885061D01*
X122358988Y-89705650D01*
X122388500Y-89519323D01*
X122388500Y-89330676D01*
X122358988Y-89144349D01*
X122300695Y-88964938D01*
X122300694Y-88964935D01*
X122215046Y-88796844D01*
X122196809Y-88771743D01*
X122196808Y-88771743D01*
X121627647Y-89340904D01*
X121604208Y-89253429D01*
X121545689Y-89152070D01*
X121462930Y-89069311D01*
X121361571Y-89010792D01*
X121274094Y-88987352D01*
X121843255Y-88418190D01*
X121843255Y-88418189D01*
X121818153Y-88399952D01*
X121650063Y-88314305D01*
X121650061Y-88314304D01*
X121536477Y-88277399D01*
X121478801Y-88237962D01*
X121451603Y-88173603D01*
X121463518Y-88104757D01*
X121510762Y-88053281D01*
X121536478Y-88041537D01*
X121653321Y-88003573D01*
X121653327Y-88003571D01*
X121694057Y-87982818D01*
X121822606Y-87917319D01*
X121976308Y-87805648D01*
X122110648Y-87671308D01*
X122222319Y-87517606D01*
X122308571Y-87348327D01*
X122367279Y-87167640D01*
X122397000Y-86979993D01*
X122397000Y-86790007D01*
X122367279Y-86602360D01*
X122311016Y-86429197D01*
X122308572Y-86421675D01*
X122308571Y-86421672D01*
X122245468Y-86297827D01*
X122222319Y-86252394D01*
X122110648Y-86098692D01*
X121976308Y-85964352D01*
X121822606Y-85852681D01*
X121794156Y-85838185D01*
X121653327Y-85766428D01*
X121653324Y-85766427D01*
X121550230Y-85732931D01*
X121492555Y-85693494D01*
X121465356Y-85629136D01*
X121477270Y-85560289D01*
X121524514Y-85508813D01*
X121550230Y-85497069D01*
X121653324Y-85463572D01*
X121653327Y-85463571D01*
X121822606Y-85377319D01*
X121976308Y-85265648D01*
X122110648Y-85131308D01*
X122222319Y-84977606D01*
X122308571Y-84808327D01*
X122367279Y-84627640D01*
X122397000Y-84439993D01*
X122397000Y-84250007D01*
X122367279Y-84062360D01*
X122314727Y-83900620D01*
X122308572Y-83881675D01*
X122308571Y-83881672D01*
X122243301Y-83753574D01*
X122222319Y-83712394D01*
X122110648Y-83558692D01*
X121976308Y-83424352D01*
X121822606Y-83312681D01*
X121692688Y-83246484D01*
X121641893Y-83198510D01*
X121625098Y-83130689D01*
X121647635Y-83064554D01*
X121702351Y-83021103D01*
X121748984Y-83012000D01*
X121937138Y-83012000D01*
X121937154Y-83011999D01*
X121964192Y-83009091D01*
X121997701Y-83005489D01*
X122134704Y-82954389D01*
X122251761Y-82866761D01*
X122339389Y-82749704D01*
X122390489Y-82612701D01*
X122396402Y-82557705D01*
X122396999Y-82552154D01*
X122397000Y-82552137D01*
X122397000Y-81057862D01*
X122396999Y-81057845D01*
X122392789Y-81018692D01*
X122390489Y-80997299D01*
X122384636Y-80981608D01*
X122348362Y-80884354D01*
X122339389Y-80860296D01*
X122251761Y-80743239D01*
X122134704Y-80655611D01*
X122117923Y-80649352D01*
X121997703Y-80604511D01*
X121937154Y-80598000D01*
X121937138Y-80598000D01*
X120623000Y-80598000D01*
X120555961Y-80578315D01*
X120510206Y-80525511D01*
X120499000Y-80474000D01*
X120499000Y-78625042D01*
X120518685Y-78558003D01*
X120535315Y-78537365D01*
X121237669Y-77835010D01*
X121298990Y-77801527D01*
X121344742Y-77800220D01*
X121397019Y-77808500D01*
X121397021Y-77808500D01*
X121602980Y-77808500D01*
X121602981Y-77808500D01*
X121806408Y-77776280D01*
X122002290Y-77712634D01*
X122185803Y-77619129D01*
X122352430Y-77498068D01*
X122498068Y-77352430D01*
X122619129Y-77185803D01*
X122712634Y-77002290D01*
X122776280Y-76806408D01*
X122808500Y-76602981D01*
X122808500Y-76397019D01*
X122776280Y-76193592D01*
X122712634Y-75997710D01*
X122712632Y-75997707D01*
X122712632Y-75997705D01*
X122678709Y-75931128D01*
X122619129Y-75814197D01*
X122603661Y-75792908D01*
X122498073Y-75647576D01*
X122498069Y-75647571D01*
X122352432Y-75501934D01*
X122352426Y-75501929D01*
X122309615Y-75470825D01*
X122266949Y-75415495D01*
X122258500Y-75370507D01*
X122258500Y-73001939D01*
X122278185Y-72934900D01*
X122294819Y-72914258D01*
X122338500Y-72870577D01*
X122421792Y-72787285D01*
X122533602Y-72633392D01*
X122619961Y-72463903D01*
X122678743Y-72282991D01*
X122708500Y-72095116D01*
X122708500Y-71904883D01*
X122678743Y-71717008D01*
X122619959Y-71536092D01*
X122533601Y-71366607D01*
X122421792Y-71212715D01*
X122294819Y-71085742D01*
X122261334Y-71024419D01*
X122258500Y-70998061D01*
X122258500Y-65195291D01*
X122229352Y-65048759D01*
X122229351Y-65048758D01*
X122229351Y-65048754D01*
X122227919Y-65045295D01*
X122215028Y-65014174D01*
X122172175Y-64910718D01*
X122172174Y-64910715D01*
X122172172Y-64910712D01*
X122172170Y-64910708D01*
X122089166Y-64786485D01*
X122089163Y-64786481D01*
X120279819Y-62977138D01*
X120246334Y-62915815D01*
X120245027Y-62870062D01*
X120263815Y-62751435D01*
X120278500Y-62658726D01*
X120278500Y-62421272D01*
X120241356Y-62186758D01*
X120174208Y-61980099D01*
X120167982Y-61960937D01*
X120167980Y-61960934D01*
X120167980Y-61960932D01*
X120060184Y-61749372D01*
X119920620Y-61557278D01*
X119752722Y-61389380D01*
X119752718Y-61389376D01*
X119726487Y-61370319D01*
X119683820Y-61314990D01*
X119677840Y-61245376D01*
X119710446Y-61183581D01*
X119726487Y-61169681D01*
X119752718Y-61150623D01*
X119752718Y-61150622D01*
X119752722Y-61150620D01*
X119920620Y-60982722D01*
X120046389Y-60809614D01*
X120101719Y-60766949D01*
X120146707Y-60758500D01*
X123117500Y-60758500D01*
X123184539Y-60778185D01*
G37*
%TD.AperFunction*%
%TA.AperFunction,Conductor*%
G36*
X118750000Y-67186988D02*
G01*
X118692993Y-67154075D01*
X118565826Y-67120000D01*
X118434174Y-67120000D01*
X118307007Y-67154075D01*
X118250000Y-67186988D01*
X118250000Y-65513012D01*
X118307007Y-65545925D01*
X118434174Y-65580000D01*
X118565826Y-65580000D01*
X118692993Y-65545925D01*
X118750000Y-65513012D01*
X118750000Y-67186988D01*
G37*
%TD.AperFunction*%
%TA.AperFunction,Conductor*%
G36*
X163484404Y-46755185D02*
G01*
X163505046Y-46771819D01*
X165928181Y-49194954D01*
X165961666Y-49256277D01*
X165964500Y-49282635D01*
X165964500Y-52517474D01*
X165944815Y-52584513D01*
X165892011Y-52630268D01*
X165822853Y-52640212D01*
X165759297Y-52611187D01*
X165722569Y-52555793D01*
X165704755Y-52500968D01*
X165611859Y-52318650D01*
X165579474Y-52274077D01*
X165579474Y-52274076D01*
X164900000Y-52953551D01*
X164900000Y-52947339D01*
X164872741Y-52845606D01*
X164820080Y-52754394D01*
X164745606Y-52679920D01*
X164654394Y-52627259D01*
X164552661Y-52600000D01*
X164546446Y-52600000D01*
X165225922Y-51920524D01*
X165225921Y-51920523D01*
X165181359Y-51888147D01*
X165181350Y-51888141D01*
X164999031Y-51795244D01*
X164804417Y-51732009D01*
X164602317Y-51700000D01*
X164397683Y-51700000D01*
X164195582Y-51732009D01*
X164000968Y-51795244D01*
X163818644Y-51888143D01*
X163774077Y-51920523D01*
X163774077Y-51920524D01*
X164453554Y-52600000D01*
X164447339Y-52600000D01*
X164345606Y-52627259D01*
X164254394Y-52679920D01*
X164179920Y-52754394D01*
X164127259Y-52845606D01*
X164100000Y-52947339D01*
X164100000Y-52953553D01*
X163420524Y-52274077D01*
X163420523Y-52274077D01*
X163388143Y-52318644D01*
X163295244Y-52500968D01*
X163232009Y-52695582D01*
X163200000Y-52897682D01*
X163200000Y-53102317D01*
X163232009Y-53304417D01*
X163295244Y-53499031D01*
X163388141Y-53681350D01*
X163388147Y-53681359D01*
X163420523Y-53725921D01*
X163420524Y-53725922D01*
X164100000Y-53046446D01*
X164100000Y-53052661D01*
X164127259Y-53154394D01*
X164179920Y-53245606D01*
X164254394Y-53320080D01*
X164345606Y-53372741D01*
X164447339Y-53400000D01*
X164453553Y-53400000D01*
X163774076Y-54079474D01*
X163818650Y-54111859D01*
X164000968Y-54204755D01*
X164195582Y-54267990D01*
X164397683Y-54300000D01*
X164602317Y-54300000D01*
X164804417Y-54267990D01*
X164999031Y-54204755D01*
X165181349Y-54111859D01*
X165225921Y-54079474D01*
X164546447Y-53400000D01*
X164552661Y-53400000D01*
X164654394Y-53372741D01*
X164745606Y-53320080D01*
X164820080Y-53245606D01*
X164872741Y-53154394D01*
X164900000Y-53052661D01*
X164900000Y-53046447D01*
X165579474Y-53725921D01*
X165611859Y-53681349D01*
X165704754Y-53499031D01*
X165722569Y-53444206D01*
X165762007Y-53386531D01*
X165826365Y-53359333D01*
X165895212Y-53371248D01*
X165946687Y-53418492D01*
X165964500Y-53482525D01*
X165964500Y-59344982D01*
X165964500Y-59375018D01*
X165975994Y-59402767D01*
X165975995Y-59402768D01*
X168468181Y-61894954D01*
X168501666Y-61956277D01*
X168504500Y-61982635D01*
X168504500Y-96107364D01*
X168484815Y-96174403D01*
X168468181Y-96195045D01*
X165997233Y-98665994D01*
X165975995Y-98687231D01*
X165964500Y-98714982D01*
X165964500Y-99231907D01*
X165963903Y-99244061D01*
X165963903Y-99244062D01*
X165952505Y-99359778D01*
X165947763Y-99383618D01*
X165917832Y-99482290D01*
X165915789Y-99489024D01*
X165906486Y-99511482D01*
X165854561Y-99608627D01*
X165841056Y-99628839D01*
X165771176Y-99713988D01*
X165753988Y-99731176D01*
X165668839Y-99801056D01*
X165648627Y-99814561D01*
X165551482Y-99866486D01*
X165529028Y-99875787D01*
X165487028Y-99888528D01*
X165423618Y-99907763D01*
X165399778Y-99912505D01*
X165291162Y-99923203D01*
X165284060Y-99923903D01*
X165271907Y-99924500D01*
X100768093Y-99924500D01*
X100755939Y-99923903D01*
X100747995Y-99923120D01*
X100640221Y-99912505D01*
X100616381Y-99907763D01*
X100599445Y-99902625D01*
X100510968Y-99875786D01*
X100488517Y-99866486D01*
X100391372Y-99814561D01*
X100371160Y-99801056D01*
X100286011Y-99731176D01*
X100268823Y-99713988D01*
X100198943Y-99628839D01*
X100185438Y-99608627D01*
X100140504Y-99524561D01*
X100133510Y-99511476D01*
X100124215Y-99489037D01*
X100092234Y-99383612D01*
X100087494Y-99359777D01*
X100086326Y-99347923D01*
X100076097Y-99244061D01*
X100075500Y-99231907D01*
X100075500Y-81381272D01*
X102221500Y-81381272D01*
X102221500Y-81618727D01*
X102258643Y-81853241D01*
X102301797Y-81986054D01*
X102332018Y-82079063D01*
X102332019Y-82079066D01*
X102332020Y-82079067D01*
X102415075Y-82242072D01*
X102427971Y-82310741D01*
X102401695Y-82375482D01*
X102378903Y-82397632D01*
X102366739Y-82406739D01*
X102364433Y-82409820D01*
X102279111Y-82523795D01*
X102228011Y-82660795D01*
X102228011Y-82660797D01*
X102221500Y-82721345D01*
X102221500Y-85358654D01*
X102228011Y-85419202D01*
X102228011Y-85419204D01*
X102261435Y-85508813D01*
X102279111Y-85556204D01*
X102366739Y-85673261D01*
X102483796Y-85760889D01*
X102598949Y-85803839D01*
X102606082Y-85806500D01*
X102620799Y-85811989D01*
X102648050Y-85814918D01*
X102681345Y-85818499D01*
X102681362Y-85818500D01*
X103117500Y-85818500D01*
X103184539Y-85838185D01*
X103230294Y-85890989D01*
X103241500Y-85942500D01*
X103241500Y-93574709D01*
X103270647Y-93721239D01*
X103270649Y-93721247D01*
X103327825Y-93859282D01*
X103410835Y-93983517D01*
X103410836Y-93983518D01*
X103938154Y-94510835D01*
X104410834Y-94983515D01*
X104410835Y-94983516D01*
X104516484Y-95089165D01*
X104516485Y-95089166D01*
X104640709Y-95172170D01*
X104640722Y-95172177D01*
X104778749Y-95229349D01*
X104778754Y-95229351D01*
X104778758Y-95229351D01*
X104778759Y-95229352D01*
X104925291Y-95258500D01*
X104925294Y-95258500D01*
X104925295Y-95258500D01*
X105074705Y-95258500D01*
X113172630Y-95258500D01*
X113239669Y-95278185D01*
X113285424Y-95330989D01*
X113295368Y-95400147D01*
X113266343Y-95463703D01*
X113220083Y-95497061D01*
X113038982Y-95572075D01*
X113038971Y-95572080D01*
X112800516Y-95709754D01*
X112582073Y-95877370D01*
X112582066Y-95877376D01*
X112387376Y-96072066D01*
X112387370Y-96072073D01*
X112219754Y-96290516D01*
X112082080Y-96528971D01*
X112082080Y-96528972D01*
X111976704Y-96783369D01*
X111905441Y-97049331D01*
X111905438Y-97049344D01*
X111869501Y-97322315D01*
X111869500Y-97322332D01*
X111869500Y-97597667D01*
X111869501Y-97597684D01*
X111905438Y-97870655D01*
X111905439Y-97870660D01*
X111905440Y-97870666D01*
X111929377Y-97960000D01*
X111976704Y-98136630D01*
X112082075Y-98391017D01*
X112082080Y-98391028D01*
X112164861Y-98534407D01*
X112219751Y-98629479D01*
X112219753Y-98629482D01*
X112219754Y-98629483D01*
X112387370Y-98847926D01*
X112387376Y-98847933D01*
X112582066Y-99042623D01*
X112582072Y-99042628D01*
X112800521Y-99210249D01*
X112953778Y-99298732D01*
X113038971Y-99347919D01*
X113038976Y-99347921D01*
X113038979Y-99347923D01*
X113293368Y-99453295D01*
X113559334Y-99524560D01*
X113832326Y-99560500D01*
X113832333Y-99560500D01*
X114107667Y-99560500D01*
X114107674Y-99560500D01*
X114380666Y-99524560D01*
X114646632Y-99453295D01*
X114901021Y-99347923D01*
X115139479Y-99210249D01*
X115357928Y-99042628D01*
X115552628Y-98847928D01*
X115720249Y-98629479D01*
X115857923Y-98391021D01*
X115963295Y-98136632D01*
X116034560Y-97870666D01*
X116070500Y-97597674D01*
X116070500Y-97322326D01*
X116034560Y-97049334D01*
X115963295Y-96783368D01*
X115857923Y-96528979D01*
X115857922Y-96528978D01*
X115857920Y-96528972D01*
X115857919Y-96528971D01*
X115762554Y-96363796D01*
X115720249Y-96290521D01*
X115600877Y-96134951D01*
X115552629Y-96072073D01*
X115552623Y-96072066D01*
X115357933Y-95877376D01*
X115357926Y-95877370D01*
X115139483Y-95709754D01*
X115139482Y-95709753D01*
X115139479Y-95709751D01*
X115019916Y-95640721D01*
X114901028Y-95572080D01*
X114901017Y-95572075D01*
X114719917Y-95497061D01*
X114665514Y-95453220D01*
X114643449Y-95386926D01*
X114660728Y-95319227D01*
X114711865Y-95271616D01*
X114767370Y-95258500D01*
X137134457Y-95258500D01*
X137163897Y-95267144D01*
X137193884Y-95273668D01*
X137198899Y-95277422D01*
X137201496Y-95278185D01*
X137222138Y-95294819D01*
X137305181Y-95377862D01*
X137338666Y-95439185D01*
X137341500Y-95465543D01*
X137341500Y-96268701D01*
X137321815Y-96335740D01*
X137290387Y-96369018D01*
X137214996Y-96423793D01*
X137063796Y-96574993D01*
X136938105Y-96747991D01*
X136935727Y-96751873D01*
X136883914Y-96798748D01*
X136814984Y-96810169D01*
X136750822Y-96782512D01*
X136724273Y-96751873D01*
X136721894Y-96747991D01*
X136693401Y-96708774D01*
X136596206Y-96574996D01*
X136445004Y-96423794D01*
X136272009Y-96298106D01*
X136257113Y-96290516D01*
X136081483Y-96201027D01*
X136081480Y-96201026D01*
X135878117Y-96134951D01*
X135758951Y-96116077D01*
X135666916Y-96101500D01*
X135453084Y-96101500D01*
X135382684Y-96112650D01*
X135241882Y-96134951D01*
X135038519Y-96201026D01*
X135038516Y-96201027D01*
X134847990Y-96298106D01*
X134674993Y-96423796D01*
X134523796Y-96574993D01*
X134398105Y-96747991D01*
X134395727Y-96751873D01*
X134343914Y-96798748D01*
X134274984Y-96810169D01*
X134210822Y-96782512D01*
X134184273Y-96751873D01*
X134181894Y-96747991D01*
X134153401Y-96708774D01*
X134056206Y-96574996D01*
X133905004Y-96423794D01*
X133732009Y-96298106D01*
X133717113Y-96290516D01*
X133541483Y-96201027D01*
X133541480Y-96201026D01*
X133338117Y-96134951D01*
X133218951Y-96116077D01*
X133126916Y-96101500D01*
X132913084Y-96101500D01*
X132842684Y-96112650D01*
X132701882Y-96134951D01*
X132498519Y-96201026D01*
X132498516Y-96201027D01*
X132307990Y-96298106D01*
X132134993Y-96423796D01*
X131983796Y-96574993D01*
X131858105Y-96747991D01*
X131855727Y-96751873D01*
X131803914Y-96798748D01*
X131734984Y-96810169D01*
X131670822Y-96782512D01*
X131644273Y-96751873D01*
X131641894Y-96747991D01*
X131613401Y-96708774D01*
X131516206Y-96574996D01*
X131365004Y-96423794D01*
X131192009Y-96298106D01*
X131177113Y-96290516D01*
X131001483Y-96201027D01*
X131001480Y-96201026D01*
X130798117Y-96134951D01*
X130678951Y-96116077D01*
X130586916Y-96101500D01*
X130373084Y-96101500D01*
X130302684Y-96112650D01*
X130161882Y-96134951D01*
X129958519Y-96201026D01*
X129958516Y-96201027D01*
X129767990Y-96298106D01*
X129594997Y-96423793D01*
X129489818Y-96528972D01*
X129428495Y-96562456D01*
X129358803Y-96557472D01*
X129302870Y-96515600D01*
X129285958Y-96484629D01*
X129240889Y-96363796D01*
X129153261Y-96246739D01*
X129036204Y-96159111D01*
X129035172Y-96158726D01*
X128899203Y-96108011D01*
X128838654Y-96101500D01*
X128838638Y-96101500D01*
X127041362Y-96101500D01*
X127041345Y-96101500D01*
X126980797Y-96108011D01*
X126980795Y-96108011D01*
X126843795Y-96159111D01*
X126726739Y-96246739D01*
X126639111Y-96363795D01*
X126588011Y-96500795D01*
X126588011Y-96500797D01*
X126581500Y-96561345D01*
X126581500Y-98358654D01*
X126588011Y-98419202D01*
X126588011Y-98419204D01*
X126639111Y-98556204D01*
X126726739Y-98673261D01*
X126843796Y-98760889D01*
X126980799Y-98811989D01*
X127008050Y-98814918D01*
X127041345Y-98818499D01*
X127041362Y-98818500D01*
X128838638Y-98818500D01*
X128838654Y-98818499D01*
X128865692Y-98815591D01*
X128899201Y-98811989D01*
X129036204Y-98760889D01*
X129153261Y-98673261D01*
X129240889Y-98556204D01*
X129285957Y-98435371D01*
X129327827Y-98379442D01*
X129393291Y-98355025D01*
X129461564Y-98369877D01*
X129489818Y-98391028D01*
X129594996Y-98496206D01*
X129767991Y-98621894D01*
X129854542Y-98665994D01*
X129958516Y-98718972D01*
X129958519Y-98718973D01*
X130060200Y-98752010D01*
X130161884Y-98785049D01*
X130373084Y-98818500D01*
X130373085Y-98818500D01*
X130586915Y-98818500D01*
X130586916Y-98818500D01*
X130798116Y-98785049D01*
X131001483Y-98718972D01*
X131192009Y-98621894D01*
X131365004Y-98496206D01*
X131516206Y-98345004D01*
X131641894Y-98172009D01*
X131641896Y-98172004D01*
X131644270Y-98168132D01*
X131696080Y-98121254D01*
X131765009Y-98109829D01*
X131829173Y-98137483D01*
X131855730Y-98168132D01*
X131858103Y-98172005D01*
X131858105Y-98172008D01*
X131858106Y-98172009D01*
X131983794Y-98345004D01*
X132134996Y-98496206D01*
X132307991Y-98621894D01*
X132394542Y-98665994D01*
X132498516Y-98718972D01*
X132498519Y-98718973D01*
X132600200Y-98752010D01*
X132701884Y-98785049D01*
X132913084Y-98818500D01*
X132913085Y-98818500D01*
X133126915Y-98818500D01*
X133126916Y-98818500D01*
X133338116Y-98785049D01*
X133541483Y-98718972D01*
X133732009Y-98621894D01*
X133905004Y-98496206D01*
X134056206Y-98345004D01*
X134181894Y-98172009D01*
X134181896Y-98172004D01*
X134184270Y-98168132D01*
X134236080Y-98121254D01*
X134305009Y-98109829D01*
X134369173Y-98137483D01*
X134395730Y-98168132D01*
X134398103Y-98172005D01*
X134398105Y-98172008D01*
X134398106Y-98172009D01*
X134523794Y-98345004D01*
X134674996Y-98496206D01*
X134847991Y-98621894D01*
X134934542Y-98665994D01*
X135038516Y-98718972D01*
X135038519Y-98718973D01*
X135140200Y-98752010D01*
X135241884Y-98785049D01*
X135453084Y-98818500D01*
X135453085Y-98818500D01*
X135666915Y-98818500D01*
X135666916Y-98818500D01*
X135878116Y-98785049D01*
X136081483Y-98718972D01*
X136272009Y-98621894D01*
X136445004Y-98496206D01*
X136596206Y-98345004D01*
X136721894Y-98172009D01*
X136721896Y-98172004D01*
X136724270Y-98168132D01*
X136776080Y-98121254D01*
X136845009Y-98109829D01*
X136909173Y-98137483D01*
X136935730Y-98168132D01*
X136938103Y-98172005D01*
X136938105Y-98172008D01*
X136938106Y-98172009D01*
X137063794Y-98345004D01*
X137214996Y-98496206D01*
X137387991Y-98621894D01*
X137474542Y-98665994D01*
X137578516Y-98718972D01*
X137578519Y-98718973D01*
X137680200Y-98752010D01*
X137781884Y-98785049D01*
X137993084Y-98818500D01*
X137993085Y-98818500D01*
X138206915Y-98818500D01*
X138206916Y-98818500D01*
X138418116Y-98785049D01*
X138621483Y-98718972D01*
X138812009Y-98621894D01*
X138985004Y-98496206D01*
X139136206Y-98345004D01*
X139261894Y-98172009D01*
X139264283Y-98167319D01*
X139312254Y-98116522D01*
X139380074Y-98099724D01*
X139446210Y-98122258D01*
X139482201Y-98163788D01*
X139482832Y-98163402D01*
X139485164Y-98167207D01*
X139485251Y-98167308D01*
X139485376Y-98167554D01*
X139610272Y-98339459D01*
X139610276Y-98339464D01*
X139760535Y-98489723D01*
X139760540Y-98489727D01*
X139932442Y-98614620D01*
X140121782Y-98711095D01*
X140323871Y-98776757D01*
X140390000Y-98787231D01*
X140390000Y-97893012D01*
X140447007Y-97925925D01*
X140574174Y-97960000D01*
X140705826Y-97960000D01*
X140832993Y-97925925D01*
X140890000Y-97893012D01*
X140890000Y-98787230D01*
X140956126Y-98776757D01*
X140956129Y-98776757D01*
X141158217Y-98711095D01*
X141347557Y-98614620D01*
X141519459Y-98489727D01*
X141519464Y-98489723D01*
X141669723Y-98339464D01*
X141669727Y-98339459D01*
X141794620Y-98167558D01*
X141799514Y-98157954D01*
X141847488Y-98107157D01*
X141915308Y-98090361D01*
X141981444Y-98112897D01*
X142020486Y-98157954D01*
X142025379Y-98167558D01*
X142150272Y-98339459D01*
X142150276Y-98339464D01*
X142300535Y-98489723D01*
X142300540Y-98489727D01*
X142472442Y-98614620D01*
X142661782Y-98711095D01*
X142863871Y-98776757D01*
X142930000Y-98787231D01*
X142930000Y-97893012D01*
X142987007Y-97925925D01*
X143114174Y-97960000D01*
X143245826Y-97960000D01*
X143372993Y-97925925D01*
X143430000Y-97893012D01*
X143430000Y-98787230D01*
X143496126Y-98776757D01*
X143496129Y-98776757D01*
X143698217Y-98711095D01*
X143887557Y-98614620D01*
X144059459Y-98489727D01*
X144059464Y-98489723D01*
X144209723Y-98339464D01*
X144209727Y-98339459D01*
X144334619Y-98167560D01*
X144334738Y-98167327D01*
X144334808Y-98167252D01*
X144337168Y-98163402D01*
X144337976Y-98163897D01*
X144382707Y-98116526D01*
X144450526Y-98099723D01*
X144516663Y-98122254D01*
X144555712Y-98167311D01*
X144558105Y-98172008D01*
X144600002Y-98229674D01*
X144683794Y-98345004D01*
X144834996Y-98496206D01*
X145007991Y-98621894D01*
X145094542Y-98665994D01*
X145198516Y-98718972D01*
X145198519Y-98718973D01*
X145300200Y-98752010D01*
X145401884Y-98785049D01*
X145613084Y-98818500D01*
X145613085Y-98818500D01*
X145826915Y-98818500D01*
X145826916Y-98818500D01*
X146038116Y-98785049D01*
X146241483Y-98718972D01*
X146432009Y-98621894D01*
X146605004Y-98496206D01*
X146756206Y-98345004D01*
X146881894Y-98172009D01*
X146978972Y-97981483D01*
X147045049Y-97778116D01*
X147078500Y-97566916D01*
X147078500Y-97353084D01*
X147045049Y-97141884D01*
X146978972Y-96938517D01*
X146978972Y-96938516D01*
X146923495Y-96829638D01*
X146881894Y-96747991D01*
X146756206Y-96574996D01*
X146605004Y-96423794D01*
X146432009Y-96298106D01*
X146417113Y-96290516D01*
X146241483Y-96201027D01*
X146241480Y-96201026D01*
X146038117Y-96134951D01*
X145918951Y-96116077D01*
X145826916Y-96101500D01*
X145613084Y-96101500D01*
X145542684Y-96112650D01*
X145401882Y-96134951D01*
X145198519Y-96201026D01*
X145198516Y-96201027D01*
X145007990Y-96298106D01*
X144834993Y-96423796D01*
X144683796Y-96574993D01*
X144558103Y-96747994D01*
X144555709Y-96752693D01*
X144507731Y-96803485D01*
X144439908Y-96820275D01*
X144373775Y-96797732D01*
X144337800Y-96756210D01*
X144337168Y-96756598D01*
X144334829Y-96752781D01*
X144334743Y-96752682D01*
X144334620Y-96752441D01*
X144209727Y-96580540D01*
X144209723Y-96580535D01*
X144059464Y-96430276D01*
X144059459Y-96430272D01*
X143887557Y-96305379D01*
X143698215Y-96208903D01*
X143496124Y-96143241D01*
X143430000Y-96132768D01*
X143430000Y-97026988D01*
X143372993Y-96994075D01*
X143245826Y-96960000D01*
X143114174Y-96960000D01*
X142987007Y-96994075D01*
X142930000Y-97026988D01*
X142930000Y-96132768D01*
X142929999Y-96132768D01*
X142863875Y-96143241D01*
X142661784Y-96208903D01*
X142472442Y-96305379D01*
X142300540Y-96430272D01*
X142300535Y-96430276D01*
X142150276Y-96580535D01*
X142150272Y-96580540D01*
X142025377Y-96752444D01*
X142020484Y-96762048D01*
X141972509Y-96812844D01*
X141904688Y-96829638D01*
X141838553Y-96807100D01*
X141799516Y-96762048D01*
X141794622Y-96752444D01*
X141669727Y-96580540D01*
X141669723Y-96580535D01*
X141519464Y-96430276D01*
X141519459Y-96430272D01*
X141347557Y-96305379D01*
X141158215Y-96208903D01*
X140956124Y-96143241D01*
X140890000Y-96132768D01*
X140890000Y-97026988D01*
X140832993Y-96994075D01*
X140705826Y-96960000D01*
X140574174Y-96960000D01*
X140447007Y-96994075D01*
X140390000Y-97026988D01*
X140390000Y-96132768D01*
X140389999Y-96132768D01*
X140323875Y-96143241D01*
X140121784Y-96208903D01*
X139932442Y-96305379D01*
X139760540Y-96430272D01*
X139760535Y-96430276D01*
X139610276Y-96580535D01*
X139610272Y-96580540D01*
X139485376Y-96752446D01*
X139485374Y-96752448D01*
X139485246Y-96752701D01*
X139485172Y-96752779D01*
X139482832Y-96756598D01*
X139482029Y-96756106D01*
X139437264Y-96803489D01*
X139369441Y-96820274D01*
X139303309Y-96797727D01*
X139264285Y-96752683D01*
X139261895Y-96747992D01*
X139230472Y-96704742D01*
X139136206Y-96574996D01*
X138985004Y-96423794D01*
X138984997Y-96423789D01*
X138909613Y-96369018D01*
X138866948Y-96313688D01*
X138858500Y-96268701D01*
X138858500Y-95025291D01*
X138829352Y-94878758D01*
X138829351Y-94878756D01*
X138829351Y-94878754D01*
X138826551Y-94871994D01*
X138821297Y-94859309D01*
X138821285Y-94859282D01*
X138805667Y-94821576D01*
X138772177Y-94740723D01*
X138772176Y-94740722D01*
X138772174Y-94740716D01*
X138689165Y-94616484D01*
X138583516Y-94510835D01*
X138445976Y-94373295D01*
X138192578Y-94119896D01*
X137983517Y-93910835D01*
X137921399Y-93869330D01*
X137859284Y-93827826D01*
X137721247Y-93770649D01*
X137721239Y-93770647D01*
X137647976Y-93756074D01*
X137574709Y-93741500D01*
X137574706Y-93741500D01*
X105365543Y-93741500D01*
X105298504Y-93721815D01*
X105277862Y-93705181D01*
X104794819Y-93222138D01*
X104761334Y-93160815D01*
X104758500Y-93134457D01*
X104758500Y-91865543D01*
X104778185Y-91798504D01*
X104794819Y-91777862D01*
X105277862Y-91294819D01*
X105339185Y-91261334D01*
X105365543Y-91258500D01*
X109775034Y-91258500D01*
X109842073Y-91278185D01*
X109887828Y-91330989D01*
X109897772Y-91400147D01*
X109885519Y-91438795D01*
X109795244Y-91615968D01*
X109732009Y-91810582D01*
X109700000Y-92012682D01*
X109700000Y-92217317D01*
X109732009Y-92419417D01*
X109795244Y-92614031D01*
X109888141Y-92796350D01*
X109888147Y-92796359D01*
X109920523Y-92840921D01*
X109920524Y-92840922D01*
X110600000Y-92161446D01*
X110600000Y-92167661D01*
X110627259Y-92269394D01*
X110679920Y-92360606D01*
X110754394Y-92435080D01*
X110845606Y-92487741D01*
X110947339Y-92515000D01*
X110953553Y-92515000D01*
X110274076Y-93194474D01*
X110318650Y-93226859D01*
X110500968Y-93319755D01*
X110695582Y-93382990D01*
X110897683Y-93415000D01*
X111102317Y-93415000D01*
X111304417Y-93382990D01*
X111499031Y-93319755D01*
X111681349Y-93226859D01*
X111725921Y-93194474D01*
X111046447Y-92515000D01*
X111052661Y-92515000D01*
X111154394Y-92487741D01*
X111245606Y-92435080D01*
X111320080Y-92360606D01*
X111372741Y-92269394D01*
X111400000Y-92167661D01*
X111400000Y-92161447D01*
X112079474Y-92840921D01*
X112111859Y-92796349D01*
X112204755Y-92614031D01*
X112267990Y-92419417D01*
X112298783Y-92225000D01*
X115824638Y-92225000D01*
X115829548Y-92256002D01*
X115887914Y-92435637D01*
X115973670Y-92603940D01*
X116084685Y-92756741D01*
X116084689Y-92756746D01*
X116218253Y-92890310D01*
X116218258Y-92890314D01*
X116371059Y-93001329D01*
X116539362Y-93087085D01*
X116718997Y-93145451D01*
X116750000Y-93150362D01*
X116750000Y-93150361D01*
X117250000Y-93150361D01*
X117281002Y-93145451D01*
X117460637Y-93087085D01*
X117628940Y-93001329D01*
X117771600Y-92897682D01*
X141700000Y-92897682D01*
X141700000Y-93102317D01*
X141732009Y-93304417D01*
X141795244Y-93499031D01*
X141888141Y-93681350D01*
X141888147Y-93681359D01*
X141920523Y-93725921D01*
X141920524Y-93725922D01*
X142600000Y-93046446D01*
X142600000Y-93052661D01*
X142627259Y-93154394D01*
X142679920Y-93245606D01*
X142754394Y-93320080D01*
X142845606Y-93372741D01*
X142947339Y-93400000D01*
X142953553Y-93400000D01*
X142274076Y-94079474D01*
X142318650Y-94111859D01*
X142500968Y-94204755D01*
X142695582Y-94267990D01*
X142897683Y-94300000D01*
X143102317Y-94300000D01*
X143304417Y-94267990D01*
X143499031Y-94204755D01*
X143681349Y-94111859D01*
X143725921Y-94079474D01*
X143046447Y-93400000D01*
X143052661Y-93400000D01*
X143154394Y-93372741D01*
X143245606Y-93320080D01*
X143320080Y-93245606D01*
X143372741Y-93154394D01*
X143400000Y-93052661D01*
X143400000Y-93046448D01*
X144079474Y-93725922D01*
X144079474Y-93725921D01*
X144111859Y-93681349D01*
X144204755Y-93499031D01*
X144267990Y-93304417D01*
X144300000Y-93102317D01*
X144300000Y-92897682D01*
X144267990Y-92695582D01*
X144204755Y-92500968D01*
X144111859Y-92318650D01*
X144079474Y-92274077D01*
X144079474Y-92274076D01*
X143400000Y-92953551D01*
X143400000Y-92947339D01*
X143372741Y-92845606D01*
X143320080Y-92754394D01*
X143245606Y-92679920D01*
X143154394Y-92627259D01*
X143052661Y-92600000D01*
X143046446Y-92600000D01*
X143725922Y-91920524D01*
X143725921Y-91920523D01*
X143681359Y-91888147D01*
X143681350Y-91888141D01*
X143499031Y-91795244D01*
X143304417Y-91732009D01*
X143102317Y-91700000D01*
X142897683Y-91700000D01*
X142695582Y-91732009D01*
X142500968Y-91795244D01*
X142318644Y-91888143D01*
X142274077Y-91920523D01*
X142274077Y-91920524D01*
X142953554Y-92600000D01*
X142947339Y-92600000D01*
X142845606Y-92627259D01*
X142754394Y-92679920D01*
X142679920Y-92754394D01*
X142627259Y-92845606D01*
X142600000Y-92947339D01*
X142600000Y-92953553D01*
X141920524Y-92274077D01*
X141920523Y-92274077D01*
X141888143Y-92318644D01*
X141795244Y-92500968D01*
X141732009Y-92695582D01*
X141700000Y-92897682D01*
X117771600Y-92897682D01*
X117781741Y-92890314D01*
X117781746Y-92890310D01*
X117866922Y-92805135D01*
X117915310Y-92756746D01*
X117915314Y-92756741D01*
X118026329Y-92603940D01*
X118112085Y-92435637D01*
X118170451Y-92256002D01*
X118175362Y-92225000D01*
X117250000Y-92225000D01*
X117250000Y-93150361D01*
X116750000Y-93150361D01*
X116750000Y-92225000D01*
X115824638Y-92225000D01*
X112298783Y-92225000D01*
X112300000Y-92217317D01*
X112300000Y-92012682D01*
X112267990Y-91810582D01*
X112204755Y-91615968D01*
X112114481Y-91438795D01*
X112101585Y-91370125D01*
X112127862Y-91305385D01*
X112184968Y-91265128D01*
X112224966Y-91258500D01*
X115815933Y-91258500D01*
X115882972Y-91278185D01*
X115928727Y-91330989D01*
X115938671Y-91400147D01*
X115926418Y-91438795D01*
X115887914Y-91514362D01*
X115829548Y-91693997D01*
X115824638Y-91725000D01*
X116755025Y-91725000D01*
X116719930Y-91760095D01*
X116673852Y-91839905D01*
X116650000Y-91928922D01*
X116650000Y-92021078D01*
X116673852Y-92110095D01*
X116719930Y-92189905D01*
X116785095Y-92255070D01*
X116864905Y-92301148D01*
X116953922Y-92325000D01*
X117046078Y-92325000D01*
X117135095Y-92301148D01*
X117214905Y-92255070D01*
X117280070Y-92189905D01*
X117326148Y-92110095D01*
X117350000Y-92021078D01*
X117350000Y-91928922D01*
X117326148Y-91839905D01*
X117280070Y-91760095D01*
X117244975Y-91725000D01*
X118175362Y-91725000D01*
X118170451Y-91693997D01*
X118113055Y-91517347D01*
X118111060Y-91447506D01*
X118147140Y-91387673D01*
X118209841Y-91356845D01*
X118279256Y-91364810D01*
X118318667Y-91391348D01*
X119016479Y-92089161D01*
X119016482Y-92089164D01*
X119016485Y-92089166D01*
X119140715Y-92172173D01*
X119140716Y-92172174D01*
X119278754Y-92229351D01*
X119278758Y-92229351D01*
X119278759Y-92229352D01*
X119425291Y-92258500D01*
X119425294Y-92258500D01*
X132074708Y-92258500D01*
X132097937Y-92253878D01*
X132156017Y-92242326D01*
X132221247Y-92229351D01*
X132359284Y-92172174D01*
X132483515Y-92089166D01*
X132580262Y-91992419D01*
X132692580Y-91880102D01*
X135589163Y-88983518D01*
X135589164Y-88983517D01*
X135589166Y-88983515D01*
X135672174Y-88859284D01*
X135697970Y-88797008D01*
X135704519Y-88781196D01*
X135729351Y-88721246D01*
X135758500Y-88574705D01*
X135758500Y-88425295D01*
X135758500Y-86925294D01*
X135758500Y-85365543D01*
X135778185Y-85298504D01*
X135794819Y-85277862D01*
X136277862Y-84794819D01*
X136339185Y-84761334D01*
X136365543Y-84758500D01*
X151998061Y-84758500D01*
X152065100Y-84778185D01*
X152085742Y-84794819D01*
X152212715Y-84921792D01*
X152366608Y-85033602D01*
X152446683Y-85074402D01*
X152536092Y-85119959D01*
X152536094Y-85119959D01*
X152536097Y-85119961D01*
X152571026Y-85131310D01*
X152717008Y-85178743D01*
X152904884Y-85208500D01*
X152904889Y-85208500D01*
X153095116Y-85208500D01*
X153282991Y-85178743D01*
X153463903Y-85119961D01*
X153633392Y-85033602D01*
X153787285Y-84921792D01*
X153914258Y-84794819D01*
X153975581Y-84761334D01*
X154001939Y-84758500D01*
X159074706Y-84758500D01*
X159147976Y-84743925D01*
X159147977Y-84743925D01*
X159166419Y-84740256D01*
X159221247Y-84729351D01*
X159359284Y-84672174D01*
X159483515Y-84589166D01*
X159529818Y-84542863D01*
X159591141Y-84509377D01*
X159660832Y-84514361D01*
X159716766Y-84556232D01*
X159741184Y-84621696D01*
X159741500Y-84630543D01*
X159741500Y-96586036D01*
X159721815Y-96653075D01*
X159669011Y-96698830D01*
X159599853Y-96708774D01*
X159536297Y-96679749D01*
X159517182Y-96658922D01*
X159464227Y-96586036D01*
X159456206Y-96574996D01*
X159305004Y-96423794D01*
X159132009Y-96298106D01*
X159117113Y-96290516D01*
X158941483Y-96201027D01*
X158941480Y-96201026D01*
X158738117Y-96134951D01*
X158618951Y-96116077D01*
X158526916Y-96101500D01*
X158313084Y-96101500D01*
X158242684Y-96112650D01*
X158101882Y-96134951D01*
X157898519Y-96201026D01*
X157898516Y-96201027D01*
X157707990Y-96298106D01*
X157534993Y-96423796D01*
X157383796Y-96574993D01*
X157258105Y-96747991D01*
X157255727Y-96751873D01*
X157203914Y-96798748D01*
X157134984Y-96810169D01*
X157070822Y-96782512D01*
X157044273Y-96751873D01*
X157041894Y-96747991D01*
X157013401Y-96708774D01*
X156916206Y-96574996D01*
X156765004Y-96423794D01*
X156764997Y-96423789D01*
X156689613Y-96369018D01*
X156646948Y-96313688D01*
X156638500Y-96268701D01*
X156638500Y-95925291D01*
X156609351Y-95778755D01*
X156609350Y-95778752D01*
X156587208Y-95725295D01*
X156587208Y-95725294D01*
X156552177Y-95640721D01*
X156552170Y-95640708D01*
X156469166Y-95516485D01*
X156469163Y-95516481D01*
X154396104Y-93443423D01*
X154380371Y-93414610D01*
X154363626Y-93386365D01*
X154363707Y-93384094D01*
X154362619Y-93382100D01*
X154364961Y-93349342D01*
X154366145Y-93316541D01*
X154367491Y-93313968D01*
X154367603Y-93312408D01*
X154381954Y-93284986D01*
X154383206Y-93283183D01*
X154410889Y-93246204D01*
X154413192Y-93240028D01*
X154421983Y-93227377D01*
X154444204Y-93209482D01*
X154464378Y-93189306D01*
X154471068Y-93187849D01*
X154476402Y-93183555D01*
X154504771Y-93180515D01*
X154532650Y-93174448D01*
X154539175Y-93176828D01*
X154545874Y-93176111D01*
X154569088Y-93187741D01*
X154596700Y-93197815D01*
X154713828Y-93282914D01*
X154924197Y-93390102D01*
X155148752Y-93463065D01*
X155148751Y-93463065D01*
X155381948Y-93500000D01*
X155618052Y-93500000D01*
X155851247Y-93463065D01*
X156075802Y-93390102D01*
X156286163Y-93282918D01*
X156286169Y-93282914D01*
X156369104Y-93222658D01*
X156369105Y-93222658D01*
X155546447Y-92400000D01*
X155552661Y-92400000D01*
X155654394Y-92372741D01*
X155745606Y-92320080D01*
X155820080Y-92245606D01*
X155872741Y-92154394D01*
X155900000Y-92052661D01*
X155900000Y-92046447D01*
X156722658Y-92869105D01*
X156722658Y-92869104D01*
X156782914Y-92786169D01*
X156782918Y-92786163D01*
X156890102Y-92575802D01*
X156963065Y-92351247D01*
X157000000Y-92118052D01*
X157000000Y-91881947D01*
X156963065Y-91648752D01*
X156890102Y-91424197D01*
X156782914Y-91213828D01*
X156722658Y-91130894D01*
X156722658Y-91130893D01*
X155900000Y-91953552D01*
X155900000Y-91947339D01*
X155872741Y-91845606D01*
X155820080Y-91754394D01*
X155745606Y-91679920D01*
X155654394Y-91627259D01*
X155552661Y-91600000D01*
X155546446Y-91600000D01*
X156369105Y-90777340D01*
X156369104Y-90777338D01*
X156286174Y-90717087D01*
X156075802Y-90609897D01*
X155851247Y-90536934D01*
X155851248Y-90536934D01*
X155618052Y-90500000D01*
X155381948Y-90500000D01*
X155148752Y-90536934D01*
X154924197Y-90609897D01*
X154713829Y-90717084D01*
X154596699Y-90802184D01*
X154530892Y-90825663D01*
X154462838Y-90809837D01*
X154414980Y-90761289D01*
X154410888Y-90753795D01*
X154401684Y-90741500D01*
X154323261Y-90636739D01*
X154206204Y-90549111D01*
X154154481Y-90529819D01*
X154069203Y-90498011D01*
X154008654Y-90491500D01*
X154008638Y-90491500D01*
X153882500Y-90491500D01*
X153815461Y-90471815D01*
X153769706Y-90419011D01*
X153758500Y-90367500D01*
X153758500Y-90081939D01*
X153778185Y-90014900D01*
X153794819Y-89994258D01*
X153921792Y-89867285D01*
X154033602Y-89713392D01*
X154119961Y-89543903D01*
X154178743Y-89362991D01*
X154182178Y-89341305D01*
X154208500Y-89175116D01*
X154208500Y-88984883D01*
X154178743Y-88797008D01*
X154145136Y-88693579D01*
X154119961Y-88616097D01*
X154119959Y-88616094D01*
X154119959Y-88616092D01*
X154033601Y-88446607D01*
X154016813Y-88423500D01*
X153921792Y-88292715D01*
X153787285Y-88158208D01*
X153633392Y-88046398D01*
X153615083Y-88037069D01*
X153463907Y-87960040D01*
X153282991Y-87901256D01*
X153095116Y-87871500D01*
X153095111Y-87871500D01*
X152904889Y-87871500D01*
X152904884Y-87871500D01*
X152717008Y-87901256D01*
X152536092Y-87960040D01*
X152366607Y-88046398D01*
X152303842Y-88092000D01*
X152212715Y-88158208D01*
X152212713Y-88158210D01*
X152212712Y-88158210D01*
X152078210Y-88292712D01*
X152078210Y-88292713D01*
X152078208Y-88292715D01*
X152052838Y-88327634D01*
X151966398Y-88446607D01*
X151880040Y-88616092D01*
X151821256Y-88797008D01*
X151791500Y-88984883D01*
X151791500Y-89175116D01*
X151821256Y-89362991D01*
X151880040Y-89543907D01*
X151945396Y-89672174D01*
X151966398Y-89713392D01*
X152078208Y-89867285D01*
X152078210Y-89867287D01*
X152205181Y-89994258D01*
X152238666Y-90055581D01*
X152241500Y-90081939D01*
X152241500Y-90367500D01*
X152221815Y-90434539D01*
X152169011Y-90480294D01*
X152117500Y-90491500D01*
X151911345Y-90491500D01*
X151850797Y-90498011D01*
X151850795Y-90498011D01*
X151713795Y-90549111D01*
X151596739Y-90636739D01*
X151509111Y-90753795D01*
X151458011Y-90890795D01*
X151458011Y-90890797D01*
X151451500Y-90951345D01*
X151451500Y-93048654D01*
X151458011Y-93109202D01*
X151458011Y-93109204D01*
X151502089Y-93227377D01*
X151509111Y-93246204D01*
X151596739Y-93363261D01*
X151713796Y-93450889D01*
X151850799Y-93501989D01*
X151878050Y-93504918D01*
X151911345Y-93508499D01*
X151911362Y-93508500D01*
X152281067Y-93508500D01*
X152348106Y-93528185D01*
X152384169Y-93563609D01*
X152410833Y-93603514D01*
X152410836Y-93603518D01*
X155029091Y-96221772D01*
X155062576Y-96283095D01*
X155057592Y-96352787D01*
X155015720Y-96408720D01*
X155014299Y-96409768D01*
X154995002Y-96423789D01*
X154994993Y-96423796D01*
X154843796Y-96574993D01*
X154718105Y-96747991D01*
X154715727Y-96751873D01*
X154663914Y-96798748D01*
X154594984Y-96810169D01*
X154530822Y-96782512D01*
X154504273Y-96751873D01*
X154501894Y-96747991D01*
X154473401Y-96708774D01*
X154376206Y-96574996D01*
X154225004Y-96423794D01*
X154052009Y-96298106D01*
X154037113Y-96290516D01*
X153861483Y-96201027D01*
X153861480Y-96201026D01*
X153658117Y-96134951D01*
X153538951Y-96116077D01*
X153446916Y-96101500D01*
X153233084Y-96101500D01*
X153162684Y-96112650D01*
X153021882Y-96134951D01*
X152818519Y-96201026D01*
X152818516Y-96201027D01*
X152627990Y-96298106D01*
X152454997Y-96423793D01*
X152349818Y-96528972D01*
X152288495Y-96562456D01*
X152218803Y-96557472D01*
X152162870Y-96515600D01*
X152145958Y-96484629D01*
X152100889Y-96363796D01*
X152013261Y-96246739D01*
X151896204Y-96159111D01*
X151895172Y-96158726D01*
X151759203Y-96108011D01*
X151698654Y-96101500D01*
X151698638Y-96101500D01*
X151682500Y-96101500D01*
X151615461Y-96081815D01*
X151569706Y-96029011D01*
X151558500Y-95977500D01*
X151558500Y-95725291D01*
X151529352Y-95578759D01*
X151529351Y-95578758D01*
X151529351Y-95578754D01*
X151472174Y-95440716D01*
X151441922Y-95395440D01*
X151389166Y-95316485D01*
X151389164Y-95316482D01*
X151389163Y-95316481D01*
X144335012Y-88262331D01*
X144301527Y-88201008D01*
X144300220Y-88155256D01*
X144308500Y-88102981D01*
X144308500Y-87897019D01*
X144291133Y-87787367D01*
X144276280Y-87693591D01*
X144242349Y-87589163D01*
X144212634Y-87497710D01*
X144212632Y-87497707D01*
X144212632Y-87497705D01*
X144136519Y-87348327D01*
X144119129Y-87314197D01*
X144103661Y-87292908D01*
X143998073Y-87147576D01*
X143998069Y-87147571D01*
X143852428Y-87001930D01*
X143852423Y-87001926D01*
X143685806Y-86880873D01*
X143685805Y-86880872D01*
X143685803Y-86880871D01*
X143598450Y-86836362D01*
X143502294Y-86787367D01*
X143306408Y-86723719D01*
X143130794Y-86695905D01*
X143102981Y-86691500D01*
X142897019Y-86691500D01*
X142872550Y-86695375D01*
X142693591Y-86723719D01*
X142497705Y-86787367D01*
X142314193Y-86880873D01*
X142147576Y-87001926D01*
X142147571Y-87001930D01*
X142001930Y-87147571D01*
X142001926Y-87147576D01*
X141880873Y-87314193D01*
X141787367Y-87497705D01*
X141723719Y-87693591D01*
X141691500Y-87897019D01*
X141691500Y-88102982D01*
X141691877Y-88107774D01*
X141677511Y-88176151D01*
X141628459Y-88225907D01*
X141568259Y-88241500D01*
X140939493Y-88241500D01*
X140872454Y-88221815D01*
X140839175Y-88190385D01*
X140808070Y-88147573D01*
X140808068Y-88147570D01*
X140662430Y-88001932D01*
X140662428Y-88001930D01*
X140662423Y-88001926D01*
X140495806Y-87880873D01*
X140495805Y-87880872D01*
X140495803Y-87880871D01*
X140397905Y-87830989D01*
X140312294Y-87787367D01*
X140116408Y-87723719D01*
X139926189Y-87693592D01*
X139912981Y-87691500D01*
X139707019Y-87691500D01*
X139693811Y-87693592D01*
X139503591Y-87723719D01*
X139307705Y-87787367D01*
X139124193Y-87880873D01*
X138957576Y-88001926D01*
X138957571Y-88001930D01*
X138811930Y-88147571D01*
X138811926Y-88147576D01*
X138690873Y-88314193D01*
X138597367Y-88497705D01*
X138533719Y-88693591D01*
X138501500Y-88897019D01*
X138501500Y-89102980D01*
X138533719Y-89306408D01*
X138597367Y-89502294D01*
X138690873Y-89685806D01*
X138811926Y-89852423D01*
X138811930Y-89852428D01*
X138957571Y-89998069D01*
X138957576Y-89998073D01*
X139033388Y-90053153D01*
X139124197Y-90119129D01*
X139241128Y-90178709D01*
X139307705Y-90212632D01*
X139307707Y-90212632D01*
X139307710Y-90212634D01*
X139412707Y-90246749D01*
X139503591Y-90276280D01*
X139523928Y-90279501D01*
X139707019Y-90308500D01*
X139707020Y-90308500D01*
X139912980Y-90308500D01*
X139912981Y-90308500D01*
X140116408Y-90276280D01*
X140312290Y-90212634D01*
X140314889Y-90211310D01*
X140316927Y-90210271D01*
X140495803Y-90119129D01*
X140662430Y-89998068D01*
X140808068Y-89852430D01*
X140839175Y-89809615D01*
X140894505Y-89766949D01*
X140939493Y-89758500D01*
X142074707Y-89758500D01*
X142117438Y-89750000D01*
X142160170Y-89741500D01*
X142221247Y-89729351D01*
X142359284Y-89672174D01*
X142483515Y-89589166D01*
X142737670Y-89335009D01*
X142798989Y-89301527D01*
X142844742Y-89300220D01*
X142897019Y-89308500D01*
X142897021Y-89308500D01*
X143102978Y-89308500D01*
X143102981Y-89308500D01*
X143155254Y-89300220D01*
X143224544Y-89309174D01*
X143262331Y-89335012D01*
X149846049Y-95918730D01*
X149879534Y-95980053D01*
X149874550Y-96049745D01*
X149832678Y-96105678D01*
X149801703Y-96122592D01*
X149703795Y-96159111D01*
X149586739Y-96246739D01*
X149499111Y-96363795D01*
X149448011Y-96500795D01*
X149448011Y-96500797D01*
X149441500Y-96561345D01*
X149441500Y-98358654D01*
X149448011Y-98419202D01*
X149448011Y-98419204D01*
X149499111Y-98556204D01*
X149586739Y-98673261D01*
X149703796Y-98760889D01*
X149840799Y-98811989D01*
X149868050Y-98814918D01*
X149901345Y-98818499D01*
X149901362Y-98818500D01*
X151698638Y-98818500D01*
X151698654Y-98818499D01*
X151725692Y-98815591D01*
X151759201Y-98811989D01*
X151896204Y-98760889D01*
X152013261Y-98673261D01*
X152100889Y-98556204D01*
X152145957Y-98435371D01*
X152187827Y-98379442D01*
X152253291Y-98355025D01*
X152321564Y-98369877D01*
X152349818Y-98391028D01*
X152454996Y-98496206D01*
X152627991Y-98621894D01*
X152714542Y-98665994D01*
X152818516Y-98718972D01*
X152818519Y-98718973D01*
X152920200Y-98752010D01*
X153021884Y-98785049D01*
X153233084Y-98818500D01*
X153233085Y-98818500D01*
X153446915Y-98818500D01*
X153446916Y-98818500D01*
X153658116Y-98785049D01*
X153861483Y-98718972D01*
X154052009Y-98621894D01*
X154225004Y-98496206D01*
X154376206Y-98345004D01*
X154501894Y-98172009D01*
X154501896Y-98172004D01*
X154504270Y-98168132D01*
X154556080Y-98121254D01*
X154625009Y-98109829D01*
X154689173Y-98137483D01*
X154715730Y-98168132D01*
X154718103Y-98172005D01*
X154718105Y-98172008D01*
X154718106Y-98172009D01*
X154843794Y-98345004D01*
X154994996Y-98496206D01*
X155167991Y-98621894D01*
X155254542Y-98665994D01*
X155358516Y-98718972D01*
X155358519Y-98718973D01*
X155460200Y-98752010D01*
X155561884Y-98785049D01*
X155773084Y-98818500D01*
X155773085Y-98818500D01*
X155986915Y-98818500D01*
X155986916Y-98818500D01*
X156198116Y-98785049D01*
X156401483Y-98718972D01*
X156592009Y-98621894D01*
X156765004Y-98496206D01*
X156916206Y-98345004D01*
X157041894Y-98172009D01*
X157041896Y-98172004D01*
X157044270Y-98168132D01*
X157096080Y-98121254D01*
X157165009Y-98109829D01*
X157229173Y-98137483D01*
X157255730Y-98168132D01*
X157258103Y-98172005D01*
X157258105Y-98172008D01*
X157258106Y-98172009D01*
X157383794Y-98345004D01*
X157534996Y-98496206D01*
X157707991Y-98621894D01*
X157794542Y-98665994D01*
X157898516Y-98718972D01*
X157898519Y-98718973D01*
X158000200Y-98752010D01*
X158101884Y-98785049D01*
X158313084Y-98818500D01*
X158313085Y-98818500D01*
X158526915Y-98818500D01*
X158526916Y-98818500D01*
X158738116Y-98785049D01*
X158941483Y-98718972D01*
X159132009Y-98621894D01*
X159305004Y-98496206D01*
X159456206Y-98345004D01*
X159581894Y-98172009D01*
X159581896Y-98172004D01*
X159584270Y-98168132D01*
X159636080Y-98121254D01*
X159705009Y-98109829D01*
X159769173Y-98137483D01*
X159795730Y-98168132D01*
X159798103Y-98172005D01*
X159798105Y-98172008D01*
X159798106Y-98172009D01*
X159923794Y-98345004D01*
X160074996Y-98496206D01*
X160247991Y-98621894D01*
X160334542Y-98665994D01*
X160438516Y-98718972D01*
X160438519Y-98718973D01*
X160540200Y-98752010D01*
X160641884Y-98785049D01*
X160853084Y-98818500D01*
X160853085Y-98818500D01*
X161066915Y-98818500D01*
X161066916Y-98818500D01*
X161278116Y-98785049D01*
X161481483Y-98718972D01*
X161672009Y-98621894D01*
X161845004Y-98496206D01*
X161996206Y-98345004D01*
X162121894Y-98172009D01*
X162121896Y-98172004D01*
X162124270Y-98168132D01*
X162176080Y-98121254D01*
X162245009Y-98109829D01*
X162309173Y-98137483D01*
X162335730Y-98168132D01*
X162338103Y-98172005D01*
X162338105Y-98172008D01*
X162338106Y-98172009D01*
X162463794Y-98345004D01*
X162614996Y-98496206D01*
X162787991Y-98621894D01*
X162874542Y-98665994D01*
X162978516Y-98718972D01*
X162978519Y-98718973D01*
X163080200Y-98752010D01*
X163181884Y-98785049D01*
X163393084Y-98818500D01*
X163393085Y-98818500D01*
X163606915Y-98818500D01*
X163606916Y-98818500D01*
X163818116Y-98785049D01*
X164021483Y-98718972D01*
X164212009Y-98621894D01*
X164385004Y-98496206D01*
X164536206Y-98345004D01*
X164661894Y-98172009D01*
X164758972Y-97981483D01*
X164825049Y-97778116D01*
X164858500Y-97566916D01*
X164858500Y-97353084D01*
X164825049Y-97141884D01*
X164758972Y-96938517D01*
X164758972Y-96938516D01*
X164703495Y-96829638D01*
X164661894Y-96747991D01*
X164536206Y-96574996D01*
X164385004Y-96423794D01*
X164212009Y-96298106D01*
X164197113Y-96290516D01*
X164021483Y-96201027D01*
X164021480Y-96201026D01*
X163818117Y-96134951D01*
X163698951Y-96116077D01*
X163606916Y-96101500D01*
X163393084Y-96101500D01*
X163393079Y-96101500D01*
X163301045Y-96116077D01*
X163231752Y-96107123D01*
X163193966Y-96081285D01*
X162543819Y-95431138D01*
X162510334Y-95369815D01*
X162507500Y-95343457D01*
X162507500Y-92242326D01*
X163939500Y-92242326D01*
X163939500Y-92517667D01*
X163939501Y-92517684D01*
X163975438Y-92790655D01*
X163975439Y-92790660D01*
X163975440Y-92790666D01*
X164004115Y-92897682D01*
X164046704Y-93056630D01*
X164152075Y-93311017D01*
X164152080Y-93311028D01*
X164203449Y-93400000D01*
X164289751Y-93549479D01*
X164289753Y-93549482D01*
X164289754Y-93549483D01*
X164457370Y-93767926D01*
X164457376Y-93767933D01*
X164652066Y-93962623D01*
X164652073Y-93962629D01*
X164780403Y-94061099D01*
X164870521Y-94130249D01*
X164999569Y-94204755D01*
X165108971Y-94267919D01*
X165108976Y-94267921D01*
X165108979Y-94267923D01*
X165363368Y-94373295D01*
X165629334Y-94444560D01*
X165902326Y-94480500D01*
X165902333Y-94480500D01*
X166177667Y-94480500D01*
X166177674Y-94480500D01*
X166450666Y-94444560D01*
X166716632Y-94373295D01*
X166971021Y-94267923D01*
X167209479Y-94130249D01*
X167427928Y-93962628D01*
X167622628Y-93767928D01*
X167790249Y-93549479D01*
X167927923Y-93311021D01*
X168033295Y-93056632D01*
X168104560Y-92790666D01*
X168140500Y-92517674D01*
X168140500Y-92242326D01*
X168104560Y-91969334D01*
X168033295Y-91703368D01*
X167927923Y-91448979D01*
X167927921Y-91448976D01*
X167927919Y-91448971D01*
X167859801Y-91330989D01*
X167790249Y-91210521D01*
X167622628Y-90992072D01*
X167622623Y-90992066D01*
X167427933Y-90797376D01*
X167427926Y-90797370D01*
X167209483Y-90629754D01*
X167209482Y-90629753D01*
X167209479Y-90629751D01*
X167114407Y-90574861D01*
X166971028Y-90492080D01*
X166971017Y-90492075D01*
X166716630Y-90386704D01*
X166563393Y-90345645D01*
X166450666Y-90315440D01*
X166450660Y-90315439D01*
X166450655Y-90315438D01*
X166177684Y-90279501D01*
X166177679Y-90279500D01*
X166177674Y-90279500D01*
X165902326Y-90279500D01*
X165902320Y-90279500D01*
X165902315Y-90279501D01*
X165629344Y-90315438D01*
X165629337Y-90315439D01*
X165629334Y-90315440D01*
X165573125Y-90330500D01*
X165363369Y-90386704D01*
X165108982Y-90492075D01*
X165108971Y-90492080D01*
X164870516Y-90629754D01*
X164652073Y-90797370D01*
X164652066Y-90797376D01*
X164457376Y-90992066D01*
X164457370Y-90992073D01*
X164289754Y-91210516D01*
X164152080Y-91448971D01*
X164152075Y-91448982D01*
X164046704Y-91703369D01*
X163975441Y-91969331D01*
X163975438Y-91969344D01*
X163939501Y-92242315D01*
X163939500Y-92242326D01*
X162507500Y-92242326D01*
X162507500Y-86874000D01*
X162527185Y-86806961D01*
X162579989Y-86761206D01*
X162631500Y-86750000D01*
X163250000Y-86750000D01*
X163250000Y-85565686D01*
X163254394Y-85570080D01*
X163345606Y-85622741D01*
X163447339Y-85650000D01*
X163552661Y-85650000D01*
X163654394Y-85622741D01*
X163745606Y-85570080D01*
X163750000Y-85565686D01*
X163750000Y-86750000D01*
X164547828Y-86750000D01*
X164547844Y-86749999D01*
X164607372Y-86743598D01*
X164607379Y-86743596D01*
X164742086Y-86693354D01*
X164742093Y-86693350D01*
X164857187Y-86607190D01*
X164857190Y-86607187D01*
X164943350Y-86492093D01*
X164943354Y-86492086D01*
X164993596Y-86357379D01*
X164993598Y-86357372D01*
X164999999Y-86297844D01*
X165000000Y-86297827D01*
X165000000Y-85500000D01*
X163815686Y-85500000D01*
X163820080Y-85495606D01*
X163872741Y-85404394D01*
X163900000Y-85302661D01*
X163900000Y-85197339D01*
X163872741Y-85095606D01*
X163820080Y-85004394D01*
X163815686Y-85000000D01*
X165000000Y-85000000D01*
X165000000Y-84202172D01*
X164999999Y-84202155D01*
X164993598Y-84142627D01*
X164993596Y-84142620D01*
X164943354Y-84007913D01*
X164943350Y-84007906D01*
X164857190Y-83892812D01*
X164745912Y-83809508D01*
X164704042Y-83753574D01*
X164699058Y-83683882D01*
X164719903Y-83637360D01*
X164790185Y-83540627D01*
X164897982Y-83329063D01*
X164971356Y-83103241D01*
X164975321Y-83078208D01*
X165008500Y-82868727D01*
X165008500Y-82631272D01*
X164983137Y-82471143D01*
X164975027Y-82419937D01*
X164983981Y-82350646D01*
X165009816Y-82312863D01*
X165840166Y-81482515D01*
X165923174Y-81358284D01*
X165980351Y-81220247D01*
X166002423Y-81109284D01*
X166009500Y-81073706D01*
X166009500Y-76950006D01*
X166009500Y-76950003D01*
X166009499Y-76950001D01*
X165980353Y-76803474D01*
X165980352Y-76803472D01*
X165980351Y-76803466D01*
X165974854Y-76790196D01*
X165923174Y-76665428D01*
X165840166Y-76541197D01*
X165840164Y-76541194D01*
X165840163Y-76541193D01*
X164708803Y-75409834D01*
X158567431Y-69268462D01*
X158533946Y-69207139D01*
X158538930Y-69137447D01*
X158580802Y-69081514D01*
X158646266Y-69057097D01*
X158693431Y-69062850D01*
X158878754Y-69123065D01*
X159111948Y-69160000D01*
X159888052Y-69160000D01*
X160121247Y-69123065D01*
X160345797Y-69050104D01*
X160472165Y-68985716D01*
X159629411Y-68142962D01*
X159692993Y-68125925D01*
X159807007Y-68060099D01*
X159900099Y-67967007D01*
X159965925Y-67852993D01*
X159982962Y-67789410D01*
X160872436Y-68678884D01*
X160914133Y-68637186D01*
X161052914Y-68446171D01*
X161160102Y-68235802D01*
X161233065Y-68011247D01*
X161270000Y-67778052D01*
X161270000Y-67541947D01*
X161233065Y-67308752D01*
X161160102Y-67084197D01*
X161052914Y-66873828D01*
X160914133Y-66682813D01*
X160872436Y-66641116D01*
X159982962Y-67530589D01*
X159965925Y-67467007D01*
X159900099Y-67352993D01*
X159807007Y-67259901D01*
X159692993Y-67194075D01*
X159629408Y-67177037D01*
X160238249Y-66568197D01*
X160287609Y-66537949D01*
X160349063Y-66517982D01*
X160560627Y-66410185D01*
X160752722Y-66270620D01*
X160920620Y-66102722D01*
X161060185Y-65910627D01*
X161167982Y-65699063D01*
X161241356Y-65473241D01*
X161248603Y-65427485D01*
X161278500Y-65238727D01*
X161278500Y-65001272D01*
X161241356Y-64766758D01*
X161189877Y-64608324D01*
X161167982Y-64540937D01*
X161167980Y-64540934D01*
X161167980Y-64540932D01*
X161093022Y-64393819D01*
X161066852Y-64342457D01*
X161060186Y-64329374D01*
X161040539Y-64302332D01*
X163939500Y-64302332D01*
X163939500Y-64577667D01*
X163939501Y-64577684D01*
X163975438Y-64850655D01*
X163975439Y-64850660D01*
X163975440Y-64850666D01*
X163996496Y-64929247D01*
X164046704Y-65116630D01*
X164152075Y-65371017D01*
X164152080Y-65371028D01*
X164211094Y-65473241D01*
X164289751Y-65609479D01*
X164289753Y-65609482D01*
X164289754Y-65609483D01*
X164457370Y-65827926D01*
X164457376Y-65827933D01*
X164652066Y-66022623D01*
X164652072Y-66022628D01*
X164870521Y-66190249D01*
X165023778Y-66278732D01*
X165108971Y-66327919D01*
X165108976Y-66327921D01*
X165108979Y-66327923D01*
X165363368Y-66433295D01*
X165629334Y-66504560D01*
X165902326Y-66540500D01*
X165902333Y-66540500D01*
X166177667Y-66540500D01*
X166177674Y-66540500D01*
X166450666Y-66504560D01*
X166716632Y-66433295D01*
X166971021Y-66327923D01*
X167209479Y-66190249D01*
X167427928Y-66022628D01*
X167622628Y-65827928D01*
X167790249Y-65609479D01*
X167927923Y-65371021D01*
X168033295Y-65116632D01*
X168104560Y-64850666D01*
X168140500Y-64577674D01*
X168140500Y-64302326D01*
X168104560Y-64029334D01*
X168033295Y-63763368D01*
X167927923Y-63508979D01*
X167927921Y-63508976D01*
X167927919Y-63508971D01*
X167848045Y-63370627D01*
X167790249Y-63270521D01*
X167622628Y-63052072D01*
X167622623Y-63052066D01*
X167427933Y-62857376D01*
X167427926Y-62857370D01*
X167209483Y-62689754D01*
X167209482Y-62689753D01*
X167209479Y-62689751D01*
X167114407Y-62634861D01*
X166971028Y-62552080D01*
X166971017Y-62552075D01*
X166716630Y-62446704D01*
X166583649Y-62411072D01*
X166450666Y-62375440D01*
X166450660Y-62375439D01*
X166450655Y-62375438D01*
X166177684Y-62339501D01*
X166177679Y-62339500D01*
X166177674Y-62339500D01*
X165902326Y-62339500D01*
X165902320Y-62339500D01*
X165902315Y-62339501D01*
X165629344Y-62375438D01*
X165629337Y-62375439D01*
X165629334Y-62375440D01*
X165616720Y-62378820D01*
X165363369Y-62446704D01*
X165108982Y-62552075D01*
X165108971Y-62552080D01*
X164870516Y-62689754D01*
X164652073Y-62857370D01*
X164652066Y-62857376D01*
X164457376Y-63052066D01*
X164457370Y-63052073D01*
X164289754Y-63270516D01*
X164152080Y-63508971D01*
X164152075Y-63508982D01*
X164052374Y-63749681D01*
X164046705Y-63763368D01*
X164002223Y-63929380D01*
X163975441Y-64029331D01*
X163975438Y-64029344D01*
X163939501Y-64302315D01*
X163939500Y-64302332D01*
X161040539Y-64302332D01*
X160977673Y-64215805D01*
X160920620Y-64137278D01*
X160752722Y-63969380D01*
X160752718Y-63969376D01*
X160726487Y-63950319D01*
X160683820Y-63894990D01*
X160677840Y-63825376D01*
X160710446Y-63763581D01*
X160726487Y-63749681D01*
X160752718Y-63730623D01*
X160752718Y-63730622D01*
X160752722Y-63730620D01*
X160920620Y-63562722D01*
X161060185Y-63370627D01*
X161167982Y-63159063D01*
X161241356Y-62933241D01*
X161247691Y-62893241D01*
X161278500Y-62698727D01*
X161278500Y-62461272D01*
X161241356Y-62226758D01*
X161167980Y-62000932D01*
X161060184Y-61789372D01*
X161048284Y-61772993D01*
X160920620Y-61597278D01*
X160752722Y-61429380D01*
X160752718Y-61429376D01*
X160726487Y-61410319D01*
X160683820Y-61354990D01*
X160677840Y-61285376D01*
X160710446Y-61223581D01*
X160726487Y-61209681D01*
X160752718Y-61190623D01*
X160752718Y-61190622D01*
X160752722Y-61190620D01*
X160920620Y-61022722D01*
X161060185Y-60830627D01*
X161167982Y-60619063D01*
X161241356Y-60393241D01*
X161256361Y-60298504D01*
X161278500Y-60158727D01*
X161278500Y-59921272D01*
X161241356Y-59686758D01*
X161167980Y-59460932D01*
X161060184Y-59249372D01*
X161031122Y-59209372D01*
X161010210Y-59180589D01*
X160986731Y-59114783D01*
X161002556Y-59046729D01*
X161017713Y-59026783D01*
X161017346Y-59026486D01*
X161021434Y-59021437D01*
X161021436Y-59021436D01*
X161139107Y-58876125D01*
X161223994Y-58709524D01*
X161272388Y-58528915D01*
X161278500Y-58451258D01*
X161278500Y-56548742D01*
X161272388Y-56471085D01*
X161223994Y-56290476D01*
X161194975Y-56233524D01*
X161139109Y-56123877D01*
X161080888Y-56051981D01*
X161021436Y-55978564D01*
X160936191Y-55909533D01*
X160876122Y-55860890D01*
X160709522Y-55776005D01*
X160528912Y-55727611D01*
X160451263Y-55721500D01*
X160451258Y-55721500D01*
X160382500Y-55721500D01*
X160315461Y-55701815D01*
X160269706Y-55649011D01*
X160258500Y-55597500D01*
X160258500Y-54129493D01*
X160268257Y-54096264D01*
X160277853Y-54062972D01*
X160278114Y-54062693D01*
X160278185Y-54062454D01*
X160300833Y-54036184D01*
X160305064Y-54032480D01*
X160352430Y-53998068D01*
X160498068Y-53852430D01*
X160619129Y-53685803D01*
X160712634Y-53502290D01*
X160776280Y-53306408D01*
X160808500Y-53102981D01*
X160808500Y-52897019D01*
X160776280Y-52693592D01*
X160712634Y-52497710D01*
X160712632Y-52497707D01*
X160712632Y-52497705D01*
X160668367Y-52410831D01*
X160619129Y-52314197D01*
X160587488Y-52270647D01*
X160498073Y-52147576D01*
X160498069Y-52147571D01*
X160408882Y-52058384D01*
X160352430Y-52001932D01*
X160305060Y-51967516D01*
X160300833Y-51963816D01*
X160284984Y-51938883D01*
X160266949Y-51915495D01*
X160265620Y-51908421D01*
X160263351Y-51904851D01*
X160263392Y-51896556D01*
X160258500Y-51870507D01*
X160258500Y-50569598D01*
X160278185Y-50502559D01*
X160330989Y-50456804D01*
X160400147Y-50446860D01*
X160433833Y-50457543D01*
X160434014Y-50457107D01*
X160438519Y-50458973D01*
X160540200Y-50492010D01*
X160641884Y-50525049D01*
X160853084Y-50558500D01*
X160853085Y-50558500D01*
X161066915Y-50558500D01*
X161066916Y-50558500D01*
X161278116Y-50525049D01*
X161481483Y-50458972D01*
X161672009Y-50361894D01*
X161845004Y-50236206D01*
X161996206Y-50085004D01*
X162121894Y-49912009D01*
X162121896Y-49912004D01*
X162124270Y-49908132D01*
X162176080Y-49861254D01*
X162245009Y-49849829D01*
X162309173Y-49877483D01*
X162335730Y-49908132D01*
X162338103Y-49912005D01*
X162338106Y-49912009D01*
X162463794Y-50085004D01*
X162614996Y-50236206D01*
X162787991Y-50361894D01*
X162881438Y-50409507D01*
X162978516Y-50458972D01*
X162978519Y-50458973D01*
X163080200Y-50492010D01*
X163181884Y-50525049D01*
X163393084Y-50558500D01*
X163393085Y-50558500D01*
X163606915Y-50558500D01*
X163606916Y-50558500D01*
X163818116Y-50525049D01*
X164021483Y-50458972D01*
X164212009Y-50361894D01*
X164385004Y-50236206D01*
X164536206Y-50085004D01*
X164661894Y-49912009D01*
X164758972Y-49721483D01*
X164825049Y-49518116D01*
X164858500Y-49306916D01*
X164858500Y-49093084D01*
X164825049Y-48881884D01*
X164758972Y-48678517D01*
X164758972Y-48678516D01*
X164709507Y-48581438D01*
X164661894Y-48487991D01*
X164536206Y-48314996D01*
X164385004Y-48163794D01*
X164212009Y-48038106D01*
X164197113Y-48030516D01*
X164021483Y-47941027D01*
X164021480Y-47941026D01*
X163818117Y-47874951D01*
X163712516Y-47858225D01*
X163606916Y-47841500D01*
X163393084Y-47841500D01*
X163322684Y-47852650D01*
X163181882Y-47874951D01*
X162978519Y-47941026D01*
X162978516Y-47941027D01*
X162787990Y-48038106D01*
X162614993Y-48163796D01*
X162463796Y-48314993D01*
X162338105Y-48487991D01*
X162335727Y-48491873D01*
X162283914Y-48538748D01*
X162214984Y-48550169D01*
X162150822Y-48522512D01*
X162124273Y-48491873D01*
X162121894Y-48487991D01*
X162087336Y-48440426D01*
X161996206Y-48314996D01*
X161845004Y-48163794D01*
X161672009Y-48038106D01*
X161657113Y-48030516D01*
X161481483Y-47941027D01*
X161481480Y-47941026D01*
X161278117Y-47874951D01*
X161172516Y-47858225D01*
X161066916Y-47841500D01*
X160853084Y-47841500D01*
X160782684Y-47852650D01*
X160641882Y-47874951D01*
X160438519Y-47941026D01*
X160438516Y-47941027D01*
X160247990Y-48038106D01*
X160074993Y-48163796D01*
X159923796Y-48314993D01*
X159798105Y-48487991D01*
X159795727Y-48491873D01*
X159743914Y-48538748D01*
X159674984Y-48550169D01*
X159610822Y-48522512D01*
X159584273Y-48491873D01*
X159581894Y-48487991D01*
X159547336Y-48440426D01*
X159456206Y-48314996D01*
X159305004Y-48163794D01*
X159132009Y-48038106D01*
X159117113Y-48030516D01*
X158941483Y-47941027D01*
X158941480Y-47941026D01*
X158738117Y-47874951D01*
X158632516Y-47858225D01*
X158526916Y-47841500D01*
X158313084Y-47841500D01*
X158242684Y-47852650D01*
X158101882Y-47874951D01*
X157898519Y-47941026D01*
X157898516Y-47941027D01*
X157707990Y-48038106D01*
X157534993Y-48163796D01*
X157383796Y-48314993D01*
X157258105Y-48487991D01*
X157255727Y-48491873D01*
X157203914Y-48538748D01*
X157134984Y-48550169D01*
X157070822Y-48522512D01*
X157044273Y-48491873D01*
X157041894Y-48487991D01*
X157007336Y-48440426D01*
X156916206Y-48314996D01*
X156765004Y-48163794D01*
X156592009Y-48038106D01*
X156577113Y-48030516D01*
X156401483Y-47941027D01*
X156401480Y-47941026D01*
X156198117Y-47874951D01*
X156092516Y-47858225D01*
X155986916Y-47841500D01*
X155773084Y-47841500D01*
X155702684Y-47852650D01*
X155561882Y-47874951D01*
X155358519Y-47941026D01*
X155358516Y-47941027D01*
X155167990Y-48038106D01*
X154994993Y-48163796D01*
X154843796Y-48314993D01*
X154718105Y-48487991D01*
X154715727Y-48491873D01*
X154663914Y-48538748D01*
X154594984Y-48550169D01*
X154530822Y-48522512D01*
X154504273Y-48491873D01*
X154501894Y-48487991D01*
X154467336Y-48440426D01*
X154376206Y-48314996D01*
X154225004Y-48163794D01*
X154052009Y-48038106D01*
X154037113Y-48030516D01*
X153861483Y-47941027D01*
X153861480Y-47941026D01*
X153658117Y-47874951D01*
X153552516Y-47858225D01*
X153446916Y-47841500D01*
X153233084Y-47841500D01*
X153162684Y-47852650D01*
X153021882Y-47874951D01*
X152818519Y-47941026D01*
X152818516Y-47941027D01*
X152627990Y-48038106D01*
X152454993Y-48163796D01*
X152303796Y-48314993D01*
X152178105Y-48487991D01*
X152175727Y-48491873D01*
X152123914Y-48538748D01*
X152054984Y-48550169D01*
X151990822Y-48522512D01*
X151964273Y-48491873D01*
X151961894Y-48487991D01*
X151927336Y-48440426D01*
X151836206Y-48314996D01*
X151685004Y-48163794D01*
X151512009Y-48038106D01*
X151497113Y-48030516D01*
X151321483Y-47941027D01*
X151321480Y-47941026D01*
X151118117Y-47874951D01*
X151012516Y-47858225D01*
X150906916Y-47841500D01*
X150693084Y-47841500D01*
X150622684Y-47852650D01*
X150481882Y-47874951D01*
X150278519Y-47941026D01*
X150278516Y-47941027D01*
X150087990Y-48038106D01*
X149914993Y-48163796D01*
X149763796Y-48314993D01*
X149638105Y-48487991D01*
X149635727Y-48491873D01*
X149583914Y-48538748D01*
X149514984Y-48550169D01*
X149450822Y-48522512D01*
X149424273Y-48491873D01*
X149421894Y-48487991D01*
X149387336Y-48440426D01*
X149296206Y-48314996D01*
X149145004Y-48163794D01*
X148972009Y-48038106D01*
X148957113Y-48030516D01*
X148781483Y-47941027D01*
X148781480Y-47941026D01*
X148578117Y-47874951D01*
X148472516Y-47858225D01*
X148366916Y-47841500D01*
X148153084Y-47841500D01*
X148082684Y-47852650D01*
X147941882Y-47874951D01*
X147738519Y-47941026D01*
X147738516Y-47941027D01*
X147547990Y-48038106D01*
X147374997Y-48163793D01*
X147269818Y-48268972D01*
X147208495Y-48302456D01*
X147138803Y-48297472D01*
X147082870Y-48255600D01*
X147065958Y-48224629D01*
X147020889Y-48103796D01*
X146933261Y-47986739D01*
X146816204Y-47899111D01*
X146679203Y-47848011D01*
X146618654Y-47841500D01*
X146618638Y-47841500D01*
X144821362Y-47841500D01*
X144821345Y-47841500D01*
X144760797Y-47848011D01*
X144760795Y-47848011D01*
X144623795Y-47899111D01*
X144506739Y-47986739D01*
X144419111Y-48103795D01*
X144368011Y-48240795D01*
X144368011Y-48240797D01*
X144361500Y-48301345D01*
X144361500Y-50098654D01*
X144368011Y-50159202D01*
X144368011Y-50159204D01*
X144419111Y-50296204D01*
X144506739Y-50413261D01*
X144623796Y-50500889D01*
X144760799Y-50551989D01*
X144788050Y-50554918D01*
X144821345Y-50558499D01*
X144821362Y-50558500D01*
X146191457Y-50558500D01*
X146258496Y-50578185D01*
X146304251Y-50630989D01*
X146314195Y-50700147D01*
X146285170Y-50763703D01*
X146279138Y-50770181D01*
X144994484Y-52054835D01*
X144941658Y-52107660D01*
X144888833Y-52160485D01*
X144805829Y-52284709D01*
X144805822Y-52284722D01*
X144748650Y-52422749D01*
X144748647Y-52422759D01*
X144719500Y-52569291D01*
X144719500Y-64782709D01*
X144748647Y-64929239D01*
X144748649Y-64929247D01*
X144798150Y-65048754D01*
X144805826Y-65067284D01*
X144847330Y-65129399D01*
X144888835Y-65191517D01*
X144888836Y-65191518D01*
X145800041Y-66102722D01*
X146680835Y-66983516D01*
X146786484Y-67089165D01*
X146843430Y-67127215D01*
X146849743Y-67132806D01*
X146859816Y-67148859D01*
X146878015Y-67169339D01*
X146890619Y-67194075D01*
X146939815Y-67290627D01*
X147079380Y-67482722D01*
X147247278Y-67650620D01*
X147247281Y-67650622D01*
X147250983Y-67653784D01*
X147250022Y-67654908D01*
X147288659Y-67705031D01*
X147294627Y-67774645D01*
X147262011Y-67836435D01*
X147250872Y-67846086D01*
X147250983Y-67846216D01*
X147247275Y-67849382D01*
X147079382Y-68017275D01*
X146939815Y-68209372D01*
X146832019Y-68420932D01*
X146758643Y-68646758D01*
X146721500Y-68881272D01*
X146721500Y-69118727D01*
X146758643Y-69353241D01*
X146832019Y-69579067D01*
X146912097Y-69736227D01*
X146939815Y-69790627D01*
X147079380Y-69982722D01*
X147247278Y-70150620D01*
X147439373Y-70290185D01*
X147539328Y-70341114D01*
X147650932Y-70397980D01*
X147650934Y-70397980D01*
X147650937Y-70397982D01*
X147771984Y-70437312D01*
X147876758Y-70471356D01*
X148111273Y-70508500D01*
X148111278Y-70508500D01*
X148888727Y-70508500D01*
X149123241Y-70471356D01*
X149349063Y-70397982D01*
X149560627Y-70290185D01*
X149752722Y-70150620D01*
X149920620Y-69982722D01*
X150060185Y-69790627D01*
X150167982Y-69579063D01*
X150241356Y-69353241D01*
X150278500Y-69118727D01*
X150278500Y-68881272D01*
X150241356Y-68646758D01*
X150167980Y-68420932D01*
X150060184Y-68209372D01*
X150024313Y-68160000D01*
X149920620Y-68017278D01*
X149752722Y-67849380D01*
X149752720Y-67849378D01*
X149749009Y-67846208D01*
X149749975Y-67845076D01*
X149711352Y-67794998D01*
X149705367Y-67725385D01*
X149737967Y-67663587D01*
X149749120Y-67653922D01*
X149749009Y-67653792D01*
X149752716Y-67650624D01*
X149752722Y-67650620D01*
X149920620Y-67482722D01*
X150060185Y-67290627D01*
X150167982Y-67079063D01*
X150241356Y-66853241D01*
X150244431Y-66833828D01*
X150278500Y-66618727D01*
X150278500Y-66381272D01*
X150241356Y-66146758D01*
X150167980Y-65920932D01*
X150060184Y-65709372D01*
X150045930Y-65689753D01*
X149920620Y-65517278D01*
X149752722Y-65349380D01*
X149752720Y-65349378D01*
X149749009Y-65346208D01*
X149749975Y-65345076D01*
X149711352Y-65294998D01*
X149705367Y-65225385D01*
X149737967Y-65163587D01*
X149749120Y-65153922D01*
X149749009Y-65153792D01*
X149752716Y-65150624D01*
X149752722Y-65150620D01*
X149920620Y-64982722D01*
X150060185Y-64790627D01*
X150167982Y-64579063D01*
X150241356Y-64353241D01*
X150254302Y-64271504D01*
X150278500Y-64118727D01*
X150278500Y-63881272D01*
X150241356Y-63646758D01*
X150201053Y-63522718D01*
X150167982Y-63420937D01*
X150167980Y-63420934D01*
X150167980Y-63420932D01*
X150077616Y-63243584D01*
X150060185Y-63209373D01*
X149920620Y-63017278D01*
X149752722Y-62849380D01*
X149752720Y-62849378D01*
X149746782Y-62845064D01*
X149704117Y-62789734D01*
X149698138Y-62720121D01*
X149730744Y-62658326D01*
X149746788Y-62644424D01*
X149747182Y-62644137D01*
X149914133Y-62477186D01*
X150052914Y-62286171D01*
X150160102Y-62075802D01*
X150233065Y-61851247D01*
X150249102Y-61750000D01*
X148933012Y-61750000D01*
X148965925Y-61692993D01*
X149000000Y-61565826D01*
X149000000Y-61434174D01*
X148965925Y-61307007D01*
X148933012Y-61250000D01*
X150249102Y-61250000D01*
X150233065Y-61148752D01*
X150160102Y-60924197D01*
X150052914Y-60713828D01*
X149914133Y-60522813D01*
X149747186Y-60355866D01*
X149747175Y-60355857D01*
X149746768Y-60355561D01*
X149746650Y-60355409D01*
X149743479Y-60352700D01*
X149744048Y-60352033D01*
X149704110Y-60300226D01*
X149698140Y-60230611D01*
X149730754Y-60168821D01*
X149746778Y-60154938D01*
X149752722Y-60150620D01*
X149920620Y-59982722D01*
X150046389Y-59809614D01*
X150101719Y-59766949D01*
X150146707Y-59758500D01*
X153932541Y-59758500D01*
X153999580Y-59778185D01*
X154020222Y-59794819D01*
X156604223Y-62378820D01*
X156637708Y-62440143D01*
X156640542Y-62466501D01*
X156640542Y-64323748D01*
X156653850Y-64390649D01*
X156654481Y-64393819D01*
X156669691Y-64470289D01*
X156718931Y-64589166D01*
X156726868Y-64608326D01*
X156737070Y-64623594D01*
X156809877Y-64732559D01*
X156809878Y-64732560D01*
X157109637Y-65032318D01*
X157143122Y-65093641D01*
X157138138Y-65163332D01*
X157109637Y-65207680D01*
X156889835Y-65427482D01*
X156806825Y-65551717D01*
X156749649Y-65689752D01*
X156749649Y-65689753D01*
X156739356Y-65741500D01*
X156720500Y-65836291D01*
X156720500Y-69327421D01*
X156749647Y-69473951D01*
X156749649Y-69473959D01*
X156806825Y-69611994D01*
X156889835Y-69736229D01*
X156889836Y-69736230D01*
X162347555Y-75193948D01*
X162381040Y-75255271D01*
X162376056Y-75324963D01*
X162334184Y-75380896D01*
X162328766Y-75384731D01*
X162291197Y-75409834D01*
X162291193Y-75409836D01*
X160910838Y-76790192D01*
X160910835Y-76790194D01*
X160827825Y-76914429D01*
X160770649Y-77052464D01*
X160770649Y-77052465D01*
X160765344Y-77079135D01*
X160765344Y-77079136D01*
X160741500Y-77199003D01*
X160741500Y-77968828D01*
X160721815Y-78035867D01*
X160705181Y-78056509D01*
X158910836Y-79850853D01*
X158910835Y-79850854D01*
X158827828Y-79975084D01*
X158827824Y-79975091D01*
X158785271Y-80077826D01*
X158770649Y-80113125D01*
X158770647Y-80113131D01*
X158741500Y-80259663D01*
X158741500Y-83117500D01*
X158721815Y-83184539D01*
X158669011Y-83230294D01*
X158617500Y-83241500D01*
X154001939Y-83241500D01*
X153934900Y-83221815D01*
X153914258Y-83205181D01*
X153787287Y-83078210D01*
X153787285Y-83078208D01*
X153633392Y-82966398D01*
X153609821Y-82954388D01*
X153463907Y-82880040D01*
X153282991Y-82821256D01*
X153095116Y-82791500D01*
X153095111Y-82791500D01*
X152904889Y-82791500D01*
X152904884Y-82791500D01*
X152717008Y-82821256D01*
X152536092Y-82880040D01*
X152366607Y-82966398D01*
X152291313Y-83021103D01*
X152212715Y-83078208D01*
X152212713Y-83078210D01*
X152212712Y-83078210D01*
X152085742Y-83205181D01*
X152024419Y-83238666D01*
X151998061Y-83241500D01*
X135925292Y-83241500D01*
X135858512Y-83254784D01*
X135858511Y-83254784D01*
X135778761Y-83270647D01*
X135778749Y-83270650D01*
X135640719Y-83327823D01*
X135516482Y-83410835D01*
X134410835Y-84516482D01*
X134327825Y-84640717D01*
X134285075Y-84743925D01*
X134270649Y-84778753D01*
X134267169Y-84796245D01*
X134267169Y-84796246D01*
X134241500Y-84925290D01*
X134241500Y-86117500D01*
X134221815Y-86184539D01*
X134169011Y-86230294D01*
X134117500Y-86241500D01*
X131830543Y-86241500D01*
X131763504Y-86221815D01*
X131742862Y-86205181D01*
X130053319Y-84515638D01*
X130019834Y-84454315D01*
X130017000Y-84427957D01*
X130017000Y-84250007D01*
X130010577Y-84209457D01*
X129987279Y-84062360D01*
X129934727Y-83900620D01*
X129928572Y-83881675D01*
X129928571Y-83881672D01*
X129863301Y-83753574D01*
X129842319Y-83712394D01*
X129730648Y-83558692D01*
X129596308Y-83424352D01*
X129442606Y-83312681D01*
X129273327Y-83226428D01*
X129273324Y-83226427D01*
X129170230Y-83192931D01*
X129112555Y-83153494D01*
X129085356Y-83089136D01*
X129097270Y-83020289D01*
X129144514Y-82968813D01*
X129170230Y-82957069D01*
X129273324Y-82923572D01*
X129273327Y-82923571D01*
X129442606Y-82837319D01*
X129596308Y-82725648D01*
X129730648Y-82591308D01*
X129842319Y-82437606D01*
X129928571Y-82268327D01*
X129987279Y-82087640D01*
X130017000Y-81899993D01*
X130017000Y-81710007D01*
X129987279Y-81522360D01*
X129941439Y-81381278D01*
X129928572Y-81341675D01*
X129928571Y-81341672D01*
X129842318Y-81172393D01*
X129730648Y-81018692D01*
X129596308Y-80884352D01*
X129442606Y-80772681D01*
X129273327Y-80686428D01*
X129273324Y-80686427D01*
X129092641Y-80627721D01*
X128998816Y-80612860D01*
X128904993Y-80598000D01*
X128715007Y-80598000D01*
X128673899Y-80604511D01*
X128527358Y-80627721D01*
X128346675Y-80686427D01*
X128346672Y-80686428D01*
X128177393Y-80772681D01*
X128155216Y-80788794D01*
X128023692Y-80884352D01*
X128023690Y-80884354D01*
X128023689Y-80884354D01*
X127889354Y-81018689D01*
X127889354Y-81018690D01*
X127889352Y-81018692D01*
X127856302Y-81064181D01*
X127777681Y-81172393D01*
X127691428Y-81341672D01*
X127691427Y-81341675D01*
X127632721Y-81522358D01*
X127603000Y-81710007D01*
X127603000Y-81899992D01*
X127632721Y-82087641D01*
X127691427Y-82268324D01*
X127691428Y-82268327D01*
X127759685Y-82402287D01*
X127777681Y-82437606D01*
X127889352Y-82591308D01*
X128023692Y-82725648D01*
X128177394Y-82837319D01*
X128235175Y-82866760D01*
X128346672Y-82923571D01*
X128346675Y-82923572D01*
X128449769Y-82957069D01*
X128507444Y-82996506D01*
X128534643Y-83060865D01*
X128522729Y-83129711D01*
X128475485Y-83181187D01*
X128449769Y-83192931D01*
X128346675Y-83226427D01*
X128346672Y-83226428D01*
X128177393Y-83312681D01*
X128089701Y-83376393D01*
X128023692Y-83424352D01*
X128023690Y-83424354D01*
X128023689Y-83424354D01*
X127889354Y-83558689D01*
X127889354Y-83558690D01*
X127889352Y-83558692D01*
X127841393Y-83624701D01*
X127777681Y-83712393D01*
X127691428Y-83881672D01*
X127691427Y-83881675D01*
X127632721Y-84062358D01*
X127603000Y-84250007D01*
X127603000Y-84305957D01*
X127596761Y-84327202D01*
X127595182Y-84349291D01*
X127587109Y-84360074D01*
X127583315Y-84372996D01*
X127566581Y-84387495D01*
X127553310Y-84405224D01*
X127540689Y-84409931D01*
X127530511Y-84418751D01*
X127508593Y-84421902D01*
X127487846Y-84429641D01*
X127474685Y-84426778D01*
X127461353Y-84428695D01*
X127441209Y-84419495D01*
X127419573Y-84414789D01*
X127401847Y-84401520D01*
X127397797Y-84399670D01*
X127391319Y-84393638D01*
X127294819Y-84297138D01*
X127261334Y-84235815D01*
X127258500Y-84209457D01*
X127258500Y-77629493D01*
X127278185Y-77562454D01*
X127309615Y-77529175D01*
X127352426Y-77498071D01*
X127352426Y-77498070D01*
X127352430Y-77498068D01*
X127498068Y-77352430D01*
X127619129Y-77185803D01*
X127712634Y-77002290D01*
X127776280Y-76806408D01*
X127808500Y-76602981D01*
X127808500Y-76397019D01*
X127776280Y-76193592D01*
X127712634Y-75997710D01*
X127712632Y-75997707D01*
X127712632Y-75997705D01*
X127678709Y-75931128D01*
X127619129Y-75814197D01*
X127603661Y-75792908D01*
X127498073Y-75647576D01*
X127498069Y-75647571D01*
X127352432Y-75501934D01*
X127352426Y-75501929D01*
X127309615Y-75470825D01*
X127266949Y-75415495D01*
X127258500Y-75370507D01*
X127258500Y-73064009D01*
X127278185Y-72996970D01*
X127309609Y-72963695D01*
X127367285Y-72921792D01*
X127501792Y-72787285D01*
X127613602Y-72633392D01*
X127699961Y-72463903D01*
X127758743Y-72282991D01*
X127788500Y-72095116D01*
X127788500Y-71904883D01*
X127758743Y-71717008D01*
X127699959Y-71536092D01*
X127613601Y-71366607D01*
X127501792Y-71212715D01*
X127367285Y-71078208D01*
X127213392Y-70966398D01*
X127043907Y-70880040D01*
X126862991Y-70821256D01*
X126675116Y-70791500D01*
X126675111Y-70791500D01*
X126484889Y-70791500D01*
X126484884Y-70791500D01*
X126297008Y-70821256D01*
X126116092Y-70880040D01*
X125946607Y-70966398D01*
X125866749Y-71024419D01*
X125792715Y-71078208D01*
X125792713Y-71078210D01*
X125792712Y-71078210D01*
X125658210Y-71212712D01*
X125658210Y-71212713D01*
X125658208Y-71212715D01*
X125610189Y-71278806D01*
X125546398Y-71366607D01*
X125460040Y-71536092D01*
X125401256Y-71717008D01*
X125371500Y-71904883D01*
X125371500Y-72095116D01*
X125401256Y-72282991D01*
X125460040Y-72463907D01*
X125546398Y-72633392D01*
X125658208Y-72787285D01*
X125658210Y-72787287D01*
X125705181Y-72834258D01*
X125738666Y-72895581D01*
X125741500Y-72921939D01*
X125741500Y-75370507D01*
X125721815Y-75437546D01*
X125690385Y-75470825D01*
X125647573Y-75501929D01*
X125647567Y-75501934D01*
X125501930Y-75647571D01*
X125501926Y-75647576D01*
X125380873Y-75814193D01*
X125287367Y-75997705D01*
X125223719Y-76193591D01*
X125191500Y-76397019D01*
X125191500Y-76602980D01*
X125223719Y-76806408D01*
X125287367Y-77002294D01*
X125380873Y-77185806D01*
X125501926Y-77352423D01*
X125501930Y-77352428D01*
X125647573Y-77498071D01*
X125690385Y-77529175D01*
X125733051Y-77584504D01*
X125741500Y-77629493D01*
X125741500Y-84649706D01*
X125745969Y-84672172D01*
X125745969Y-84672174D01*
X125763140Y-84758500D01*
X125770649Y-84796247D01*
X125775653Y-84808327D01*
X125827825Y-84934282D01*
X125910835Y-85058517D01*
X125910836Y-85058518D01*
X127566681Y-86714362D01*
X127600166Y-86775685D01*
X127603000Y-86802043D01*
X127603000Y-86979993D01*
X127605645Y-86996691D01*
X127632721Y-87167641D01*
X127691427Y-87348324D01*
X127691428Y-87348327D01*
X127767541Y-87497705D01*
X127777681Y-87517606D01*
X127889352Y-87671308D01*
X128023692Y-87805648D01*
X128177394Y-87917319D01*
X128260420Y-87959622D01*
X128346672Y-88003571D01*
X128346675Y-88003572D01*
X128449769Y-88037069D01*
X128507444Y-88076506D01*
X128534643Y-88140865D01*
X128522729Y-88209711D01*
X128475485Y-88261187D01*
X128449769Y-88272931D01*
X128346675Y-88306427D01*
X128346672Y-88306428D01*
X128177393Y-88392681D01*
X128103171Y-88446607D01*
X128023692Y-88504352D01*
X128023690Y-88504354D01*
X128023689Y-88504354D01*
X127889354Y-88638689D01*
X127889354Y-88638690D01*
X127889352Y-88638692D01*
X127849474Y-88693579D01*
X127777681Y-88792393D01*
X127691428Y-88961672D01*
X127691427Y-88961675D01*
X127632721Y-89142358D01*
X127603000Y-89330007D01*
X127603000Y-89519992D01*
X127632721Y-89707641D01*
X127691427Y-89888324D01*
X127691428Y-89888327D01*
X127747345Y-89998068D01*
X127777681Y-90057606D01*
X127889352Y-90211308D01*
X128023692Y-90345648D01*
X128177394Y-90457319D01*
X128257257Y-90498011D01*
X128274928Y-90507015D01*
X128325724Y-90554990D01*
X128342519Y-90622811D01*
X128319982Y-90688946D01*
X128265266Y-90732397D01*
X128218633Y-90741500D01*
X125865543Y-90741500D01*
X125798504Y-90721815D01*
X125777862Y-90705181D01*
X124794819Y-89722138D01*
X124761334Y-89660815D01*
X124758500Y-89634457D01*
X124758500Y-60365543D01*
X124778185Y-60298504D01*
X124794819Y-60277862D01*
X125237862Y-59834819D01*
X125299185Y-59801334D01*
X125325543Y-59798500D01*
X135353292Y-59798500D01*
X135358541Y-59800041D01*
X135363904Y-59798955D01*
X135391711Y-59809781D01*
X135420331Y-59818185D01*
X135425264Y-59822844D01*
X135429013Y-59824304D01*
X135453610Y-59849615D01*
X135494671Y-59906131D01*
X135518151Y-59971937D01*
X135502325Y-60039991D01*
X135488088Y-60058732D01*
X135488578Y-60059126D01*
X135364307Y-60213724D01*
X135279165Y-60385397D01*
X135232918Y-60571359D01*
X135230000Y-60614395D01*
X135230000Y-62545605D01*
X135230001Y-62545609D01*
X135232917Y-62588632D01*
X135232917Y-62588634D01*
X135279165Y-62774602D01*
X135336414Y-62890033D01*
X136517037Y-61709410D01*
X136534075Y-61772993D01*
X136599901Y-61887007D01*
X136692993Y-61980099D01*
X136807007Y-62045925D01*
X136870589Y-62062962D01*
X135689966Y-63243584D01*
X135805397Y-63300834D01*
X135991361Y-63347081D01*
X135991357Y-63347081D01*
X136034395Y-63349999D01*
X137965605Y-63349999D01*
X137965609Y-63349998D01*
X138008632Y-63347082D01*
X138008634Y-63347082D01*
X138194602Y-63300834D01*
X138310032Y-63243585D01*
X138310032Y-63243584D01*
X137129410Y-62062962D01*
X137192993Y-62045925D01*
X137307007Y-61980099D01*
X137400099Y-61887007D01*
X137465925Y-61772993D01*
X137482962Y-61709410D01*
X138663584Y-62890032D01*
X138663585Y-62890032D01*
X138720834Y-62774602D01*
X138767081Y-62588640D01*
X138769999Y-62545604D01*
X138769999Y-60614394D01*
X138769998Y-60614390D01*
X138767082Y-60571367D01*
X138767082Y-60571365D01*
X138720834Y-60385397D01*
X138663584Y-60269966D01*
X137482962Y-61450588D01*
X137465925Y-61387007D01*
X137400099Y-61272993D01*
X137307007Y-61179901D01*
X137192993Y-61114075D01*
X137129409Y-61097037D01*
X137738249Y-60488197D01*
X137787609Y-60457949D01*
X137849063Y-60437982D01*
X138060627Y-60330185D01*
X138252722Y-60190620D01*
X138420620Y-60022722D01*
X138560185Y-59830627D01*
X138667982Y-59619063D01*
X138741356Y-59393241D01*
X138748405Y-59348735D01*
X138778500Y-59158727D01*
X138778500Y-58921272D01*
X138741356Y-58686758D01*
X138689981Y-58528643D01*
X138667982Y-58460937D01*
X138667980Y-58460934D01*
X138667980Y-58460932D01*
X138591407Y-58310650D01*
X138560185Y-58249373D01*
X138420620Y-58057278D01*
X138252722Y-57889380D01*
X138252718Y-57889376D01*
X138226487Y-57870319D01*
X138183820Y-57814990D01*
X138177840Y-57745376D01*
X138210446Y-57683581D01*
X138226487Y-57669681D01*
X138252718Y-57650623D01*
X138252718Y-57650622D01*
X138252722Y-57650620D01*
X138420620Y-57482722D01*
X138560185Y-57290627D01*
X138667982Y-57079063D01*
X138741356Y-56853241D01*
X138749562Y-56801430D01*
X138778500Y-56618727D01*
X138778500Y-56381272D01*
X138741356Y-56146758D01*
X138667980Y-55920932D01*
X138594136Y-55776006D01*
X138560185Y-55709373D01*
X138420620Y-55517278D01*
X138252722Y-55349380D01*
X138060627Y-55209815D01*
X138004785Y-55181362D01*
X137849066Y-55102019D01*
X137849063Y-55102018D01*
X137844177Y-55100430D01*
X137786504Y-55060991D01*
X137759308Y-54996631D01*
X137758500Y-54982501D01*
X137758500Y-51681542D01*
X137778185Y-51614503D01*
X137794814Y-51593865D01*
X138809968Y-50578711D01*
X138871289Y-50545228D01*
X138917039Y-50543921D01*
X139009084Y-50558500D01*
X139009086Y-50558500D01*
X139222915Y-50558500D01*
X139222916Y-50558500D01*
X139434116Y-50525049D01*
X139637483Y-50458972D01*
X139828009Y-50361894D01*
X140001004Y-50236206D01*
X140152206Y-50085004D01*
X140277894Y-49912009D01*
X140277896Y-49912004D01*
X140280270Y-49908132D01*
X140332080Y-49861254D01*
X140401009Y-49849829D01*
X140465173Y-49877483D01*
X140491730Y-49908132D01*
X140494103Y-49912005D01*
X140494106Y-49912009D01*
X140619794Y-50085004D01*
X140770996Y-50236206D01*
X140943991Y-50361894D01*
X141037438Y-50409507D01*
X141134516Y-50458972D01*
X141134519Y-50458973D01*
X141236200Y-50492010D01*
X141337884Y-50525049D01*
X141549084Y-50558500D01*
X141549085Y-50558500D01*
X141762915Y-50558500D01*
X141762916Y-50558500D01*
X141974116Y-50525049D01*
X142177483Y-50458972D01*
X142368009Y-50361894D01*
X142541004Y-50236206D01*
X142692206Y-50085004D01*
X142817894Y-49912009D01*
X142914972Y-49721483D01*
X142981049Y-49518116D01*
X143014500Y-49306916D01*
X143014500Y-49093084D01*
X142981049Y-48881884D01*
X142914972Y-48678517D01*
X142914972Y-48678516D01*
X142865507Y-48581438D01*
X142817894Y-48487991D01*
X142692206Y-48314996D01*
X142541004Y-48163794D01*
X142368009Y-48038106D01*
X142353113Y-48030516D01*
X142177483Y-47941027D01*
X142177480Y-47941026D01*
X141974117Y-47874951D01*
X141868516Y-47858225D01*
X141762916Y-47841500D01*
X141549084Y-47841500D01*
X141478684Y-47852650D01*
X141337882Y-47874951D01*
X141134519Y-47941026D01*
X141134516Y-47941027D01*
X140943990Y-48038106D01*
X140770993Y-48163796D01*
X140619796Y-48314993D01*
X140494105Y-48487991D01*
X140491727Y-48491873D01*
X140439914Y-48538748D01*
X140370984Y-48550169D01*
X140306822Y-48522512D01*
X140280273Y-48491873D01*
X140277894Y-48487991D01*
X140243336Y-48440426D01*
X140152206Y-48314996D01*
X140001004Y-48163794D01*
X139828009Y-48038106D01*
X139813113Y-48030516D01*
X139637483Y-47941027D01*
X139637480Y-47941026D01*
X139434117Y-47874951D01*
X139328516Y-47858225D01*
X139222916Y-47841500D01*
X139009084Y-47841500D01*
X138938684Y-47852650D01*
X138797882Y-47874951D01*
X138594519Y-47941026D01*
X138594516Y-47941027D01*
X138403990Y-48038106D01*
X138230993Y-48163796D01*
X138079796Y-48314993D01*
X137954105Y-48487991D01*
X137951727Y-48491873D01*
X137899914Y-48538748D01*
X137830984Y-48550169D01*
X137766822Y-48522512D01*
X137740273Y-48491873D01*
X137737894Y-48487991D01*
X137703336Y-48440426D01*
X137612206Y-48314996D01*
X137461004Y-48163794D01*
X137288009Y-48038106D01*
X137273113Y-48030516D01*
X137097483Y-47941027D01*
X137097480Y-47941026D01*
X136894117Y-47874951D01*
X136788516Y-47858225D01*
X136682916Y-47841500D01*
X136469084Y-47841500D01*
X136398684Y-47852650D01*
X136257882Y-47874951D01*
X136054519Y-47941026D01*
X136054516Y-47941027D01*
X135863990Y-48038106D01*
X135690993Y-48163796D01*
X135539796Y-48314993D01*
X135414105Y-48487991D01*
X135411727Y-48491873D01*
X135359914Y-48538748D01*
X135290984Y-48550169D01*
X135226822Y-48522512D01*
X135200273Y-48491873D01*
X135197894Y-48487991D01*
X135163336Y-48440426D01*
X135072206Y-48314996D01*
X134921004Y-48163794D01*
X134748009Y-48038106D01*
X134733113Y-48030516D01*
X134557483Y-47941027D01*
X134557480Y-47941026D01*
X134354117Y-47874951D01*
X134248516Y-47858225D01*
X134142916Y-47841500D01*
X133929084Y-47841500D01*
X133858684Y-47852650D01*
X133717882Y-47874951D01*
X133514519Y-47941026D01*
X133514516Y-47941027D01*
X133323990Y-48038106D01*
X133150993Y-48163796D01*
X132999796Y-48314993D01*
X132874105Y-48487991D01*
X132871727Y-48491873D01*
X132819914Y-48538748D01*
X132750984Y-48550169D01*
X132686822Y-48522512D01*
X132660273Y-48491873D01*
X132657894Y-48487991D01*
X132623336Y-48440426D01*
X132532206Y-48314996D01*
X132381004Y-48163794D01*
X132208009Y-48038106D01*
X132193113Y-48030516D01*
X132017483Y-47941027D01*
X132017480Y-47941026D01*
X131814117Y-47874951D01*
X131708516Y-47858225D01*
X131602916Y-47841500D01*
X131389084Y-47841500D01*
X131318684Y-47852650D01*
X131177882Y-47874951D01*
X130974519Y-47941026D01*
X130974516Y-47941027D01*
X130783990Y-48038106D01*
X130610993Y-48163796D01*
X130459796Y-48314993D01*
X130334105Y-48487991D01*
X130331727Y-48491873D01*
X130279914Y-48538748D01*
X130210984Y-48550169D01*
X130146822Y-48522512D01*
X130120273Y-48491873D01*
X130117894Y-48487991D01*
X130083336Y-48440426D01*
X129992206Y-48314996D01*
X129841004Y-48163794D01*
X129668009Y-48038106D01*
X129653113Y-48030516D01*
X129477483Y-47941027D01*
X129477480Y-47941026D01*
X129274117Y-47874951D01*
X129168516Y-47858225D01*
X129062916Y-47841500D01*
X128849084Y-47841500D01*
X128778684Y-47852650D01*
X128637882Y-47874951D01*
X128434519Y-47941026D01*
X128434516Y-47941027D01*
X128243990Y-48038106D01*
X128070993Y-48163796D01*
X127919796Y-48314993D01*
X127794103Y-48487994D01*
X127791709Y-48492693D01*
X127743731Y-48543485D01*
X127675908Y-48560275D01*
X127609775Y-48537732D01*
X127573800Y-48496210D01*
X127573168Y-48496598D01*
X127570829Y-48492781D01*
X127570743Y-48492682D01*
X127570620Y-48492441D01*
X127445727Y-48320540D01*
X127445723Y-48320535D01*
X127295464Y-48170276D01*
X127295459Y-48170272D01*
X127123557Y-48045379D01*
X126934215Y-47948903D01*
X126732124Y-47883241D01*
X126666000Y-47872768D01*
X126666000Y-48766988D01*
X126608993Y-48734075D01*
X126481826Y-48700000D01*
X126350174Y-48700000D01*
X126223007Y-48734075D01*
X126166000Y-48766988D01*
X126166000Y-47872768D01*
X126165999Y-47872768D01*
X126099875Y-47883241D01*
X125897784Y-47948903D01*
X125708442Y-48045379D01*
X125536540Y-48170272D01*
X125536535Y-48170276D01*
X125386276Y-48320535D01*
X125386272Y-48320540D01*
X125261376Y-48492446D01*
X125261374Y-48492448D01*
X125261246Y-48492701D01*
X125261172Y-48492779D01*
X125258832Y-48496598D01*
X125258029Y-48496106D01*
X125213264Y-48543489D01*
X125145441Y-48560274D01*
X125079309Y-48537727D01*
X125040285Y-48492683D01*
X125037895Y-48487992D01*
X125003336Y-48440426D01*
X124912206Y-48314996D01*
X124761004Y-48163794D01*
X124588009Y-48038106D01*
X124573113Y-48030516D01*
X124397483Y-47941027D01*
X124397480Y-47941026D01*
X124194117Y-47874951D01*
X124088516Y-47858225D01*
X123982916Y-47841500D01*
X123769084Y-47841500D01*
X123698684Y-47852650D01*
X123557882Y-47874951D01*
X123354519Y-47941026D01*
X123354516Y-47941027D01*
X123163990Y-48038106D01*
X122990993Y-48163796D01*
X122839796Y-48314993D01*
X122714105Y-48487991D01*
X122711727Y-48491873D01*
X122659914Y-48538748D01*
X122590984Y-48550169D01*
X122526822Y-48522512D01*
X122500273Y-48491873D01*
X122497894Y-48487991D01*
X122463336Y-48440426D01*
X122372206Y-48314996D01*
X122221004Y-48163794D01*
X122048009Y-48038106D01*
X122033113Y-48030516D01*
X121857483Y-47941027D01*
X121857480Y-47941026D01*
X121654117Y-47874951D01*
X121548516Y-47858225D01*
X121442916Y-47841500D01*
X121229084Y-47841500D01*
X121158684Y-47852650D01*
X121017882Y-47874951D01*
X120814519Y-47941026D01*
X120814516Y-47941027D01*
X120623990Y-48038106D01*
X120450997Y-48163793D01*
X120345818Y-48268972D01*
X120284495Y-48302456D01*
X120214803Y-48297472D01*
X120158870Y-48255600D01*
X120141958Y-48224629D01*
X120096889Y-48103796D01*
X120009261Y-47986739D01*
X119892204Y-47899111D01*
X119755203Y-47848011D01*
X119694654Y-47841500D01*
X119694638Y-47841500D01*
X117897362Y-47841500D01*
X117897345Y-47841500D01*
X117836797Y-47848011D01*
X117836795Y-47848011D01*
X117699795Y-47899111D01*
X117582739Y-47986739D01*
X117495111Y-48103795D01*
X117444011Y-48240795D01*
X117444011Y-48240797D01*
X117437500Y-48301345D01*
X117437500Y-48392973D01*
X117417815Y-48460012D01*
X117365011Y-48505767D01*
X117295853Y-48515711D01*
X117232297Y-48486686D01*
X117198939Y-48440426D01*
X117141790Y-48302456D01*
X117127923Y-48268979D01*
X117127922Y-48268978D01*
X117127920Y-48268972D01*
X117127919Y-48268971D01*
X117032554Y-48103796D01*
X116990249Y-48030521D01*
X116870877Y-47874951D01*
X116822629Y-47812073D01*
X116822623Y-47812066D01*
X116627933Y-47617376D01*
X116627926Y-47617370D01*
X116409483Y-47449754D01*
X116409482Y-47449753D01*
X116409479Y-47449751D01*
X116314407Y-47394861D01*
X116171028Y-47312080D01*
X116171017Y-47312075D01*
X115916630Y-47206704D01*
X115739668Y-47159288D01*
X115650666Y-47135440D01*
X115650660Y-47135439D01*
X115650655Y-47135438D01*
X115377684Y-47099501D01*
X115377679Y-47099500D01*
X115377674Y-47099500D01*
X115102326Y-47099500D01*
X115102320Y-47099500D01*
X115102315Y-47099501D01*
X114829344Y-47135438D01*
X114829337Y-47135439D01*
X114829334Y-47135440D01*
X114780530Y-47148517D01*
X114563369Y-47206704D01*
X114308982Y-47312075D01*
X114308971Y-47312080D01*
X114070516Y-47449754D01*
X113852073Y-47617370D01*
X113852066Y-47617376D01*
X113657376Y-47812066D01*
X113657370Y-47812073D01*
X113489754Y-48030516D01*
X113352080Y-48268971D01*
X113352080Y-48268972D01*
X113246704Y-48523369D01*
X113175441Y-48789331D01*
X113175438Y-48789344D01*
X113139501Y-49062315D01*
X113139500Y-49062332D01*
X113139500Y-49337667D01*
X113139501Y-49337684D01*
X113175438Y-49610655D01*
X113175439Y-49610660D01*
X113175440Y-49610666D01*
X113199377Y-49700000D01*
X113246704Y-49876630D01*
X113352075Y-50131017D01*
X113352080Y-50131028D01*
X113434861Y-50274407D01*
X113489751Y-50369479D01*
X113489753Y-50369482D01*
X113489754Y-50369483D01*
X113657370Y-50587926D01*
X113657376Y-50587933D01*
X113852066Y-50782623D01*
X113852072Y-50782628D01*
X114070521Y-50950249D01*
X114223778Y-51038732D01*
X114308971Y-51087919D01*
X114308976Y-51087921D01*
X114308979Y-51087923D01*
X114563368Y-51193295D01*
X114829334Y-51264560D01*
X115102326Y-51300500D01*
X115102333Y-51300500D01*
X115377667Y-51300500D01*
X115377674Y-51300500D01*
X115650666Y-51264560D01*
X115916632Y-51193295D01*
X116171021Y-51087923D01*
X116409479Y-50950249D01*
X116627928Y-50782628D01*
X116822628Y-50587928D01*
X116990249Y-50369479D01*
X117127923Y-50131021D01*
X117198940Y-49959571D01*
X117242780Y-49905170D01*
X117309074Y-49883105D01*
X117376773Y-49900384D01*
X117424384Y-49951521D01*
X117437500Y-50007026D01*
X117437500Y-50098654D01*
X117444011Y-50159202D01*
X117444011Y-50159204D01*
X117495111Y-50296204D01*
X117582739Y-50413261D01*
X117699796Y-50500889D01*
X117836799Y-50551989D01*
X117864050Y-50554918D01*
X117897345Y-50558499D01*
X117897362Y-50558500D01*
X119694638Y-50558500D01*
X119694654Y-50558499D01*
X119721692Y-50555591D01*
X119755201Y-50551989D01*
X119892204Y-50500889D01*
X120009261Y-50413261D01*
X120096889Y-50296204D01*
X120141957Y-50175371D01*
X120183827Y-50119442D01*
X120249291Y-50095025D01*
X120317564Y-50109877D01*
X120345818Y-50131028D01*
X120450996Y-50236206D01*
X120623991Y-50361894D01*
X120717438Y-50409507D01*
X120814516Y-50458972D01*
X120814519Y-50458973D01*
X120916200Y-50492010D01*
X121017884Y-50525049D01*
X121229084Y-50558500D01*
X121229085Y-50558500D01*
X121442915Y-50558500D01*
X121442916Y-50558500D01*
X121654116Y-50525049D01*
X121857483Y-50458972D01*
X122048009Y-50361894D01*
X122221004Y-50236206D01*
X122372206Y-50085004D01*
X122497894Y-49912009D01*
X122497896Y-49912004D01*
X122500270Y-49908132D01*
X122552080Y-49861254D01*
X122621009Y-49849829D01*
X122685173Y-49877483D01*
X122711730Y-49908132D01*
X122714103Y-49912005D01*
X122714106Y-49912009D01*
X122839794Y-50085004D01*
X122990996Y-50236206D01*
X123163991Y-50361894D01*
X123257438Y-50409507D01*
X123354516Y-50458972D01*
X123354519Y-50458973D01*
X123456200Y-50492010D01*
X123557884Y-50525049D01*
X123769084Y-50558500D01*
X123769085Y-50558500D01*
X123982915Y-50558500D01*
X123982916Y-50558500D01*
X124194116Y-50525049D01*
X124397483Y-50458972D01*
X124588009Y-50361894D01*
X124761004Y-50236206D01*
X124912206Y-50085004D01*
X125037894Y-49912009D01*
X125040283Y-49907319D01*
X125088254Y-49856522D01*
X125156074Y-49839724D01*
X125222210Y-49862258D01*
X125258201Y-49903788D01*
X125258832Y-49903402D01*
X125261164Y-49907207D01*
X125261251Y-49907308D01*
X125261376Y-49907554D01*
X125386272Y-50079459D01*
X125386276Y-50079464D01*
X125536535Y-50229723D01*
X125536540Y-50229727D01*
X125708442Y-50354620D01*
X125897782Y-50451095D01*
X126099870Y-50516757D01*
X126262383Y-50542497D01*
X126325518Y-50572426D01*
X126362449Y-50631738D01*
X126361451Y-50701600D01*
X126330666Y-50752651D01*
X124878138Y-52205181D01*
X124816815Y-52238666D01*
X124790457Y-52241500D01*
X110425290Y-52241500D01*
X110352024Y-52256074D01*
X110278759Y-52270647D01*
X110278751Y-52270649D01*
X110244792Y-52284716D01*
X110140715Y-52327826D01*
X110130562Y-52334611D01*
X110130550Y-52334617D01*
X110016488Y-52410831D01*
X110016480Y-52410837D01*
X108269838Y-54157479D01*
X108269832Y-54157486D01*
X108226562Y-54222246D01*
X108226562Y-54222247D01*
X108206694Y-54251981D01*
X108186826Y-54281715D01*
X108186822Y-54281722D01*
X108129650Y-54419749D01*
X108129647Y-54419759D01*
X108100500Y-54566291D01*
X108100500Y-62363709D01*
X108129647Y-62510239D01*
X108129649Y-62510247D01*
X108162120Y-62588640D01*
X108186826Y-62648284D01*
X108193803Y-62658726D01*
X108269835Y-62772517D01*
X108626481Y-63129163D01*
X108626485Y-63129166D01*
X108686348Y-63169165D01*
X108750716Y-63212174D01*
X108750717Y-63212174D01*
X108750718Y-63212175D01*
X108826549Y-63243585D01*
X108888754Y-63269351D01*
X108888758Y-63269351D01*
X108888759Y-63269352D01*
X109035291Y-63298500D01*
X109035294Y-63298500D01*
X109035295Y-63298500D01*
X109184705Y-63298500D01*
X109233293Y-63298500D01*
X109300332Y-63318185D01*
X109333609Y-63349613D01*
X109459380Y-63522722D01*
X109627278Y-63690620D01*
X109627281Y-63690622D01*
X109627284Y-63690624D01*
X109653515Y-63709683D01*
X109696181Y-63765013D01*
X109702159Y-63834626D01*
X109669553Y-63896421D01*
X109653515Y-63910317D01*
X109627284Y-63929375D01*
X109627275Y-63929382D01*
X109459382Y-64097275D01*
X109319815Y-64289372D01*
X109212019Y-64500932D01*
X109138643Y-64726758D01*
X109101500Y-64961272D01*
X109101500Y-65198727D01*
X109138643Y-65433241D01*
X109212019Y-65659067D01*
X109317545Y-65866171D01*
X109319815Y-65870627D01*
X109459380Y-66062722D01*
X109627278Y-66230620D01*
X109627281Y-66230622D01*
X109660745Y-66254935D01*
X109703411Y-66310264D01*
X109709390Y-66379878D01*
X109676785Y-66441673D01*
X109660748Y-66455569D01*
X109632819Y-66475861D01*
X109632813Y-66475866D01*
X109465866Y-66642813D01*
X109327085Y-66833828D01*
X109219897Y-67044197D01*
X109146934Y-67268752D01*
X109130898Y-67370000D01*
X110446988Y-67370000D01*
X110414075Y-67427007D01*
X110380000Y-67554174D01*
X110380000Y-67685826D01*
X110414075Y-67812993D01*
X110446988Y-67870000D01*
X109130898Y-67870000D01*
X109146934Y-67971247D01*
X109219897Y-68195802D01*
X109327085Y-68406171D01*
X109465866Y-68597186D01*
X109632813Y-68764133D01*
X109823828Y-68902914D01*
X110034197Y-69010102D01*
X110258752Y-69083065D01*
X110258751Y-69083065D01*
X110491948Y-69120000D01*
X110630000Y-69120000D01*
X110630000Y-68053012D01*
X110687007Y-68085925D01*
X110814174Y-68120000D01*
X110945826Y-68120000D01*
X111072993Y-68085925D01*
X111130000Y-68053012D01*
X111130000Y-69120000D01*
X111268052Y-69120000D01*
X111501247Y-69083065D01*
X111725802Y-69010102D01*
X111936171Y-68902914D01*
X112127186Y-68764133D01*
X112294133Y-68597186D01*
X112432914Y-68406171D01*
X112540102Y-68195802D01*
X112613065Y-67971247D01*
X112629102Y-67870000D01*
X111313012Y-67870000D01*
X111345925Y-67812993D01*
X111380000Y-67685826D01*
X111380000Y-67554174D01*
X111345925Y-67427007D01*
X111313012Y-67370000D01*
X112629102Y-67370000D01*
X112613065Y-67268752D01*
X112540102Y-67044197D01*
X112432914Y-66833828D01*
X112294133Y-66642813D01*
X112127183Y-66475863D01*
X112099252Y-66455570D01*
X112056587Y-66400240D01*
X112050609Y-66330626D01*
X112083216Y-66268832D01*
X112099244Y-66254942D01*
X112132722Y-66230620D01*
X112300620Y-66062722D01*
X112440185Y-65870627D01*
X112547982Y-65659063D01*
X112621356Y-65433241D01*
X112631211Y-65371021D01*
X112646651Y-65273539D01*
X112658500Y-65198727D01*
X112658500Y-64965542D01*
X112678185Y-64898503D01*
X112694819Y-64877861D01*
X113102391Y-64470289D01*
X113589165Y-63983516D01*
X113598610Y-63969380D01*
X113672174Y-63859284D01*
X113711904Y-63763368D01*
X113729351Y-63721247D01*
X113758500Y-63574705D01*
X113758500Y-63425295D01*
X113758500Y-55365543D01*
X113778185Y-55298504D01*
X113794819Y-55277862D01*
X114277862Y-54794819D01*
X114339185Y-54761334D01*
X114365543Y-54758500D01*
X117600992Y-54758500D01*
X117668031Y-54778185D01*
X117713786Y-54830989D01*
X117723730Y-54900147D01*
X117694705Y-54963703D01*
X117673877Y-54982818D01*
X117647576Y-55001926D01*
X117647571Y-55001930D01*
X117501930Y-55147571D01*
X117501926Y-55147576D01*
X117380873Y-55314193D01*
X117287367Y-55497705D01*
X117223719Y-55693591D01*
X117191500Y-55897019D01*
X117191500Y-56102980D01*
X117223719Y-56306408D01*
X117287367Y-56502294D01*
X117380873Y-56685806D01*
X117501926Y-56852423D01*
X117501930Y-56852428D01*
X117647571Y-56998069D01*
X117647576Y-56998073D01*
X117759056Y-57079067D01*
X117814197Y-57119129D01*
X117931128Y-57178709D01*
X117997705Y-57212632D01*
X117997707Y-57212632D01*
X117997710Y-57212634D01*
X118102707Y-57246749D01*
X118193591Y-57276280D01*
X118284174Y-57290627D01*
X118397019Y-57308500D01*
X118397020Y-57308500D01*
X118602980Y-57308500D01*
X118602981Y-57308500D01*
X118806408Y-57276280D01*
X119002290Y-57212634D01*
X119185803Y-57119129D01*
X119352430Y-56998068D01*
X119498068Y-56852430D01*
X119619129Y-56685803D01*
X119712634Y-56502290D01*
X119776280Y-56306408D01*
X119808500Y-56102981D01*
X119808500Y-55897019D01*
X119808498Y-55897012D01*
X119808280Y-55894232D01*
X119808500Y-55893184D01*
X119808500Y-55892147D01*
X119808718Y-55892147D01*
X119822643Y-55825854D01*
X119871693Y-55776096D01*
X119931898Y-55760500D01*
X129724334Y-55760500D01*
X129797604Y-55745925D01*
X129797605Y-55745925D01*
X129816047Y-55742256D01*
X129870875Y-55731351D01*
X130008912Y-55674174D01*
X130133143Y-55591166D01*
X133853676Y-51870633D01*
X133914999Y-51837148D01*
X133941357Y-51834314D01*
X134774892Y-51834314D01*
X134848162Y-51819739D01*
X134848163Y-51819739D01*
X134866605Y-51816070D01*
X134921433Y-51805165D01*
X135059470Y-51747988D01*
X135183701Y-51664980D01*
X136269968Y-50578711D01*
X136274768Y-50576090D01*
X136277793Y-50571529D01*
X136305110Y-50559522D01*
X136331289Y-50545228D01*
X136338075Y-50545034D01*
X136341757Y-50543416D01*
X136377037Y-50543920D01*
X136414958Y-50549927D01*
X136478091Y-50579857D01*
X136515021Y-50639169D01*
X136514021Y-50709032D01*
X136483238Y-50760080D01*
X136410834Y-50832484D01*
X136327825Y-50956717D01*
X136270649Y-51094752D01*
X136270647Y-51094760D01*
X136259556Y-51150520D01*
X136259556Y-51150521D01*
X136241500Y-51241292D01*
X136241500Y-54982501D01*
X136221815Y-55049540D01*
X136169011Y-55095295D01*
X136155825Y-55100429D01*
X136153604Y-55101151D01*
X136150933Y-55102019D01*
X135939372Y-55209815D01*
X135747275Y-55349382D01*
X135579382Y-55517275D01*
X135439815Y-55709372D01*
X135332019Y-55920932D01*
X135258643Y-56146758D01*
X135221500Y-56381272D01*
X135221500Y-56618727D01*
X135258643Y-56853241D01*
X135332019Y-57079067D01*
X135432505Y-57276280D01*
X135439815Y-57290627D01*
X135579380Y-57482722D01*
X135747278Y-57650620D01*
X135747284Y-57650624D01*
X135773515Y-57669683D01*
X135816181Y-57725013D01*
X135822159Y-57794626D01*
X135789553Y-57856421D01*
X135773515Y-57870317D01*
X135747284Y-57889375D01*
X135747275Y-57889382D01*
X135579382Y-58057275D01*
X135579377Y-58057281D01*
X135453611Y-58230385D01*
X135398281Y-58273051D01*
X135353293Y-58281500D01*
X124885290Y-58281500D01*
X124812024Y-58296074D01*
X124738760Y-58310647D01*
X124738748Y-58310650D01*
X124600721Y-58367822D01*
X124600708Y-58367829D01*
X124476485Y-58450833D01*
X124476481Y-58450836D01*
X123722138Y-59205181D01*
X123660815Y-59238666D01*
X123634457Y-59241500D01*
X120146707Y-59241500D01*
X120079668Y-59221815D01*
X120046389Y-59190385D01*
X120033111Y-59172110D01*
X119920620Y-59017278D01*
X119752722Y-58849380D01*
X119560627Y-58709815D01*
X119515375Y-58686758D01*
X119349067Y-58602019D01*
X119123241Y-58528643D01*
X118888727Y-58491500D01*
X118888722Y-58491500D01*
X118111278Y-58491500D01*
X118111273Y-58491500D01*
X117876758Y-58528643D01*
X117650932Y-58602019D01*
X117439372Y-58709815D01*
X117247275Y-58849382D01*
X117079382Y-59017275D01*
X116939815Y-59209372D01*
X116832019Y-59420932D01*
X116758643Y-59646758D01*
X116721500Y-59881272D01*
X116721500Y-60118727D01*
X116758643Y-60353241D01*
X116832019Y-60579067D01*
X116927750Y-60766949D01*
X116939815Y-60790627D01*
X117079380Y-60982722D01*
X117247278Y-61150620D01*
X117247284Y-61150624D01*
X117273515Y-61169683D01*
X117316181Y-61225013D01*
X117322159Y-61294626D01*
X117289553Y-61356421D01*
X117273515Y-61370317D01*
X117247284Y-61389375D01*
X117247275Y-61389382D01*
X117079382Y-61557275D01*
X116939815Y-61749372D01*
X116832019Y-61960932D01*
X116758643Y-62186758D01*
X116721500Y-62421272D01*
X116721500Y-62658727D01*
X116758643Y-62893241D01*
X116832019Y-63119067D01*
X116924635Y-63300834D01*
X116939815Y-63330627D01*
X117079380Y-63522722D01*
X117247278Y-63690620D01*
X117247281Y-63690622D01*
X117280745Y-63714935D01*
X117323411Y-63770264D01*
X117329390Y-63839878D01*
X117296785Y-63901673D01*
X117280748Y-63915569D01*
X117252819Y-63935861D01*
X117252813Y-63935866D01*
X117085866Y-64102813D01*
X116947085Y-64293828D01*
X116839897Y-64504197D01*
X116766934Y-64728752D01*
X116750898Y-64830000D01*
X118066988Y-64830000D01*
X118034075Y-64887007D01*
X118000000Y-65014174D01*
X118000000Y-65145826D01*
X118034075Y-65272993D01*
X118066988Y-65330000D01*
X116750898Y-65330000D01*
X116766934Y-65431247D01*
X116839897Y-65655802D01*
X116947085Y-65866171D01*
X117085866Y-66057186D01*
X117252813Y-66224133D01*
X117252819Y-66224138D01*
X117287977Y-66249682D01*
X117330643Y-66305012D01*
X117336622Y-66374625D01*
X117304016Y-66436420D01*
X117287977Y-66450318D01*
X117252819Y-66475861D01*
X117252813Y-66475866D01*
X117085866Y-66642813D01*
X116947085Y-66833828D01*
X116839897Y-67044197D01*
X116766934Y-67268752D01*
X116750898Y-67370000D01*
X118066988Y-67370000D01*
X118034075Y-67427007D01*
X118000000Y-67554174D01*
X118000000Y-67685826D01*
X118034075Y-67812993D01*
X118066988Y-67870000D01*
X116750898Y-67870000D01*
X116766934Y-67971247D01*
X116839897Y-68195802D01*
X116947085Y-68406171D01*
X117085866Y-68597186D01*
X117252813Y-68764133D01*
X117443828Y-68902914D01*
X117654197Y-69010102D01*
X117878752Y-69083065D01*
X117878751Y-69083065D01*
X118111948Y-69120000D01*
X118250000Y-69120000D01*
X118250000Y-68053012D01*
X118307007Y-68085925D01*
X118434174Y-68120000D01*
X118565826Y-68120000D01*
X118692993Y-68085925D01*
X118750000Y-68053012D01*
X118750000Y-69120000D01*
X118888052Y-69120000D01*
X119121247Y-69083065D01*
X119345802Y-69010102D01*
X119556171Y-68902914D01*
X119747186Y-68764133D01*
X119914133Y-68597186D01*
X120052914Y-68406171D01*
X120160102Y-68195802D01*
X120233065Y-67971247D01*
X120249102Y-67870000D01*
X118933012Y-67870000D01*
X118965925Y-67812993D01*
X119000000Y-67685826D01*
X119000000Y-67554174D01*
X118965925Y-67427007D01*
X118933012Y-67370000D01*
X120249102Y-67370000D01*
X120233065Y-67268752D01*
X120160102Y-67044197D01*
X120052914Y-66833828D01*
X119914133Y-66642813D01*
X119747180Y-66475860D01*
X119712024Y-66450319D01*
X119669358Y-66394990D01*
X119663377Y-66325377D01*
X119695982Y-66263581D01*
X119712024Y-66249681D01*
X119747180Y-66224139D01*
X119914133Y-66057186D01*
X120052914Y-65866171D01*
X120160102Y-65655802D01*
X120233063Y-65431253D01*
X120243601Y-65364721D01*
X120273530Y-65301586D01*
X120332842Y-65264654D01*
X120402704Y-65265652D01*
X120453756Y-65296437D01*
X120705181Y-65547862D01*
X120738666Y-65609185D01*
X120741500Y-65635543D01*
X120741500Y-70998061D01*
X120721815Y-71065100D01*
X120705181Y-71085742D01*
X120578210Y-71212712D01*
X120578210Y-71212713D01*
X120578208Y-71212715D01*
X120530189Y-71278806D01*
X120466398Y-71366607D01*
X120380040Y-71536092D01*
X120321256Y-71717008D01*
X120291500Y-71904883D01*
X120291500Y-72095116D01*
X120321256Y-72282991D01*
X120380040Y-72463907D01*
X120466398Y-72633392D01*
X120578208Y-72787285D01*
X120578210Y-72787287D01*
X120705181Y-72914258D01*
X120738666Y-72975581D01*
X120741500Y-73001939D01*
X120741500Y-75370507D01*
X120721815Y-75437546D01*
X120690385Y-75470825D01*
X120647573Y-75501929D01*
X120647567Y-75501934D01*
X120501930Y-75647571D01*
X120501926Y-75647576D01*
X120380873Y-75814193D01*
X120287367Y-75997705D01*
X120223719Y-76193591D01*
X120191500Y-76397019D01*
X120191500Y-76602986D01*
X120199778Y-76655253D01*
X120190823Y-76724546D01*
X120164986Y-76762331D01*
X119151335Y-77775982D01*
X119068328Y-77900212D01*
X119068324Y-77900219D01*
X119013654Y-78032207D01*
X119013652Y-78032213D01*
X119011149Y-78038254D01*
X119011146Y-78038263D01*
X118982000Y-78184789D01*
X118982000Y-82970207D01*
X118990910Y-83014999D01*
X118990910Y-83015000D01*
X119011147Y-83116739D01*
X119011149Y-83116747D01*
X119062823Y-83241500D01*
X119068326Y-83254784D01*
X119107011Y-83312681D01*
X119151335Y-83379017D01*
X119151336Y-83379018D01*
X119946681Y-84174362D01*
X119980166Y-84235685D01*
X119983000Y-84262043D01*
X119983000Y-84439993D01*
X119988377Y-84473941D01*
X120012721Y-84627641D01*
X120071427Y-84808324D01*
X120071428Y-84808327D01*
X120135606Y-84934282D01*
X120157681Y-84977606D01*
X120269352Y-85131308D01*
X120403692Y-85265648D01*
X120557394Y-85377319D01*
X120610532Y-85404394D01*
X120726672Y-85463571D01*
X120726675Y-85463572D01*
X120829769Y-85497069D01*
X120887444Y-85536506D01*
X120914643Y-85600865D01*
X120902729Y-85669711D01*
X120855485Y-85721187D01*
X120829769Y-85732931D01*
X120726675Y-85766427D01*
X120726672Y-85766428D01*
X120557393Y-85852681D01*
X120489008Y-85902366D01*
X120403692Y-85964352D01*
X120403690Y-85964354D01*
X120403689Y-85964354D01*
X120267863Y-86100181D01*
X120206540Y-86133666D01*
X120180182Y-86136500D01*
X118001939Y-86136500D01*
X117934900Y-86116815D01*
X117914258Y-86100181D01*
X117787287Y-85973210D01*
X117787285Y-85973208D01*
X117633392Y-85861398D01*
X117588884Y-85838720D01*
X117463907Y-85775040D01*
X117282991Y-85716256D01*
X117095116Y-85686500D01*
X117095111Y-85686500D01*
X116904889Y-85686500D01*
X116904884Y-85686500D01*
X116717008Y-85716256D01*
X116536092Y-85775040D01*
X116366607Y-85861398D01*
X116310220Y-85902366D01*
X116212715Y-85973208D01*
X116212713Y-85973210D01*
X116212712Y-85973210D01*
X116078210Y-86107712D01*
X116078210Y-86107713D01*
X116078208Y-86107715D01*
X116051250Y-86144819D01*
X115966396Y-86261609D01*
X115952546Y-86288794D01*
X115904572Y-86339590D01*
X115842061Y-86356500D01*
X114130544Y-86356500D01*
X114063505Y-86336815D01*
X114017750Y-86284011D01*
X114007806Y-86214853D01*
X114036831Y-86151297D01*
X114042863Y-86144819D01*
X114129163Y-86058518D01*
X114129164Y-86058517D01*
X114129166Y-86058515D01*
X114212174Y-85934284D01*
X114269351Y-85796247D01*
X114292872Y-85678000D01*
X114298500Y-85649706D01*
X114298500Y-82616939D01*
X114318185Y-82549900D01*
X114334819Y-82529258D01*
X114392934Y-82471143D01*
X114461792Y-82402285D01*
X114573602Y-82248392D01*
X114659877Y-82079067D01*
X114659959Y-82078907D01*
X114659959Y-82078906D01*
X114659961Y-82078903D01*
X114718743Y-81897991D01*
X114725831Y-81853241D01*
X114748500Y-81710116D01*
X114748500Y-81519883D01*
X114718743Y-81332008D01*
X114682427Y-81220239D01*
X114659961Y-81151097D01*
X114659959Y-81151094D01*
X114659959Y-81151092D01*
X114607687Y-81048504D01*
X114573602Y-80981608D01*
X114461792Y-80827715D01*
X114327285Y-80693208D01*
X114173392Y-80581398D01*
X114164134Y-80576681D01*
X114003907Y-80495040D01*
X113822991Y-80436256D01*
X113635116Y-80406500D01*
X113635111Y-80406500D01*
X113444889Y-80406500D01*
X113444884Y-80406500D01*
X113257008Y-80436256D01*
X113076092Y-80495040D01*
X112906607Y-80581398D01*
X112842850Y-80627721D01*
X112752715Y-80693208D01*
X112752713Y-80693210D01*
X112752712Y-80693210D01*
X112618210Y-80827712D01*
X112618210Y-80827713D01*
X112618208Y-80827715D01*
X112577059Y-80884352D01*
X112506398Y-80981607D01*
X112420040Y-81151092D01*
X112361256Y-81332008D01*
X112331500Y-81519883D01*
X112331500Y-81710116D01*
X112361256Y-81897991D01*
X112420040Y-82078907D01*
X112503178Y-82242072D01*
X112506398Y-82248392D01*
X112618208Y-82402285D01*
X112618210Y-82402287D01*
X112745181Y-82529258D01*
X112778666Y-82590581D01*
X112781500Y-82616939D01*
X112781500Y-85209456D01*
X112761815Y-85276495D01*
X112745181Y-85297137D01*
X111969572Y-86072745D01*
X111908249Y-86106230D01*
X111838557Y-86101246D01*
X111809006Y-86085382D01*
X111685806Y-85995873D01*
X111685805Y-85995872D01*
X111685803Y-85995871D01*
X111623944Y-85964352D01*
X111502294Y-85902367D01*
X111306408Y-85838719D01*
X111130794Y-85810905D01*
X111102981Y-85806500D01*
X110897019Y-85806500D01*
X110872550Y-85810375D01*
X110693591Y-85838719D01*
X110497705Y-85902367D01*
X110314193Y-85995873D01*
X110147576Y-86116926D01*
X110147571Y-86116930D01*
X110001930Y-86262571D01*
X110001926Y-86262576D01*
X109880873Y-86429193D01*
X109787367Y-86612705D01*
X109723719Y-86808591D01*
X109691500Y-87012019D01*
X109691500Y-87217980D01*
X109723719Y-87421408D01*
X109787367Y-87617294D01*
X109841595Y-87723720D01*
X109878464Y-87796080D01*
X109880873Y-87800806D01*
X110001926Y-87967423D01*
X110001930Y-87967428D01*
X110147571Y-88113069D01*
X110147576Y-88113073D01*
X110269281Y-88201496D01*
X110314197Y-88234129D01*
X110390350Y-88272931D01*
X110497705Y-88327632D01*
X110497707Y-88327632D01*
X110497710Y-88327634D01*
X110602707Y-88361749D01*
X110693591Y-88391280D01*
X110795305Y-88407390D01*
X110897019Y-88423500D01*
X110897020Y-88423500D01*
X111102980Y-88423500D01*
X111102981Y-88423500D01*
X111306408Y-88391280D01*
X111502290Y-88327634D01*
X111685803Y-88234129D01*
X111852430Y-88113068D01*
X111998068Y-87967430D01*
X112029175Y-87924615D01*
X112084505Y-87881949D01*
X112129493Y-87873500D01*
X116250476Y-87873500D01*
X116317515Y-87893185D01*
X116323361Y-87897182D01*
X116351077Y-87917318D01*
X116366608Y-87928602D01*
X116473013Y-87982818D01*
X116536092Y-88014959D01*
X116536094Y-88014959D01*
X116536097Y-88014961D01*
X116632850Y-88046398D01*
X116717008Y-88073743D01*
X116904884Y-88103500D01*
X116904889Y-88103500D01*
X117095116Y-88103500D01*
X117282991Y-88073743D01*
X117345966Y-88053281D01*
X117463903Y-88014961D01*
X117633392Y-87928602D01*
X117787285Y-87816792D01*
X117914258Y-87689819D01*
X117975581Y-87656334D01*
X118001939Y-87653500D01*
X120200182Y-87653500D01*
X120267221Y-87673185D01*
X120287863Y-87689819D01*
X120403692Y-87805648D01*
X120557394Y-87917319D01*
X120640420Y-87959622D01*
X120726672Y-88003571D01*
X120726678Y-88003573D01*
X120843521Y-88041537D01*
X120901197Y-88080974D01*
X120928396Y-88145332D01*
X120916482Y-88214179D01*
X120869238Y-88265655D01*
X120843522Y-88277399D01*
X120729938Y-88314304D01*
X120729936Y-88314305D01*
X120561844Y-88399953D01*
X120561839Y-88399957D01*
X120536743Y-88418188D01*
X120536743Y-88418191D01*
X121105906Y-88987352D01*
X121018429Y-89010792D01*
X120917070Y-89069311D01*
X120834311Y-89152070D01*
X120775792Y-89253429D01*
X120752352Y-89340905D01*
X120183191Y-88771743D01*
X120183188Y-88771743D01*
X120164957Y-88796839D01*
X120164953Y-88796844D01*
X120079305Y-88964936D01*
X120079304Y-88964938D01*
X120021011Y-89144349D01*
X119991500Y-89330676D01*
X119991500Y-89519323D01*
X120021011Y-89705650D01*
X120079304Y-89885061D01*
X120079305Y-89885063D01*
X120164952Y-90053153D01*
X120183189Y-90078255D01*
X120183190Y-90078255D01*
X120752352Y-89509093D01*
X120775792Y-89596571D01*
X120834311Y-89697930D01*
X120917070Y-89780689D01*
X121018429Y-89839208D01*
X121105905Y-89862647D01*
X120536743Y-90431808D01*
X120536743Y-90431809D01*
X120561844Y-90450046D01*
X120673650Y-90507015D01*
X120724446Y-90554990D01*
X120741241Y-90622811D01*
X120718703Y-90688946D01*
X120663988Y-90732397D01*
X120617355Y-90741500D01*
X119865543Y-90741500D01*
X119798504Y-90721815D01*
X119777862Y-90705181D01*
X118983518Y-89910836D01*
X118983517Y-89910835D01*
X118918339Y-89867285D01*
X118859284Y-89827826D01*
X118739440Y-89778185D01*
X118721247Y-89770649D01*
X118721239Y-89770647D01*
X118647976Y-89756074D01*
X118574709Y-89741500D01*
X118574706Y-89741500D01*
X104925294Y-89741500D01*
X104925292Y-89741500D01*
X104906688Y-89745200D01*
X104837097Y-89738971D01*
X104781920Y-89696106D01*
X104758678Y-89630216D01*
X104758500Y-89623582D01*
X104758500Y-85942500D01*
X104778185Y-85875461D01*
X104830989Y-85829706D01*
X104882500Y-85818500D01*
X105318638Y-85818500D01*
X105318654Y-85818499D01*
X105345692Y-85815591D01*
X105379201Y-85811989D01*
X105516204Y-85760889D01*
X105633261Y-85673261D01*
X105720889Y-85556204D01*
X105771989Y-85419201D01*
X105776492Y-85377318D01*
X105778499Y-85358654D01*
X105778500Y-85358637D01*
X105778500Y-82721362D01*
X105778499Y-82721345D01*
X105775157Y-82690270D01*
X105771989Y-82660799D01*
X105767439Y-82648601D01*
X105743600Y-82584688D01*
X105727243Y-82540834D01*
X105722259Y-82471143D01*
X105755743Y-82409820D01*
X105817066Y-82376334D01*
X105843425Y-82373500D01*
X107458061Y-82373500D01*
X107525100Y-82393185D01*
X107545742Y-82409819D01*
X107672715Y-82536792D01*
X107826608Y-82648602D01*
X107906683Y-82689402D01*
X107996092Y-82734959D01*
X107996094Y-82734959D01*
X107996097Y-82734961D01*
X108093070Y-82766469D01*
X108177008Y-82793743D01*
X108364884Y-82823500D01*
X108364889Y-82823500D01*
X108555116Y-82823500D01*
X108742991Y-82793743D01*
X108749894Y-82791500D01*
X108923903Y-82734961D01*
X109093392Y-82648602D01*
X109247285Y-82536792D01*
X109381792Y-82402285D01*
X109493602Y-82248392D01*
X109579877Y-82079067D01*
X109579959Y-82078907D01*
X109579959Y-82078906D01*
X109579961Y-82078903D01*
X109638743Y-81897991D01*
X109645831Y-81853241D01*
X109668500Y-81710116D01*
X109668500Y-81519883D01*
X109638743Y-81332008D01*
X109602427Y-81220239D01*
X109579961Y-81151097D01*
X109579959Y-81151094D01*
X109579959Y-81151092D01*
X109527687Y-81048504D01*
X109493602Y-80981608D01*
X109381792Y-80827715D01*
X109247285Y-80693208D01*
X109093392Y-80581398D01*
X109084134Y-80576681D01*
X108923907Y-80495040D01*
X108742991Y-80436256D01*
X108555116Y-80406500D01*
X108555111Y-80406500D01*
X108364889Y-80406500D01*
X108364884Y-80406500D01*
X108177008Y-80436256D01*
X107996092Y-80495040D01*
X107826607Y-80581398D01*
X107762850Y-80627721D01*
X107672715Y-80693208D01*
X107672713Y-80693210D01*
X107672712Y-80693210D01*
X107545742Y-80820181D01*
X107484419Y-80853666D01*
X107458061Y-80856500D01*
X105711137Y-80856500D01*
X105644098Y-80836815D01*
X105600652Y-80788794D01*
X105560186Y-80709374D01*
X105516577Y-80649352D01*
X105420620Y-80517278D01*
X105252722Y-80349380D01*
X105060627Y-80209815D01*
X104849067Y-80102019D01*
X104623241Y-80028643D01*
X104388727Y-79991500D01*
X104388722Y-79991500D01*
X103611278Y-79991500D01*
X103611273Y-79991500D01*
X103376758Y-80028643D01*
X103150932Y-80102019D01*
X102939372Y-80209815D01*
X102747275Y-80349382D01*
X102579382Y-80517275D01*
X102439815Y-80709372D01*
X102332019Y-80920932D01*
X102258643Y-81146758D01*
X102221500Y-81381272D01*
X100075500Y-81381272D01*
X100075500Y-47428092D01*
X100076097Y-47415938D01*
X100086326Y-47312080D01*
X100087494Y-47300220D01*
X100092234Y-47276389D01*
X100124216Y-47170959D01*
X100133508Y-47148526D01*
X100185442Y-47051365D01*
X100198938Y-47031166D01*
X100268827Y-46946006D01*
X100286006Y-46928827D01*
X100371166Y-46858938D01*
X100391365Y-46845442D01*
X100488526Y-46793508D01*
X100510959Y-46784216D01*
X100616389Y-46752234D01*
X100640220Y-46747494D01*
X100755939Y-46736097D01*
X100768093Y-46735500D01*
X100786531Y-46735500D01*
X163417365Y-46735500D01*
X163484404Y-46755185D01*
G37*
%TD.AperFunction*%
%TD*%
M02*
